<?xml version="1.0" encoding="UTF-8"?>
<svg version="1.1" xmlns="http://www.w3.org/2000/svg" width="32" height="32">
<path d="M0 0 C0.66 0 1.32 0 2 0 C2 0.99 2 1.98 2 3 C2.721875 3.061875 3.44375 3.12375 4.1875 3.1875 C7.95115098 4.27477695 9.53870956 5.99175613 12 9 C12.8125 11.8125 12.8125 11.8125 13 14 C13.99 14 14.98 14 16 14 C16 14.66 16 15.32 16 16 C15.01 16 14.02 16 13 16 C12.7525 16.9075 12.505 17.815 12.25 18.75 C10.92685858 22.19016768 9.89683512 23.76529862 7 26 C4.25 26.75 4.25 26.75 2 27 C2 27.99 2 28.98 2 30 C1.34 30 0.68 30 0 30 C0 29.01 0 28.02 0 27 C-0.721875 26.938125 -1.44375 26.87625 -2.1875 26.8125 C-5.95115098 25.72522305 -7.53870956 24.00824387 -10 21 C-10.8125 18.1875 -10.8125 18.1875 -11 16 C-11.99 16 -12.98 16 -14 16 C-14 15.34 -14 14.68 -14 14 C-13.01 14 -12.02 14 -11 14 C-10.938125 13.278125 -10.87625 12.55625 -10.8125 11.8125 C-9.72522305 8.04884902 -8.00824387 6.46129044 -5 4 C-2.1875 3.1875 -2.1875 3.1875 0 3 C0 2.01 0 1.02 0 0 Z " fill="#9B4B50" transform="translate(15,1)"/>
<path d="M0 0 C0.66 0 1.32 0 2 0 C2 0.99 2 1.98 2 3 C2.721875 3.061875 3.44375 3.12375 4.1875 3.1875 C7.95115098 4.27477695 9.53870956 5.99175613 12 9 C12.8125 11.8125 12.8125 11.8125 13 14 C13.99 14 14.98 14 16 14 C16 14.66 16 15.32 16 16 C15.01 16 14.02 16 13 16 C12.7525 16.9075 12.505 17.815 12.25 18.75 C10.92685858 22.19016768 9.89683512 23.76529862 7 26 C4.25 26.75 4.25 26.75 2 27 C2 27.99 2 28.98 2 30 C1.34 30 0.68 30 0 30 C0 29.01 0 28.02 0 27 C-0.721875 26.938125 -1.44375 26.87625 -2.1875 26.8125 C-5.95115098 25.72522305 -7.53870956 24.00824387 -10 21 C-10.8125 18.1875 -10.8125 18.1875 -11 16 C-11.99 16 -12.98 16 -14 16 C-14 15.34 -14 14.68 -14 14 C-13.01 14 -12.02 14 -11 14 C-10.938125 13.278125 -10.87625 12.55625 -10.8125 11.8125 C-9.72522305 8.04884902 -8.00824387 6.46129044 -5 4 C-2.1875 3.1875 -2.1875 3.1875 0 3 C0 2.01 0 1.02 0 0 Z M-8 9 C-9.60086627 12.20173254 -9.49917089 15.52577059 -9 19 C-7.20636089 21.8100346 -5.98119065 23.50940468 -3 25 C2.81345947 25.53365513 2.81345947 25.53365513 7.9375 23.125 C11.09695358 19.8698054 11.33421243 17.57586762 11.29296875 13.0390625 C10.83745033 9.86865433 9.24684343 8.1807598 7 6 C1.28127892 3.14063946 -3.77770087 4.64975241 -8 9 Z " fill="#100605" transform="translate(15,1)"/>
<path d="M0 0 C2.8100346 1.79363911 4.50940468 3.01880935 6 6 C6.5738576 13.0010627 6.5738576 13.0010627 4.3125 16.9375 C1.78804723 19.18903896 0.32957907 19.72253508 -3 20 C-3 19.34 -3 18.68 -3 18 C-2.01 17.67 -1.02 17.34 0 17 C2.27132498 13.77232766 2.41132905 10.86649308 2 7 C1 5 1 5 -1 4 C-4.86649308 3.58867095 -7.77232766 3.72867502 -11 6 C-11.33 6.99 -11.66 7.98 -12 9 C-12.66 9 -13.32 9 -14 9 C-13.72253508 5.67042093 -13.18903896 4.21195277 -10.9375 1.6875 C-7.15831548 -0.48352089 -4.26550676 -0.87895291 0 0 Z " fill="#9F3E45" transform="translate(20,6)"/>
<path d="M0 0 C3.125 0.375 3.125 0.375 5.5 2 C7.61206506 5.08686432 7.73695145 6.7032913 7.125 10.375 C5.25 12.75 5.25 12.75 3.125 14.375 C2.465 14.375 1.805 14.375 1.125 14.375 C1.125 11.735 1.125 9.095 1.125 6.375 C-1.515 6.375 -4.155 6.375 -6.875 6.375 C-4.15277778 0.54166667 -4.15277778 0.54166667 0 0 Z " fill="#887172" transform="translate(15.875,8.625)"/>
<path d="M0 0 C0.66 0 1.32 0 2 0 C2.09765625 6.15234375 2.09765625 6.15234375 2 8 C1 9 1 9 -2.5625 9.0625 C-3.696875 9.041875 -4.83125 9.02125 -6 9 C-6 8.01 -6 7.02 -6 6 C-4.02 6 -2.04 6 0 6 C0 4.02 0 2.04 0 0 Z " fill="#000200" transform="translate(30,23)"/>
<path d="M0 0 C0.66 0 1.32 0 2 0 C2 1.98 2 3.96 2 6 C3.98 6 5.96 6 8 6 C8 6.99 8 7.98 8 9 C5.66705225 9.04241723 3.33297433 9.04092937 1 9 C0 8 0 8 -0.09765625 6.15234375 C-0.06510417 4.1015625 -0.03255208 2.05078125 0 0 Z " fill="#000200" transform="translate(0,23)"/>
<path d="M0 0 C2.33294775 -0.04241723 4.66702567 -0.04092937 7 0 C8 1 8 1 8.09765625 2.84765625 C8.04882812 5.92382812 8.04882812 5.92382812 8 9 C7.34 9 6.68 9 6 9 C6 7.02 6 5.04 6 3 C4.02 3 2.04 3 0 3 C0 2.01 0 1.02 0 0 Z " fill="#000200" transform="translate(24,0)"/>
<path d="M0 0 C1.134375 0.020625 2.26875 0.04125 3.4375 0.0625 C3.4375 1.0525 3.4375 2.0425 3.4375 3.0625 C1.4575 3.0625 -0.5225 3.0625 -2.5625 3.0625 C-2.5625 5.0425 -2.5625 7.0225 -2.5625 9.0625 C-3.2225 9.0625 -3.8825 9.0625 -4.5625 9.0625 C-4.66015625 2.91015625 -4.66015625 2.91015625 -4.5625 1.0625 C-3.5625 0.0625 -3.5625 0.0625 0 0 Z " fill="#000200" transform="translate(4.5625,-0.0625)"/>
<path d="M0 0 C0 0.66 0 1.32 0 2 C-0.99 2.66 -1.98 3.32 -3 4 C-5.16343011 6.03268602 -5.16343011 6.03268602 -7 9 C-7.66 9 -8.32 9 -9 9 C-8.70460812 5.45529741 -8.22373481 4.21784705 -5.625 1.6875 C-3 0 -3 0 0 0 Z " fill="#CC454F" transform="translate(15,6)"/>
<path d="M0 0 C1.32 0 2.64 0 4 0 C3.25 2.4375 3.25 2.4375 2 5 C-0.125 5.8125 -0.125 5.8125 -2 6 C-1.125 1.125 -1.125 1.125 0 0 Z " fill="#EEEEEE" transform="translate(19,17)"/>
<path d="M0 0 C2.475 0.495 2.475 0.495 5 1 C5.33 2.65 5.66 4.3 6 6 C3.5625 5.25 3.5625 5.25 1 4 C0.1875 1.875 0.1875 1.875 0 0 Z " fill="#EEEEEE" transform="translate(9,17)"/>
<path d="M0 0 C0.66 0 1.32 0 2 0 C2.66 1.98 3.32 3.96 4 6 C5.65 6.33 7.3 6.66 9 7 C9 7.66 9 8.32 9 9 C5.45529741 8.70460812 4.21784705 8.22373481 1.6875 5.625 C0 3 0 3 0 0 Z " fill="#D33E49" transform="translate(6,17)"/>
<path d="M0 0 C0.66 0 1.32 0 2 0 C1.70460812 3.54470259 1.22373481 4.78215295 -1.375 7.3125 C-4 9 -4 9 -7 9 C-7 8.34 -7 7.68 -7 7 C-5.02 6.34 -3.04 5.68 -1 5 C-0.67 3.35 -0.34 1.7 0 0 Z " fill="#D33E49" transform="translate(24,17)"/>
<path d="M0 0 C0.33 0.66 0.66 1.32 1 2 C0.67 2.66 0.34 3.32 0 4 C1.32 4 2.64 4 4 4 C4 4.66 4 5.32 4 6 C2.68 6 1.36 6 0 6 C0.33 7.32 0.66 8.64 1 10 C0.34 9.67 -0.32 9.34 -1 9 C-1 8.01 -1 7.02 -1 6 C-1.66 6 -2.32 6 -3 6 C-3 5.34 -3 4.68 -3 4 C-2.34 4 -1.68 4 -1 4 C-0.67 2.68 -0.34 1.36 0 0 Z " fill="#805759" transform="translate(9,11)"/>
<path d="M0 0 C2.62187494 1.04874998 3.79371361 1.64931313 5.25 4.125 C5.4975 4.74375 5.745 5.3625 6 6 C4.35 5.67 2.7 5.34 1 5 C0.67 3.35 0.34 1.7 0 0 Z " fill="#F4F4F4" transform="translate(17,9)"/>
<path d="M0 0 C0.66 0 1.32 0 2 0 C1.67 1.65 1.34 3.3 1 5 C-0.65 5.33 -2.3 5.66 -4 6 C-2.84826645 3.53199953 -1.95216435 1.95216435 0 0 Z " fill="#F4F4F4" transform="translate(13,9)"/>
</svg>
