<?xml version="1.0" encoding="UTF-8"?>
<svg version="1.1" xmlns="http://www.w3.org/2000/svg" width="48" height="48">
<path d="M0 0 C3.96 0 7.92 0 12 0 C12 1.32 12 2.64 12 4 C10.68 4 9.36 4 8 4 C8 13.24 8 22.48 8 32 C9.32 32 10.64 32 12 32 C12 33.32 12 34.64 12 36 C8.04 36 4.08 36 0 36 C0 34.68 0 33.36 0 32 C1.32 32 2.64 32 4 32 C4 30.02 4 28.04 4 26 C-4.91 26 -13.82 26 -23 26 C-23.1953125 15.2578125 -23.1953125 15.2578125 -23 12 C-21 10 -21 10 -18.47802734 9.77294922 C-17.4411377 9.78342285 -16.40424805 9.79389648 -15.3359375 9.8046875 C-14.21445313 9.81113281 -13.09296875 9.81757813 -11.9375 9.82421875 C-10.761875 9.84097656 -9.58625 9.85773437 -8.375 9.875 C-6.59996094 9.88853516 -6.59996094 9.88853516 -4.7890625 9.90234375 C-1.85917477 9.92597188 1.0703134 9.95891486 4 10 C4 8.02 4 6.04 4 4 C2.68 4 1.36 4 0 4 C0 2.68 0 1.36 0 0 Z M-19 16 C-19 17.98 -19 19.96 -19 22 C-13.39 22 -7.78 22 -2 22 C-2 19.36 -2 16.72 -2 14 C-4.45862401 13.94616152 -6.9160755 13.90640962 -9.375 13.875 C-10.07367188 13.85824219 -10.77234375 13.84148438 -11.4921875 13.82421875 C-15.70490465 13.63142218 -15.70490465 13.63142218 -19 16 Z " fill="#1A1A1A" transform="translate(26,6)"/>
<path d="M0 0 C2.64 0 5.28 0 8 0 C8.05384521 2.29141286 8.09272087 4.58318188 8.125 6.875 C8.14820313 8.15117187 8.17140625 9.42734375 8.1953125 10.7421875 C8 14 8 14 6 16 C4.02 16 2.04 16 0 16 C0 10.72 0 5.44 0 0 Z " fill="#1A1A1A" transform="translate(37,16)"/>
</svg>
