<?xml version="1.0" encoding="UTF-8"?>
<svg version="1.1" xmlns="http://www.w3.org/2000/svg" width="72" height="72">
<path d="M0 0 C5.01286781 0.56654005 7.79960244 2.52616186 11.80859375 5.4375 C12.49244141 5.91445313 13.17628906 6.39140625 13.88085938 6.8828125 C15.55451165 8.05319871 17.21427817 9.24339868 18.87109375 10.4375 C18.99484375 9.15875 19.11859375 7.88 19.24609375 6.5625 C19.62109375 2.6875 19.62109375 2.6875 21.87109375 0.4375 C28.43585558 -0.49681067 31.78347708 1.81654774 36.80859375 5.5625 C37.85756836 6.32191895 37.85756836 6.32191895 38.92773438 7.09667969 C40.30117573 8.09316067 41.67033896 9.09557105 43.03466797 10.10449219 C44.55089959 11.20508041 46.11398242 12.24080946 47.6875 13.2578125 C51.24815031 15.58911485 52.62083894 16.68673557 53.99609375 20.8125 C52.1736259 26.68489641 47.76234371 28.99958024 42.87109375 32.4375 C41.68929713 33.34322255 40.5110387 34.25357619 39.3359375 35.16796875 C38.11944568 36.09240534 36.90200566 37.01559558 35.68359375 37.9375 C35.11431152 38.38327393 34.5450293 38.82904785 33.95849609 39.28833008 C29.83540759 42.31553567 26.9397956 43.08114468 21.87109375 42.4375 C19.4734619 40.03986815 19.52828789 39.10476502 19.24609375 35.8125 C19.17132812 34.99523438 19.0965625 34.17796875 19.01953125 33.3359375 C18.97054688 32.70945313 18.9215625 32.08296875 18.87109375 31.4375 C17.36869141 32.62859375 17.36869141 32.62859375 15.8359375 33.84375 C14.49416696 34.87588119 13.15168083 35.90708258 11.80859375 36.9375 C11.15181641 37.46214844 10.49503906 37.98679688 9.81835938 38.52734375 C6.35731301 41.15296513 4.41205892 42.37199463 0 42.90625 C-3.12890625 42.4375 -3.12890625 42.4375 -5.12890625 40.4375 C-5.32880852 37.59209858 -5.40867601 34.84612216 -5.39453125 32 C-5.3964447 31.16412354 -5.39835815 30.32824707 -5.40032959 29.46704102 C-5.40169161 27.69840189 -5.39799401 25.92975277 -5.38964844 24.16113281 C-5.378949 21.44834006 -5.38954301 18.73620956 -5.40234375 16.0234375 C-5.40102216 14.3072902 -5.39845977 12.59114331 -5.39453125 10.875 C-5.39857971 10.06039307 -5.40262817 9.24578613 -5.40679932 8.40649414 C-5.34277291 0.74705439 -5.34277291 0.74705439 0 0 Z M3.87109375 12.4375 C2.45334537 13.62602855 2.45334537 13.62602855 2.7734375 17.03515625 C2.78011155 18.52346867 2.79207192 20.01176432 2.80859375 21.5 C2.81310547 22.25861328 2.81761719 23.01722656 2.82226562 23.79882812 C2.83408695 25.67841871 2.85202297 27.55796899 2.87109375 29.4375 C6.63228851 28.81356349 9.06069417 27.08976285 12.12109375 24.875 C13.013125 24.23433594 13.90515625 23.59367187 14.82421875 22.93359375 C15.4996875 22.43988281 16.17515625 21.94617187 16.87109375 21.4375 C12.78376234 17.98881413 8.43303468 15.19956846 3.87109375 12.4375 Z M28.87109375 12.4375 C27.45334537 13.62602855 27.45334537 13.62602855 27.7734375 17.03515625 C27.78011155 18.52346867 27.79207192 20.01176432 27.80859375 21.5 C27.81310547 22.25861328 27.81761719 23.01722656 27.82226562 23.79882812 C27.83408695 25.67841871 27.85202297 27.55796899 27.87109375 29.4375 C31.63228851 28.81356349 34.06069417 27.08976285 37.12109375 24.875 C38.013125 24.23433594 38.90515625 23.59367187 39.82421875 22.93359375 C40.4996875 22.43988281 41.17515625 21.94617187 41.87109375 21.4375 C37.78376234 17.98881413 33.43303468 15.19956846 28.87109375 12.4375 Z " fill="#000000" transform="translate(12.12890625,14.5625)"/>
</svg>
