<?xml version="1.0" encoding="UTF-8"?>
<svg version="1.1" xmlns="http://www.w3.org/2000/svg" width="72" height="72">
<path d="M0 0 C19.9 0 19.9 0 25 3 C29.8318723 8.82302559 30.16129615 13.68842992 30.203125 21.01953125 C30.20882507 21.79632736 30.21452515 22.57312347 30.22039795 23.37345886 C30.22982748 25.01499071 30.23637379 26.65654131 30.24023438 28.2980957 C30.2499261 30.79347238 30.28096219 33.28802001 30.3125 35.78320312 C30.31903231 37.38280764 30.32428189 38.98241801 30.328125 40.58203125 C30.3404718 41.32081009 30.3528186 42.05958893 30.36553955 42.820755 C30.34153365 48.47853426 29.28646995 53.28062507 25.53515625 57.7421875 C17.2031717 64.15140639 11.83948643 62 0 62 C0 41.54 0 21.08 0 0 Z M11.25 31.1875 C9.83072598 32.98996766 9.83072598 32.98996766 9.5 35.5 C9.77506293 38.20799476 9.77506293 38.20799476 12.25 39.9375 C14.87403082 41.23146535 14.87403082 41.23146535 17.25 40.5625 C19.26446481 39.03022246 19.26446481 39.03022246 19.9375 36.0625 C20.28070381 33.06147485 20.28070381 33.06147485 18.8125 31.125 C16.10381362 29.44374638 13.90485982 29.38598798 11.25 31.1875 Z " fill="#FFFFFF" transform="translate(37,5)"/>
<path d="M0 0 C0 20.46 0 40.92 0 62 C-20.432 62 -20.432 62 -25.7421875 57.53515625 C-29.99315392 52.0088999 -30.16403836 47.83726301 -30.203125 41.015625 C-30.20882507 40.24120056 -30.21452515 39.46677612 -30.22039795 38.66888428 C-30.22982851 37.03154864 -30.2363742 35.39419418 -30.24023438 33.75683594 C-30.24991257 31.27244231 -30.2809421 28.78888622 -30.3125 26.3046875 C-30.31903371 24.70833821 -30.32428273 23.11198304 -30.328125 21.515625 C-30.3404718 20.78200745 -30.3528186 20.04838989 -30.36553955 19.2925415 C-30.33867753 12.96229853 -29.18723431 7.24479311 -24.625 2.5625 C-17.20524976 -1.854018 -8.36000357 0 0 0 Z M-23 7 C-25.66390643 12.10789037 -26.44775872 16.35730102 -26.3984375 22.12890625 C-26.40130768 22.88163315 -26.40417786 23.63436005 -26.40713501 24.40989685 C-26.40916401 25.99063882 -26.40371617 27.57140658 -26.39111328 29.15209961 C-26.37501901 31.55965655 -26.39101205 33.96554089 -26.41015625 36.37304688 C-26.40817405 37.91667034 -26.40433085 39.46029277 -26.3984375 41.00390625 C-26.40754654 42.07288902 -26.40754654 42.07288902 -26.4168396 43.16346741 C-26.35167424 47.83340894 -25.46019634 51.03371955 -23 55 C-17.01885525 59.72195638 -12.29441183 58 -4 58 C-4 40.18 -4 22.36 -4 4 C-14.62887412 3.11143726 -14.62887412 3.11143726 -23 7 Z " fill="#FFFFFF" transform="translate(35,5)"/>
<path d="M0 0 C2.4375 1.5625 2.4375 1.5625 4 4 C4 7.77684879 3.78395245 10.03513544 1.375 13 C-2.07663304 14.45331917 -4.42809484 13.92604949 -8 13 C-10.32749345 9.50875983 -10.50299316 8.10777749 -10 4 C-7.21921757 -0.06422047 -4.81255755 -0.80209293 0 0 Z M-5 4 C-5.33 5.65 -5.66 7.3 -6 9 C-4.68 9.33 -3.36 9.66 -2 10 C-0.89163577 8.11683841 -0.89163577 8.11683841 0 6 C-0.33 5.34 -0.66 4.68 -1 4 C-2.32 4 -3.64 4 -5 4 Z " fill="#FFFFFF" transform="translate(24,14)"/>
</svg>
