<?xml version="1.0" encoding="UTF-8"?>
<svg version="1.1" xmlns="http://www.w3.org/2000/svg" width="50" height="50">
<path d="M0 0 C1.66611905 -0.042721 3.33382885 -0.04063832 5 0 C6 1 6 1 6.3125 3.375 C5.9306966 7.80391941 4.47587963 11.33071362 2.77734375 15.4140625 C1.7124019 18.95673339 2.39231679 20.78463358 4 24 C4.42955998 33.54370213 0.16972942 40.74588947 -5.375 48.1875 C-8.99669819 50.68819637 -11.81466951 50.75321737 -16 50 C-24.883022 47.76940363 -31.56345392 43.43654608 -38 37 C-38 35.68 -38 34.36 -38 33 C-37.41992188 32.90203125 -36.83984375 32.8040625 -36.2421875 32.703125 C-28.55432136 31.23152026 -23.60835031 28.51525389 -19 22 C-18.46375 21.0925 -17.9275 20.185 -17.375 19.25 C-16 17 -16 17 -14 16 C-12.00039988 15.960008 -9.99952758 15.95653201 -8 16 C-7.73445313 15.29488281 -7.46890625 14.58976563 -7.1953125 13.86328125 C-5.93501033 10.84432214 -4.46042006 8.04814924 -2.875 5.1875 C-2.33617187 4.21167969 -1.79734375 3.23585937 -1.2421875 2.23046875 C-0.83226562 1.49441406 -0.42234375 0.75835937 0 0 Z M2 3 C-0.64 7.95 -3.28 12.9 -6 18 C-4.68 18.33 -3.36 18.66 -2 19 C-1.13444052 16.90049414 -0.28288723 14.7952093 0.5625 12.6875 C1.03816406 11.51574219 1.51382813 10.34398437 2.00390625 9.13671875 C3.33297345 6.01803916 3.33297345 6.01803916 2 3 Z M-13 19 C-13 19.99 -13 20.98 -13 22 C-8.34525646 24.84984298 -4.29860806 26.7023817 1 28 C0.87013708 26.07536785 0.87013708 26.07536785 0 24 C-2.19203891 22.42309443 -2.19203891 22.42309443 -4.875 21.25 C-5.75929688 20.82203125 -6.64359375 20.3940625 -7.5546875 19.953125 C-10.02844586 18.8184178 -10.02844586 18.8184178 -13 19 Z M-16 24 C-16 24.66 -16 25.32 -16 26 C-15.01 25.67 -14.02 25.34 -13 25 C-13.99 24.67 -14.98 24.34 -16 24 Z M-13 26 C-12.67 26.66 -12.34 27.32 -12 28 C-11.01 27.67 -10.02 27.34 -9 27 C-10.32 26.67 -11.64 26.34 -13 26 Z M-22.0625 30.125 C-22.74892578 30.84623047 -22.74892578 30.84623047 -23.44921875 31.58203125 C-26.18553071 34.08399911 -29.51851985 34.85951512 -33 36 C-32.01 37.32 -31.02 38.64 -30 40 C-25.80964675 39.53440519 -23.83118296 39.08856323 -21 36 C-18.8125 35.3125 -18.8125 35.3125 -17 35 C-19.41556126 38.19199167 -21.68003538 40.74716687 -25 43 C-22.91836944 44.26384713 -21.52513785 45.01693993 -19.0625 44.9375 C-16.08920856 43.58600389 -14.2629818 41.32100698 -12 39 C-11.01 38.67 -10.02 38.34 -9 38 C-10.83827868 41.15133488 -12.75972706 44.11964908 -15 47 C-12.25696104 47.67166707 -12.25696104 47.67166707 -9 47 C-5.46490701 43.58680677 -2.92981193 39.85689996 -2 35 C-5.08809695 33.23537317 -6.23312136 33 -10 33 C-10 32.34 -10 31.68 -10 31 C-16.11792517 27.88291795 -16.11792517 27.88291795 -22.0625 30.125 Z M-9 28 C-7.02579865 30.52259061 -6.03254358 30.9929808 -2.8125 31.6875 C-1.884375 31.790625 -0.95625 31.89375 0 32 C-2.93828597 29.49701566 -5.17902761 28.53069061 -9 28 Z " fill="#000000" transform="translate(44,0)"/>
<path d="M0 0 C3.5 0.25 3.5 0.25 5.5 2.25 C5.75 5.75 5.75 5.75 5.5 9.25 C3.5 11.25 3.5 11.25 0 11.5 C-3.5 11.25 -3.5 11.25 -5.5 9.25 C-5.75 5.75 -5.75 5.75 -5.5 2.25 C-3.5 0.25 -3.5 0.25 0 0 Z M-2.5 3.25 C-2.5 4.9 -2.5 6.55 -2.5 8.25 C-0.85 8.25 0.8 8.25 2.5 8.25 C2.5 6.6 2.5 4.95 2.5 3.25 C0.85 3.25 -0.8 3.25 -2.5 3.25 Z " fill="#000000" transform="translate(11.5,17.75)"/>
<path d="M0 0 C3 0.125 3 0.125 4 1.125 C4.125 4.125 4.125 4.125 4 7.125 C3 8.125 3 8.125 0 8.25 C-3 8.125 -3 8.125 -4 7.125 C-4.125 4.125 -4.125 4.125 -4 1.125 C-3 0.125 -3 0.125 0 0 Z M-1 3.125 C-1 3.785 -1 4.445 -1 5.125 C-0.34 5.125 0.32 5.125 1 5.125 C1 4.465 1 3.805 1 3.125 C0.34 3.125 -0.32 3.125 -1 3.125 Z " fill="#000000" transform="translate(4,7.875)"/>
<path d="M0 0 C1.32 0 2.64 0 4 0 C4 1.32 4 2.64 4 4 C2.68 4 1.36 4 0 4 C0 2.68 0 1.36 0 0 Z " fill="#000000" transform="translate(11,11)"/>
</svg>
