<?xml version="1.0" encoding="UTF-8"?>
<svg version="1.1" xmlns="http://www.w3.org/2000/svg" width="64" height="64">
<path d="M0 0 C4.55904383 1.09417052 7.64545212 3.77392026 10.125 7.75 C10.48461914 10.65014648 10.48461914 10.65014648 10.125 13.75 C8.19360352 15.65209961 8.19360352 15.65209961 5.69140625 17.46484375 C0.96555849 21.87952458 0.24336147 25.30501596 0.02734375 31.50390625 C-0.04865434 34.78163193 0.00820024 38.02935113 0.0625 41.3125 C0.083125 47.066875 0.10375 52.82125 0.125 58.75 C-17.035 58.75 -34.195 58.75 -51.875 58.75 C-51.875 41.59 -51.875 24.43 -51.875 6.75 C-30.1875 6.5625 -30.1875 6.5625 -23.36450195 6.54223633 C-21.57239856 6.51578316 -19.78032079 6.4875044 -17.98828125 6.45703125 C-17.06382202 6.46101929 -16.13936279 6.46500732 -15.18688965 6.46911621 C-9.55926059 6.35260487 -9.55926059 6.35260487 -4.92260742 3.25268555 C-2.875 0.75 -2.875 0.75 0 0 Z M-0.875 3.75 C-1.865 5.235 -1.865 5.235 -2.875 6.75 C-0.565 9.06 1.745 11.37 4.125 13.75 C5.115 13.09 6.105 12.43 7.125 11.75 C6.58425627 7.96479387 5.04927254 6.15822445 2.125 3.75 C1.135 3.75 0.145 3.75 -0.875 3.75 Z M-49.875 9.75 C-49.97313987 11.18740353 -50.0029828 12.62956327 -50.00439453 14.0703125 C-50.00754669 14.98796387 -50.01069885 15.90561523 -50.01394653 16.85107422 C-50.0119223 17.84896973 -50.00989807 18.84686523 -50.0078125 19.875 C-50.00876923 20.89223145 -50.00972595 21.90946289 -50.01071167 22.95751953 C-50.01139361 25.11295636 -50.00953835 27.26839522 -50.00537109 29.42382812 C-50.00002305 32.73572371 -50.00531563 36.04748367 -50.01171875 39.359375 C-50.01105797 41.44791697 -50.00977681 43.53645885 -50.0078125 45.625 C-50.00983673 46.62289551 -50.01186096 47.62079102 -50.01394653 48.64892578 C-50.01079437 49.56657715 -50.00764221 50.48422852 -50.00439453 51.4296875 C-50.00359894 52.24163574 -50.00280334 53.05358398 -50.00198364 53.89013672 C-50.07864189 55.76545753 -50.07864189 55.76545753 -48.875 56.75 C-47.43759647 56.84813987 -45.99543673 56.8779828 -44.5546875 56.87939453 C-43.63703613 56.88254669 -42.71938477 56.88569885 -41.77392578 56.88894653 C-40.77603027 56.8869223 -39.77813477 56.88489807 -38.75 56.8828125 C-37.22415283 56.88424759 -37.22415283 56.88424759 -35.66748047 56.88571167 C-33.51204364 56.88639361 -31.35660478 56.88453835 -29.20117188 56.88037109 C-25.88927629 56.87502305 -22.57751633 56.88031563 -19.265625 56.88671875 C-17.17708303 56.88605797 -15.08854115 56.88477681 -13 56.8828125 C-11.50315674 56.88584885 -11.50315674 56.88584885 -9.97607422 56.88894653 C-9.05842285 56.88579437 -8.14077148 56.88264221 -7.1953125 56.87939453 C-6.38336426 56.87859894 -5.57141602 56.87780334 -4.73486328 56.87698364 C-2.85954247 56.95364189 -2.85954247 56.95364189 -1.875 55.75 C-1.78716458 53.53144736 -1.76805391 51.31011504 -1.77734375 49.08984375 C-1.7787587 48.42537735 -1.78017365 47.76091095 -1.78163147 47.0763092 C-1.78724482 44.94666101 -1.79979946 42.81711661 -1.8125 40.6875 C-1.81751329 39.24674631 -1.82207649 37.80599097 -1.82617188 36.36523438 C-1.83721855 32.82678898 -1.85449208 29.28840461 -1.875 25.75 C-5.37203378 28.61103513 -8.73478212 31.46296743 -11.69140625 34.890625 C-16.91176855 40.87017605 -20.55797052 44.39068149 -28.625 45.5 C-30.70770085 45.5978744 -32.79105639 45.68365822 -34.875 45.75 C-34.70971933 36.31769285 -33.13422363 30.74597637 -26.39483643 24.16848755 C-24.86569334 22.73566626 -23.31020361 21.33636163 -21.75 19.9375 C-20.69641222 18.9528643 -19.64560435 17.96524526 -18.59765625 16.97460938 C-16.70205183 15.18322177 -14.79204738 13.41691717 -12.86279297 11.66088867 C-12.20682129 11.03029541 -11.55084961 10.39970215 -10.875 9.75 C-10.875 9.42 -10.875 9.09 -10.875 8.75 C-16.26846988 8.72535151 -21.66190725 8.70716469 -27.05541992 8.69506836 C-28.89168875 8.69002769 -30.72795354 8.68319523 -32.56420898 8.67456055 C-35.19776401 8.66248328 -37.83126616 8.65676919 -40.46484375 8.65234375 C-41.29088608 8.64718246 -42.11692841 8.64202118 -42.96800232 8.63670349 C-46.72602132 8.26910274 -46.72602132 8.26910274 -49.875 9.75 Z M-4.875 9.75 C-5.205 10.74 -5.535 11.73 -5.875 12.75 C-6.865 13.41 -7.855 14.07 -8.875 14.75 C-6.565 16.73 -4.255 18.71 -1.875 20.75 C-0.555 19.1 0.765 17.45 2.125 15.75 C-0.185 13.77 -2.495 11.79 -4.875 9.75 Z M-12.875 15.75 C-17.825 20.7 -22.775 25.65 -27.875 30.75 C-24.88972806 31.09595268 -24.88972806 31.09595268 -23.375 29.3125 C-22.88 28.796875 -22.385 28.28125 -21.875 27.75 C-20.885 27.42 -19.895 27.09 -18.875 26.75 C-20.48768692 29.46224618 -22.12401874 32.12352812 -23.875 34.75 C-23.215 35.08 -22.555 35.41 -21.875 35.75 C-21.215 36.74 -20.555 37.73 -19.875 38.75 C-14.925 33.8 -9.975 28.85 -4.875 23.75 C-9.74316708 17.15422604 -9.74316708 17.15422604 -12.875 15.75 Z M-30.875 34.75 C-31.04187448 37.16645782 -31.04187448 37.16645782 -30.875 39.75 C-29.03616119 42.03728734 -29.03616119 42.03728734 -26.25 41.875 C-25.46625 41.83375 -24.6825 41.7925 -23.875 41.75 C-23.875 40.43 -23.875 39.11 -23.875 37.75 C-24.865 37.75 -25.855 37.75 -26.875 37.75 C-26.875 36.76 -26.875 35.77 -26.875 34.75 C-28.195 34.75 -29.515 34.75 -30.875 34.75 Z " fill="#191919" transform="translate(53.875,1.25)"/>
<path d="M0 0 C9.57 0 19.14 0 29 0 C29 0.66 29 1.32 29 2 C20.09 2 11.18 2 2 2 C2 13.88 2 25.76 2 38 C3.32 38 4.64 38 6 38 C6 38.66 6 39.32 6 40 C4.02 40 2.04 40 0 40 C0 26.8 0 13.6 0 0 Z " fill="#191919" transform="translate(8,14)"/>
<path d="M0 0 C0.66 0 1.32 0 2 0 C2 6.6 2 13.2 2 20 C0.02 20 -1.96 20 -4 20 C-4 19.34 -4 18.68 -4 18 C-2.68 18 -1.36 18 0 18 C0 12.06 0 6.12 0 0 Z " fill="#191919" transform="translate(46,34)"/>
<path d="M0 0 C0.99 0 1.98 0 3 0 C2.42655063 2.86724686 2.1385485 3.8614515 0 6 C-0.99 6 -1.98 6 -3 6 C-2.42655063 3.13275314 -2.1385485 2.1385485 0 0 Z " fill="#1D1D1D" transform="translate(38,22)"/>
<path d="M0 0 C0.66 0.33 1.32 0.66 2 1 C1.34 2.32 0.68 3.64 0 5 C-0.66 5 -1.32 5 -2 5 C-1.125 1.125 -1.125 1.125 0 0 Z " fill="#191919" transform="translate(51,14)"/>
<path d="M0 0 C0.66 0 1.32 0 2 0 C2 1.32 2 2.64 2 4 C1.34 4 0.68 4 0 4 C0 2.68 0 1.36 0 0 Z " fill="#191919" transform="translate(37,50)"/>
<path d="M0 0 C0.66 0 1.32 0 2 0 C2 1.32 2 2.64 2 4 C1.34 4 0.68 4 0 4 C0 2.68 0 1.36 0 0 Z " fill="#191919" transform="translate(32,50)"/>
<path d="M0 0 C0.66 0 1.32 0 2 0 C2 1.32 2 2.64 2 4 C1.34 4 0.68 4 0 4 C0 2.68 0 1.36 0 0 Z " fill="#191919" transform="translate(27,50)"/>
<path d="M0 0 C0.66 0 1.32 0 2 0 C2 1.32 2 2.64 2 4 C1.34 4 0.68 4 0 4 C0 2.68 0 1.36 0 0 Z " fill="#191919" transform="translate(22,50)"/>
<path d="M0 0 C0.66 0 1.32 0 2 0 C2 1.32 2 2.64 2 4 C1.34 4 0.68 4 0 4 C0 2.68 0 1.36 0 0 Z " fill="#191919" transform="translate(17,50)"/>
</svg>
