<?xml version="1.0" encoding="UTF-8"?>
<svg version="1.1" xmlns="http://www.w3.org/2000/svg" width="64" height="64">
<path d="M0 0 C2.75946614 -0.30330339 5.24495685 -0.41834858 8 -0.375 C9.10601562 -0.39240234 9.10601562 -0.39240234 10.234375 -0.41015625 C12.375 -0.3984375 12.375 -0.3984375 16 0 C16.66 0.99 17.32 1.98 18 3 C20.31 3.33 22.62 3.66 25 4 C25 13.24 25 22.48 25 32 C11.8 32 -1.4 32 -15 32 C-15 22.76 -15 13.52 -15 4 C-8.565 3.505 -8.565 3.505 -2 3 C-1.34 2.01 -0.68 1.02 0 0 Z M3 2 C2.34 3.32 1.68 4.64 1 6 C0.07316406 5.98839844 -0.85367188 5.97679687 -1.80859375 5.96484375 C-3.60490234 5.95130859 -3.60490234 5.95130859 -5.4375 5.9375 C-7.22994141 5.92009766 -7.22994141 5.92009766 -9.05859375 5.90234375 C-11.88873341 5.66098208 -11.88873341 5.66098208 -13 7 C-13.0991657 8.62257544 -13.13079777 10.24939831 -13.1328125 11.875 C-13.13410156 12.85984375 -13.13539062 13.8446875 -13.13671875 14.859375 C-13.13285156 15.89578125 -13.12898438 16.9321875 -13.125 18 C-13.12886719 19.03640625 -13.13273437 20.0728125 -13.13671875 21.140625 C-13.13542969 22.12546875 -13.13414063 23.1103125 -13.1328125 24.125 C-13.13168457 25.03507812 -13.13055664 25.94515625 -13.12939453 26.8828125 C-13.23560009 28.9852848 -13.23560009 28.9852848 -12 30 C-9.49075847 30.10087212 -7.00963616 30.13972032 -4.5 30.1328125 C-3.37368164 30.13424759 -3.37368164 30.13424759 -2.22460938 30.13571167 C-0.63411373 30.13639338 0.95638467 30.13453972 2.546875 30.13037109 C4.98964655 30.12502267 7.43223421 30.13031634 9.875 30.13671875 C11.41666707 30.13605797 12.95833403 30.1347768 14.5 30.1328125 C15.23541016 30.13483673 15.97082031 30.13686096 16.72851562 30.13894653 C20.15246342 30.43056513 20.15246342 30.43056513 23 29 C23.0991657 27.37742456 23.13079777 25.75060169 23.1328125 24.125 C23.13410156 23.14015625 23.13539062 22.1553125 23.13671875 21.140625 C23.13091797 19.58601563 23.13091797 19.58601563 23.125 18 C23.12886719 16.96359375 23.13273437 15.9271875 23.13671875 14.859375 C23.13542969 13.87453125 23.13414063 12.8896875 23.1328125 11.875 C23.13112061 10.50988281 23.13112061 10.50988281 23.12939453 9.1171875 C23.23560009 7.0147152 23.23560009 7.0147152 22 6 C19.66702567 5.95907063 17.33294775 5.95758277 15 6 C14.34 4.68 13.68 3.36 13 2 C9.7 2 6.4 2 3 2 Z " fill="#000000" transform="translate(39,26)"/>
<path d="M0 0 C3.55247432 0.87379409 4.94828114 2.4927342 6.9375 5.4765625 C7.63597125 8.3162489 7.63597125 10.6368761 6.9375 13.4765625 C4.94828114 16.4603908 3.55247432 18.07933091 0 18.953125 C-3.92313492 19.23547183 -5.73362371 18.69581336 -9.0625 16.4765625 C-11.28175086 13.14768621 -11.82140933 11.33719742 -11.5390625 7.4140625 C-10.07519871 1.46261629 -5.59135555 -0.40240816 0 0 Z M-6.9375 4.6015625 C-8.59104531 7.35747134 -8.45615568 9.32731702 -8.0625 12.4765625 C-7.0625 14.4765625 -7.0625 14.4765625 -5.0625 15.4765625 C-1.91325452 15.87021818 0.05659116 16.00510781 2.8125 14.3515625 C4.46604531 11.59565366 4.33115568 9.62580798 3.9375 6.4765625 C2.9375 4.4765625 2.9375 4.4765625 0.9375 3.4765625 C-2.21174548 3.08290682 -4.18159116 2.94801719 -6.9375 4.6015625 Z " fill="#000000" transform="translate(49.0625,33.5234375)"/>
<path d="M0 0 C0.66 0 1.32 0 2 0 C2 2.64 2 5.28 2 8 C4.64 8 7.28 8 10 8 C10 8.66 10 9.32 10 10 C7.36 10 4.72 10 2 10 C2 11.32 2 12.64 2 14 C1.34 14 0.68 14 0 14 C0 12.68 0 11.36 0 10 C-1.32 10 -2.64 10 -4 10 C-4 9.34 -4 8.68 -4 8 C-2.68 8 -1.36 8 0 8 C0 5.36 0 2.72 0 0 Z " fill="#000000" transform="translate(6,42)"/>
<path d="M0 0 C0.66 0 1.32 0 2 0 C2 1.32 2 2.64 2 4 C3.32 4 4.64 4 6 4 C6 4.66 6 5.32 6 6 C4.68 6 3.36 6 2 6 C2 8.64 2 11.28 2 14 C1.34 14 0.68 14 0 14 C0 11.36 0 8.72 0 6 C-2.64 6 -5.28 6 -8 6 C-8 5.34 -8 4.68 -8 4 C-5.36 4 -2.72 4 0 4 C0 2.68 0 1.36 0 0 Z " fill="#000000" transform="translate(56,2)"/>
<path d="M0 0 C0.66 0 1.32 0 2 0 C2 1.32 2 2.64 2 4 C4.64 4 7.28 4 10 4 C10 4.66 10 5.32 10 6 C7.36 6 4.72 6 2 6 C2 8.64 2 11.28 2 14 C1.34 14 0.68 14 0 14 C0 11.36 0 8.72 0 6 C-1.32 6 -2.64 6 -4 6 C-4 5.34 -4 4.68 -4 4 C-2.68 4 -1.36 4 0 4 C0 2.68 0 1.36 0 0 Z " fill="#000000" transform="translate(6,2)"/>
<path d="M0 0 C2.475 0.495 2.475 0.495 5 1 C5.33 2.32 5.66 3.64 6 5 C3.5625 4.1875 3.5625 4.1875 1 3 C0.67 2.01 0.34 1.02 0 0 Z " fill="#000000" transform="translate(46,38)"/>
<path d="M0 0 C1.32 0 2.64 0 4 0 C4 0.66 4 1.32 4 2 C2.68 2 1.36 2 0 2 C0 1.34 0 0.68 0 0 Z " fill="#000000" transform="translate(28,53)"/>
<path d="M0 0 C1.32 0 2.64 0 4 0 C4 0.66 4 1.32 4 2 C2.68 2 1.36 2 0 2 C0 1.34 0 0.68 0 0 Z " fill="#000000" transform="translate(18,50)"/>
<path d="M0 0 C1.32 0 2.64 0 4 0 C4 0.66 4 1.32 4 2 C2.68 2 1.36 2 0 2 C0 1.34 0 0.68 0 0 Z " fill="#000000" transform="translate(28,48)"/>
<path d="M0 0 C1.32 0 2.64 0 4 0 C4 0.66 4 1.32 4 2 C2.68 2 1.36 2 0 2 C0 1.34 0 0.68 0 0 Z " fill="#000000" transform="translate(28,43)"/>
<path d="M0 0 C1.32 0 2.64 0 4 0 C4 0.66 4 1.32 4 2 C2.68 2 1.36 2 0 2 C0 1.34 0 0.68 0 0 Z " fill="#000000" transform="translate(28,38)"/>
<path d="M0 0 C0.66 0 1.32 0 2 0 C2 1.32 2 2.64 2 4 C1.34 4 0.68 4 0 4 C0 2.68 0 1.36 0 0 Z " fill="#000000" transform="translate(6,36)"/>
<path d="M0 0 C1.32 0 2.64 0 4 0 C4 0.66 4 1.32 4 2 C2.68 2 1.36 2 0 2 C0 1.34 0 0.68 0 0 Z " fill="#000000" transform="translate(28,33)"/>
<path d="M0 0 C0.66 0 1.32 0 2 0 C2 1.32 2 2.64 2 4 C1.34 4 0.68 4 0 4 C0 2.68 0 1.36 0 0 Z " fill="#000000" transform="translate(6,30)"/>
<path d="M0 0 C0.66 0 1.32 0 2 0 C2 1.32 2 2.64 2 4 C1.34 4 0.68 4 0 4 C0 2.68 0 1.36 0 0 Z " fill="#000000" transform="translate(56,24)"/>
<path d="M0 0 C0.66 0 1.32 0 2 0 C2 1.32 2 2.64 2 4 C1.34 4 0.68 4 0 4 C0 2.68 0 1.36 0 0 Z " fill="#000000" transform="translate(6,24)"/>
<path d="M0 0 C0.66 0 1.32 0 2 0 C2 1.32 2 2.64 2 4 C1.34 4 0.68 4 0 4 C0 2.68 0 1.36 0 0 Z " fill="#000000" transform="translate(56,18)"/>
<path d="M0 0 C0.66 0 1.32 0 2 0 C2 1.32 2 2.64 2 4 C1.34 4 0.68 4 0 4 C0 2.68 0 1.36 0 0 Z " fill="#000000" transform="translate(6,18)"/>
<path d="M0 0 C1.32 0 2.64 0 4 0 C4 0.66 4 1.32 4 2 C2.68 2 1.36 2 0 2 C0 1.34 0 0.68 0 0 Z " fill="#000000" transform="translate(42,6)"/>
<path d="M0 0 C1.32 0 2.64 0 4 0 C4 0.66 4 1.32 4 2 C2.68 2 1.36 2 0 2 C0 1.34 0 0.68 0 0 Z " fill="#000000" transform="translate(36,6)"/>
<path d="M0 0 C1.32 0 2.64 0 4 0 C4 0.66 4 1.32 4 2 C2.68 2 1.36 2 0 2 C0 1.34 0 0.68 0 0 Z " fill="#000000" transform="translate(30,6)"/>
<path d="M0 0 C1.32 0 2.64 0 4 0 C4 0.66 4 1.32 4 2 C2.68 2 1.36 2 0 2 C0 1.34 0 0.68 0 0 Z " fill="#000000" transform="translate(24,6)"/>
<path d="M0 0 C1.32 0 2.64 0 4 0 C4 0.66 4 1.32 4 2 C2.68 2 1.36 2 0 2 C0 1.34 0 0.68 0 0 Z " fill="#000000" transform="translate(18,6)"/>
</svg>
