<?xml version="1.0" encoding="UTF-8"?>
<svg version="1.1" xmlns="http://www.w3.org/2000/svg" width="72" height="72">
<path d="M0 0 C7.16487975 6.4241497 10.42237157 13.58773478 11.06640625 23.15625 C10.88379537 30.97629232 7.9288308 38.0123837 2.43359375 43.58984375 C-4.14944438 49.61325 -11.13463987 51.98640282 -20 52 C-28.23267787 51.25033562 -34.76477882 47.70563035 -40.3125 41.625 C-45.45623664 35.11146393 -47.19170567 28.2095136 -47 20 C-45.35004919 10.50937385 -40.82451992 3.55606667 -33 -2 C-21.7843813 -7.70619197 -10.4364792 -7.09190281 0 0 Z M-37 8 C-42.04016651 15.00023127 -42.77679338 20.498428 -42 29 C-39.61837416 36.92149464 -33.90830259 41.79494625 -27 46 C-20.84216752 48.05261083 -13.49010512 48.11793143 -7.5625 45.3125 C-1.26054123 41.5939529 3.67382072 35.97853785 6 29 C6.67985451 21.47701974 6.48234051 15.26359634 2 9 C-2.41623947 3.88645956 -7.70345969 -0.61172006 -14.63671875 -1.23828125 C-24.41874991 -1.4762564 -30.51192113 0.43057465 -37 8 Z " fill="#000000" transform="translate(54,13)"/>
<path d="M0 0 C5.74298036 4.16647595 9.00891759 8.24100554 10.1875 15.3125 C10.38408316 22.37793021 8.94875251 27.98273973 4.1875 33.3125 C-1.08262227 38.0204759 -6.79154288 39.69261551 -13.8125 39.3125 C-20.58762932 37.94305897 -25.75896905 34.35739072 -29.625 28.625 C-32.01247106 21.9652123 -32.76135547 15.7075609 -29.82421875 9.12890625 C-26.53288818 3.21976064 -22.47668492 -0.23599017 -15.9296875 -2.2734375 C-10.62607968 -3.31067445 -4.78133987 -2.51649467 0 0 Z M-24.125 8.9375 C-27.43348774 13.59389015 -27.43332623 17.70781877 -26.8125 23.3125 C-24.31915497 28.29919007 -20.81899051 31.80925474 -15.8125 34.3125 C-10.85767906 34.85610446 -6.94124148 34.87687074 -2.4375 32.625 C1.15525803 29.45995126 4.88162413 26.10048338 5.42578125 21.140625 C5.59409218 15.29403463 5.21175335 11.88057137 1.1875 7.3125 C-3.80588118 2.91356896 -6.72265227 1.95573663 -13.2734375 2.03125 C-18.24852713 2.58233685 -20.93769403 5.31947701 -24.125 8.9375 Z " fill="#000000" transform="translate(46.8125,17.6875)"/>
<path d="M0 0 C3.3194147 2.61315625 5.40238279 5.11390409 7 9 C7.33403245 13.78779839 6.66898085 17.15021351 3.6875 20.9375 C-0.09438774 23.83987896 -2.60358229 25.39827205 -7.4375 24.9375 C-12.02648032 24.30349614 -14.14069092 22.72576638 -17 19 C-19.28874128 15.18016973 -19.20645889 12.50925008 -18.609375 8.1875 C-17.46538299 4.08086202 -14.64071175 1.98307109 -11.109375 -0.1328125 C-7.37876882 -1.66650615 -3.81826434 -1.06365935 0 0 Z M-14 9 C-14.83333333 12 -14.83333333 12 -14 15 C-11.54405875 18.32274404 -10.0743356 19.77618008 -6 20.625 C-1.9256644 19.77618008 -0.45594125 18.32274404 2 15 C2.83333333 12 2.83333333 12 2 9 C-0.45594125 5.67725596 -1.9256644 4.22381992 -6 3.375 C-10.0743356 4.22381992 -11.54405875 5.67725596 -14 9 Z " fill="#000000" transform="translate(42,24)"/>
<path d="M0 0 C1.65 0.33 3.3 0.66 5 1 C4.67 2.65 4.34 4.3 4 6 C2.35 5.67 0.7 5.34 -1 5 C-0.67 3.35 -0.34 1.7 0 0 Z " fill="#000000" transform="translate(34,33)"/>
</svg>
