<?xml version="1.0" encoding="UTF-8"?>
<svg version="1.1" xmlns="http://www.w3.org/2000/svg" width="72" height="72">
<path d="M0 0 C0.87876801 -0.0417334 1.75753601 -0.0834668 2.66293335 -0.12646484 C3.61286163 -0.1517627 4.56278992 -0.17706055 5.54150391 -0.203125 C6.52744537 -0.22971191 7.51338684 -0.25629883 8.52920532 -0.28369141 C10.62215173 -0.32959814 12.71532586 -0.3659568 14.80859375 -0.39355469 C16.9310739 -0.43294957 19.0532354 -0.50085521 21.17382812 -0.59863281 C40.35770901 -1.48085727 40.35770901 -1.48085727 47.85733032 4.06704712 C53.38980038 9.16326861 55.2928919 14.35657308 55.91464233 21.77740479 C56.09234546 26.92518481 55.88017446 32.02949469 55.64306641 37.171875 C55.60350574 39.30328714 55.56960709 41.43481225 55.54150391 43.56640625 C55.49703356 45.59386605 55.4477322 47.62122697 55.39306641 49.6484375 C55.36776855 50.59836578 55.3424707 51.54829407 55.31640625 52.52700806 C55.25380615 53.84516006 55.25380615 53.84516006 55.18994141 55.18994141 C55.14111816 56.34691025 55.14111816 56.34691025 55.09130859 57.5272522 C54.51249287 60.13519378 53.83771476 61.02501472 51.64306641 62.546875 C49.17651367 62.92782593 49.17651367 62.92782593 46.20947266 62.93505859 C45.09822021 62.94451508 43.98696777 62.95397156 42.84204102 62.9637146 C41.64200439 62.95764191 40.44196777 62.95156921 39.20556641 62.9453125 C37.97394775 62.94818268 36.7423291 62.95105286 35.47338867 62.95401001 C32.19958683 62.95657658 28.92621104 62.9444911 25.65246582 62.92773438 C23.64496256 62.92188053 21.63785271 62.92771295 19.63037109 62.93798828 C15.78024945 62.9564848 11.93071207 62.95428492 8.08056641 62.9453125 C6.28051147 62.95442154 6.28051147 62.95442154 4.4440918 62.9637146 C2.77721313 62.94952988 2.77721313 62.94952988 1.07666016 62.93505859 C0.09753662 62.93267181 -0.88158691 62.93028503 -1.89038086 62.92782593 C-4.35693359 62.546875 -4.35693359 62.546875 -6.17227173 61.36221313 C-7.8037533 58.8621827 -7.73786085 57.09003452 -7.74511719 54.11328125 C-7.75457367 53.00202881 -7.76403015 51.89077637 -7.77377319 50.74584961 C-7.7677005 49.54581299 -7.76162781 48.34577637 -7.75537109 47.109375 C-7.75824127 45.87775635 -7.76111145 44.6461377 -7.7640686 43.37719727 C-7.76663517 40.10339543 -7.75454969 36.83001963 -7.73779297 33.55627441 C-7.73193912 31.54877115 -7.73777154 29.54166131 -7.74804688 27.53417969 C-7.76654339 23.68405805 -7.76434352 19.83452066 -7.75537109 15.984375 C-7.76144379 14.78433838 -7.76751648 13.58430176 -7.77377319 12.34790039 C-7.76431671 11.23664795 -7.75486023 10.12539551 -7.74511719 8.98046875 C-7.74273041 8.00134521 -7.74034363 7.02222168 -7.73788452 6.01342773 C-7.35693359 3.546875 -7.35693359 3.546875 -6.10498047 1.74145508 C-3.94313052 0.2640903 -2.60829064 0.11006796 0 0 Z M-2.35693359 4.546875 C-4.01101816 6.20095956 -3.48435715 8.14241392 -3.48632812 10.41796875 C-3.48948029 11.45574463 -3.49263245 12.49352051 -3.49588013 13.56274414 C-3.4938559 14.69188232 -3.49183167 15.82102051 -3.48974609 16.984375 C-3.49070282 18.13478271 -3.49165955 19.28519043 -3.49264526 20.47045898 C-3.49332728 22.90836644 -3.4914715 25.3462757 -3.48730469 27.78417969 C-3.48195677 31.53064018 -3.48724899 35.27698077 -3.49365234 39.0234375 C-3.49299157 41.38541693 -3.49171041 43.74739629 -3.48974609 46.109375 C-3.49177032 47.23851318 -3.49379456 48.36765137 -3.49588013 49.53100586 C-3.49272797 50.56878174 -3.48957581 51.60655762 -3.48632812 52.67578125 C-3.48553253 53.59431885 -3.48473694 54.51285645 -3.48391724 55.45922852 C-3.58910938 57.53565622 -3.58910938 57.53565622 -2.35693359 58.546875 C-0.02395926 58.58780437 2.31011865 58.58929223 4.64306641 58.546875 C4.66812256 57.82508057 4.69317871 57.10328613 4.71899414 56.35961914 C4.83457942 53.10934 4.95747415 49.85937812 5.08056641 46.609375 C5.11988281 45.47306641 5.15919922 44.33675781 5.19970703 43.16601562 C5.24160156 42.08642578 5.28349609 41.00683594 5.32666016 39.89453125 C5.36331787 38.89429932 5.39997559 37.89406738 5.43774414 36.86352539 C5.64306641 34.546875 5.64306641 34.546875 6.64306641 33.546875 C9.15230794 33.44600288 11.63343024 33.40715468 14.14306641 33.4140625 C14.89394531 33.41310577 15.64482422 33.41214905 16.41845703 33.41116333 C18.00895267 33.41048162 19.59945108 33.41233528 21.18994141 33.41650391 C23.63271295 33.42185233 26.07530062 33.41655866 28.51806641 33.41015625 C30.05973348 33.41081703 31.60140044 33.4120982 33.14306641 33.4140625 C33.87847656 33.41203827 34.61388672 33.41001404 35.37158203 33.40792847 C40.5281148 33.43192339 40.5281148 33.43192339 41.64306641 34.546875 C41.80071046 36.32557226 41.89407318 38.11005976 41.95947266 39.89453125 C42.00136719 40.97412109 42.04326172 42.05371094 42.08642578 43.16601562 C42.12574219 44.30232422 42.16505859 45.43863281 42.20556641 46.609375 C42.24875 47.74955078 42.29193359 48.88972656 42.33642578 50.06445312 C42.4428948 52.89179695 42.54490848 55.71923238 42.64306641 58.546875 C44.97601416 58.58929223 47.31009207 58.58780437 49.64306641 58.546875 C52.6816589 55.50828251 51.10495722 44.26965579 51.15795898 39.96655273 C51.18950243 37.99063913 51.23715574 36.01491204 51.30151367 34.03979492 C52.04876582 22.83848801 52.04876582 22.83848801 48.85742188 12.42236328 C46.87696806 10.41626393 45.1130113 8.89318796 42.64306641 7.546875 C42.31306641 7.546875 41.98306641 7.546875 41.64306641 7.546875 C41.59408203 8.67867187 41.54509766 9.81046875 41.49462891 10.9765625 C41.41960127 12.45835839 41.34405343 13.940128 41.26806641 15.421875 C41.22166016 16.54142578 41.22166016 16.54142578 41.17431641 17.68359375 C40.86962891 23.3203125 40.86962891 23.3203125 38.64306641 25.546875 C35.60205078 25.78979492 35.60205078 25.78979492 31.73681641 25.77734375 C31.05631226 25.77688553 30.37580811 25.77642731 29.67468262 25.7759552 C28.23557797 25.77293352 26.79647658 25.76504966 25.35742188 25.75268555 C23.15173789 25.7344467 20.94647412 25.73217575 18.74072266 25.73242188 C7.93814015 25.69441187 7.93814015 25.69441187 5.64306641 24.546875 C5.31306641 17.946875 4.98306641 11.346875 4.64306641 4.546875 C2.33306641 4.546875 0.02306641 4.546875 -2.35693359 4.546875 Z M8.64306641 4.546875 C8.64306641 10.486875 8.64306641 16.426875 8.64306641 22.546875 C12.61243191 22.56978987 16.5816296 22.58971515 20.55102539 22.60180664 C21.90227027 22.60684557 23.25350967 22.61367677 24.60473633 22.62231445 C26.54327075 22.63439919 28.48184441 22.63957328 30.42041016 22.64453125 C31.58822021 22.64976807 32.75603027 22.65500488 33.95922852 22.66040039 C36.56198192 22.85348995 36.56198192 22.85348995 37.64306641 21.546875 C37.71636971 18.68218175 37.73524472 15.84793826 37.70556641 12.984375 C37.68494141 10.2 37.66431641 7.415625 37.64306641 4.546875 C28.07306641 4.546875 18.50306641 4.546875 8.64306641 4.546875 Z M8.64306641 36.546875 C8.64306641 43.806875 8.64306641 51.066875 8.64306641 58.546875 C18.54306641 58.546875 28.44306641 58.546875 38.64306641 58.546875 C38.64306641 51.286875 38.64306641 44.026875 38.64306641 36.546875 C28.74306641 36.546875 18.84306641 36.546875 8.64306641 36.546875 Z " fill="#000000" transform="translate(12.35693359375,4.453125)"/>
<path d="M0 0 C2.64 0 5.28 0 8 0 C8 4.62 8 9.24 8 14 C5.36 14 2.72 14 0 14 C0 9.38 0 4.76 0 0 Z " fill="#000000" transform="translate(40,11)"/>
<path d="M0 0 C1.32 0 2.64 0 4 0 C4 1.32 4 2.64 4 4 C2.68 4 1.36 4 0 4 C0 2.68 0 1.36 0 0 Z " fill="#000000" transform="translate(57,57)"/>
<path d="M0 0 C1.32 0 2.64 0 4 0 C4 1.32 4 2.64 4 4 C2.68 4 1.36 4 0 4 C0 2.68 0 1.36 0 0 Z " fill="#000000" transform="translate(11,57)"/>
</svg>
