<?xml version="1.0" encoding="UTF-8"?>
<svg version="1.1" xmlns="http://www.w3.org/2000/svg" width="48" height="48">
<path d="M0 0 C2.16874252 0.50603992 3.99967627 0.99983813 6 2 C8.2091443 1.94201721 10.41754302 1.85399155 12.625 1.75 C19.16803901 1.70307247 23.17397281 2.53958093 28 7 C33.78519718 13.24192327 34.50500772 18.11125491 34.3828125 26.5078125 C33.69623771 32.771056 30.93985568 36.20208498 26.4375 40.375 C19.83903684 44.77397544 13.85421646 44.86097675 6 44 C0.73457481 42.05163166 -2.89644298 38.65533553 -6 34 C-6.4125 33.401875 -6.825 32.80375 -7.25 32.1875 C-8.41843722 28.77955812 -8.1196222 25.58866602 -8 22 C-5.36 22 -2.72 22 0 22 C0.48919922 23.04800781 0.48919922 23.04800781 0.98828125 24.1171875 C1.42527344 25.02726562 1.86226562 25.93734375 2.3125 26.875 C2.74175781 27.77992187 3.17101563 28.68484375 3.61328125 29.6171875 C4.9199388 32.26449476 4.9199388 32.26449476 8 34 C12.88516144 34.71207438 16.8100735 34.72852643 21.0625 32.125 C24.45645503 28.40259771 24.40340804 25.37491942 24.33984375 20.48046875 C24.15403529 17.74270154 24.15403529 17.74270154 21.9375 15 C18.5432228 12.68900276 15.98729472 11.86000474 12 11 C12 11.99 12 12.98 12 14 C7.38 14 2.76 14 -2 14 C-2 8.03527231 -1.72577473 5.2851851 0 0 Z M8 5 C8.66 6.65 9.32 8.3 10 10 C10.33 9.34 10.66 8.68 11 8 C17.49313679 8.84473818 21.78515618 9.56149184 26 15 C27.33827901 17.67655801 27.20578556 19.82434052 27.25 22.8125 C27.27578125 23.85019531 27.3015625 24.88789063 27.328125 25.95703125 C26.94786116 29.48352565 26.1766634 31.21292447 24 34 C20.3358247 36.83478427 17.58927015 37.41012197 13 37.375 C11.989375 37.38273437 10.97875 37.39046875 9.9375 37.3984375 C6.589021 36.94425551 4.71610953 35.97881185 2 34 C-0.23026194 30.86111282 -1.6625456 27.60083877 -3 24 C-3.66 24 -4.32 24 -5 24 C-4.87403812 30.04617005 -2.90514527 32.86395024 1.11328125 37.30078125 C4.99573422 40.79740038 8.8075666 41.74463442 14 42 C20.76589696 40.99409674 24.46293294 38.09121531 28.6875 32.83984375 C32.09946339 28.05700221 31.52832369 22.67761935 31 17 C28.80816322 12.36342219 25.46194075 8.60851921 21 6 C16.45966106 4.40495919 12.6638068 3.54387932 8 5 Z " fill="#191919" transform="translate(11,1)"/>
</svg>
