<?xml version="1.0" encoding="UTF-8"?>
<svg version="1.1" xmlns="http://www.w3.org/2000/svg" width="72" height="72">
<path d="M0 0 C1.32 0.33 2.64 0.66 4 1 C3.95359375 2.05058594 3.9071875 3.10117187 3.859375 4.18359375 C3.55714515 13.9047417 3.90598917 21.02079763 10.3125 28.8125 C16.17777098 33.58655777 21.82466398 36.3892761 29.4609375 36.27734375 C35.67578056 35.59849166 41.09122363 33.33090401 45.3125 28.6875 C46.199375 27.800625 47.08625 26.91375 48 26 C50.875 26.125 50.875 26.125 53 27 C52.52147104 31.30676065 50.17347304 33.23165117 47 36 C38.4088361 41.97864622 30.3415985 43.35049973 20 42 C12.42561779 39.64090432 6.24125657 35.76915783 2 29 C1.59007812 28.37867187 1.18015625 27.75734375 0.7578125 27.1171875 C-3.1459933 20.03649147 -2.73763228 11.84806439 -2 4 C-0.9765625 1.51953125 -0.9765625 1.51953125 0 0 Z " fill="#000000" transform="translate(8,24)"/>
<path d="M0 0 C4.82668342 2.79921478 8.41230245 5.69914597 11.375 10.4375 C11.78492188 11.07042969 12.19484375 11.70335937 12.6171875 12.35546875 C16.40800801 19.3227354 15.74008775 26.74023337 15.375 34.4375 C12.9 34.9325 12.9 34.9325 10.375 35.4375 C10.34921875 34.60347656 10.3234375 33.76945312 10.296875 32.91015625 C9.85501555 24.14326312 8.71077951 17.49452913 3.0625 10.625 C-3.15214365 5.56656913 -8.89290648 3.0937177 -16.92578125 3.140625 C-20.57581975 3.54207641 -23.38483949 4.84680332 -26.640625 6.48046875 C-28.92783612 7.58355286 -31.11052094 8.11305109 -33.625 8.4375 C-33.955 6.7875 -34.285 5.1375 -34.625 3.4375 C-23.57018349 -3.59738324 -12.13439665 -5.58543568 0 0 Z " fill="#000000" transform="translate(50.625,8.5625)"/>
<path d="M0 0 C1.05960938 -0.00386719 2.11921875 -0.00773437 3.2109375 -0.01171875 C4.86996094 0.00568359 4.86996094 0.00568359 6.5625 0.0234375 C8.22152344 0.00603516 8.22152344 0.00603516 9.9140625 -0.01171875 C10.97367188 -0.00785156 12.03328125 -0.00398438 13.125 0 C14.58099609 0.00507568 14.58099609 0.00507568 16.06640625 0.01025391 C18.5625 0.3984375 18.5625 0.3984375 20.37109375 1.71240234 C22.43151953 4.6282426 22.03674912 6.96013141 21.5625 10.3984375 C18.72425898 14.04760453 16.06211143 16.29853248 11.5625 17.3984375 C4.79081963 18.15995865 -0.8341349 17.50482516 -6.4375 13.3984375 C-8.90074069 9.70357647 -8.82741688 7.76550658 -8.4375 3.3984375 C-6.10031145 0.04259848 -3.93541124 0.01371906 0 0 Z M-2.4375 5.3984375 C-2.4375 6.7184375 -2.4375 8.0384375 -2.4375 9.3984375 C2.10981487 12.03440986 6.42581363 11.97102451 11.5625 11.3984375 C14.59715702 10.08616316 14.59715702 10.08616316 16.5625 8.3984375 C16.2325 7.4084375 15.9025 6.4184375 15.5625 5.3984375 C9.6225 5.3984375 3.6825 5.3984375 -2.4375 5.3984375 Z " fill="#000000" transform="translate(29.4375,38.6015625)"/>
<path d="M0 0 C3.55247432 0.87379409 4.94828114 2.4927342 6.9375 5.4765625 C7.63597125 8.3162489 7.63597125 10.6368761 6.9375 13.4765625 C4.94828114 16.4603908 3.55247432 18.07933091 0 18.953125 C-3.92313492 19.23547183 -5.73362371 18.69581336 -9.0625 16.4765625 C-11.28175086 13.14768621 -11.82140933 11.33719742 -11.5390625 7.4140625 C-10.07519871 1.46261629 -5.59135555 -0.40240816 0 0 Z M-4.0625 5.4765625 C-4.7225 6.1365625 -5.3825 6.7965625 -6.0625 7.4765625 C-5.74208603 10.07936818 -5.74208603 10.07936818 -5.0625 12.4765625 C-2.66530568 13.15614853 -2.66530568 13.15614853 -0.0625 13.4765625 C0.5975 12.8165625 1.2575 12.1565625 1.9375 11.4765625 C1.61708603 8.87375682 1.61708603 8.87375682 0.9375 6.4765625 C-1.45969432 5.79697647 -1.45969432 5.79697647 -4.0625 5.4765625 Z " fill="#000000" transform="translate(38.0625,17.5234375)"/>
</svg>
