<?xml version="1.0" encoding="UTF-8"?>
<svg version="1.1" xmlns="http://www.w3.org/2000/svg" width="72" height="72">
<path d="M0 0 C4.68139254 -0.02465288 9.36274759 -0.04283739 14.04418945 -0.05493164 C15.63794614 -0.05997157 17.23169819 -0.0668035 18.82543945 -0.07543945 C21.11150253 -0.08751999 23.39750467 -0.09323155 25.68359375 -0.09765625 C26.40026718 -0.10281754 27.11694061 -0.10797882 27.85533142 -0.11329651 C29.57063672 -0.11349263 31.28581266 -0.06192007 33 0 C34 1 34 1 34.12025452 2.94252014 C34.11803391 3.79301437 34.11581329 4.64350861 34.11352539 5.51977539 C34.11344986 6.48069595 34.11337433 7.44161652 34.11329651 8.43165588 C34.10813522 9.476436 34.10297394 10.52121613 34.09765625 11.59765625 C34.0962413 12.66165146 34.09482635 13.72564667 34.09336853 14.82188416 C34.08775064 18.23545083 34.07519511 21.648953 34.0625 25.0625 C34.05748731 27.37044176 34.052924 29.67838455 34.04882812 31.98632812 C34.03777539 37.65757711 34.02049877 43.3287776 34 49 C29.05 46.525 29.05 46.525 24 44 C24 48.62 24 53.24 24 58 C19.18884016 56.07553607 15.11715646 53.7402812 10.71875 51.046875 C8.07124413 49.72655796 8.07124413 49.72655796 5.51171875 50.6328125 C4.26841797 51.30957031 4.26841797 51.30957031 3 52 C2.06800781 52.49757812 1.13601562 52.99515625 0.17578125 53.5078125 C-1.74122628 54.59054254 -3.65789025 55.67388109 -5.57421875 56.7578125 C-8 58 -8 58 -10 58 C-10 42.16 -10 26.32 -10 10 C-6.78548731 8.39274365 -3.56387464 8.94251815 0 9 C0 6.03 0 3.06 0 0 Z M5 5 C5 6.32 5 7.64 5 9 C10.94 9.33 16.88 9.66 23 10 C23.33 18.91 23.66 27.82 24 37 C25.32 37.33 26.64 37.66 28 38 C28 27.11 28 16.22 28 5 C20.41 5 12.82 5 5 5 Z M-4 15 C-4 25.89 -4 36.78 -4 48 C-0.7 46.35 2.6 44.7 6 43 C10.30962347 43.6505092 13.31687511 45.74920145 17 48 C17.66 48 18.32 48 19 48 C19 37.11 19 26.22 19 15 C11.41 15 3.82 15 -4 15 Z " fill="#000000" transform="translate(24,7)"/>
</svg>
