<?xml version="1.0" encoding="UTF-8"?>
<svg version="1.1" xmlns="http://www.w3.org/2000/svg" width="50" height="50">
<path d="M0 0 C12.54 0 25.08 0 38 0 C38 10.56 38 21.12 38 32 C40.64 32 43.28 32 46 32 C46 33.98 46 35.96 46 38 C43.36 38 40.72 38 38 38 C38 40.64 38 43.28 38 46 C36.02 46 34.04 46 32 46 C32 43.36 32 40.72 32 38 C21.44 38 10.88 38 0 38 C0 25.46 0 12.92 0 0 Z M2 3 C1.92851801 4.35243917 1.91600546 5.70834367 1.9375 7.0625 C1.958125 8.361875 1.97875 9.66125 2 11 C2.66 11 3.32 11 4 11 C4 8.69 4 6.38 4 4 C6.31 4 8.62 4 11 4 C11 3.34 11 2.68 11 2 C6.20029258 1.47166284 6.20029258 1.47166284 2 3 Z M15 2 C15 2.66 15 3.32 15 4 C15.66 4 16.32 4 17 4 C17 3.34 17 2.68 17 2 C16.34 2 15.68 2 15 2 Z M21 2 C21 2.66 21 3.32 21 4 C21.66 4 22.32 4 23 4 C23 3.34 23 2.68 23 2 C22.34 2 21.68 2 21 2 Z M27 2 C27 2.66 27 3.32 27 4 C29.31 4 31.62 4 34 4 C34 6.31 34 8.62 34 11 C34.66 11 35.32 11 36 11 C36.020625 9.700625 36.04125 8.40125 36.0625 7.0625 C36.07410156 6.33160156 36.08570313 5.60070312 36.09765625 4.84765625 C36.20561184 2.98267859 36.20561184 2.98267859 35 2 C32.32941149 1.85884839 29.67567762 1.95752893 27 2 Z M2 15 C2 15.66 2 16.32 2 17 C2.66 17 3.32 17 4 17 C4 16.34 4 15.68 4 15 C3.34 15 2.68 15 2 15 Z M34 15 C34 15.66 34 16.32 34 17 C34.66 17 35.32 17 36 17 C36 16.34 36 15.68 36 15 C35.34 15 34.68 15 34 15 Z M2 21 C2 21.66 2 22.32 2 23 C2.66 23 3.32 23 4 23 C4 22.34 4 21.68 4 21 C3.34 21 2.68 21 2 21 Z M34 21 C34 21.66 34 22.32 34 23 C34.66 23 35.32 23 36 23 C36 22.34 36 21.68 36 21 C35.34 21 34.68 21 34 21 Z M2 27 C1.979375 28.299375 1.95875 29.59875 1.9375 30.9375 C1.92589844 31.66839844 1.91429687 32.39929687 1.90234375 33.15234375 C1.79438816 35.01732141 1.79438816 35.01732141 3 36 C5.67058851 36.14115161 8.32432238 36.04247107 11 36 C11 35.34 11 34.68 11 34 C8.69 34 6.38 34 4 34 C4 31.69 4 29.38 4 27 C3.34 27 2.68 27 2 27 Z M34 27 C34 29.31 34 31.62 34 34 C31.69 34 29.38 34 27 34 C27 34.66 27 35.32 27 36 C29.31 36 31.62 36 34 36 C34 38.31 34 40.62 34 43 C34.66 43 35.32 43 36 43 C36 40.69 36 38.38 36 36 C38.31 36 40.62 36 43 36 C43 35.34 43 34.68 43 34 C40.69 34 38.38 34 36 34 C36 31.69 36 29.38 36 27 C35.34 27 34.68 27 34 27 Z M15 34 C15 34.66 15 35.32 15 36 C15.66 36 16.32 36 17 36 C17 35.34 17 34.68 17 34 C16.34 34 15.68 34 15 34 Z M21 34 C21 34.66 21 35.32 21 36 C21.66 36 22.32 36 23 36 C23 35.34 23 34.68 23 34 C22.34 34 21.68 34 21 34 Z " fill="#191919" transform="translate(4,4)"/>
</svg>
