<?xml version="1.0" encoding="UTF-8"?>
<svg version="1.1" xmlns="http://www.w3.org/2000/svg" width="72" height="72">
<path d="M0 0 C3.43250143 1.9401095 4.70166193 3.14227804 6 6.875 C6 11.28626303 4.55725587 14.37785847 1.5 17.5625 C1.005 18.036875 0.51 18.51125 0 19 C-0.38115967 19.69714111 -0.76231934 20.39428223 -1.1550293 21.11254883 C-5.29536732 27.59233946 -11.19762488 32.89234086 -16.55639648 38.36645508 C-18.05363411 39.90679033 -19.53823019 41.45952079 -21.00952148 43.0246582 C-34.80955065 57.69483394 -34.80955065 57.69483394 -43.82421875 58.89453125 C-45.47103638 58.91737183 -45.47103638 58.91737183 -47.15112305 58.94067383 C-50.06428258 59.00133865 -51.54981528 59.49193743 -54 61 C-55.29012138 56.61358732 -54.54708376 54.23412399 -53 50 C-52.80158208 48.60794678 -52.60344439 47.2158536 -52.40551758 45.82373047 C-51.10489917 39.90529123 -47.59036112 36.66424069 -43.32421875 32.5703125 C-42.18095879 31.43479446 -42.18095879 31.43479446 -41.01460266 30.27633667 C-39.40790909 28.68671865 -37.79290603 27.10546035 -36.17016602 25.53222656 C-33.69004141 23.12746419 -31.23486722 20.69936506 -28.78320312 18.265625 C-27.21493023 16.71994404 -25.64531335 15.17562527 -24.07421875 13.6328125 C-23.34071701 12.91094757 -22.60721527 12.18908264 -21.85148621 11.44534302 C-18.41852481 8.12341483 -15.24677249 5.26841355 -11 3 C-10.38125 2.443125 -9.7625 1.88625 -9.125 1.3125 C-5.94127501 -0.65391837 -3.66559092 -0.45016029 0 0 Z M-19.64810181 15.37020874 C-20.27211884 15.99827423 -20.89613586 16.62633972 -21.5390625 17.2734375 C-22.17991791 17.91237946 -22.82077332 18.55132141 -23.48104858 19.20962524 C-24.83683368 20.56404722 -26.19008786 21.92100661 -27.54101562 23.28027344 C-29.61630755 25.36626275 -31.70202669 27.44139309 -33.7890625 29.515625 C-35.10220428 30.83008835 -36.41472553 32.14517195 -37.7265625 33.4609375 C-38.35462799 34.08495453 -38.98269348 34.70897156 -39.62979126 35.35189819 C-42.87458368 38.15610605 -42.87458368 38.15610605 -44 42 C-42.34151823 43.01351664 -40.67334039 44.01120795 -39 45 C-37.64491223 46.31121802 -36.30794331 47.64175118 -35 49 C-30.83575727 44.95913942 -26.68804542 40.90228505 -22.55493164 36.82958984 C-21.14597205 35.44581056 -19.73256264 34.06654722 -18.31469727 32.69189453 C-16.28001432 30.71770408 -14.26176943 28.727945 -12.24609375 26.734375 C-11.60659286 26.12068054 -10.96709198 25.50698608 -10.30821228 24.87469482 C-9.72753494 24.29439514 -9.1468576 23.71409546 -8.54858398 23.11621094 C-8.03118149 22.6099115 -7.51377899 22.10361206 -6.98069763 21.58197021 C-5.7763947 20.00794728 -5.7763947 20.00794728 -6.25697327 17.89801025 C-7.57776325 14.52414386 -10.1214302 13.11486761 -13 11 C-16.18233367 11 -17.50545423 13.25083263 -19.64810181 15.37020874 Z M-47 45 C-48.4783226 47.95664519 -48.06032783 50.74229737 -48 54 C-45.36 53.67 -42.72 53.34 -40 53 C-41.01176437 49.59679258 -41.64843582 48.24274669 -44.625 46.1875 C-45.40875 45.795625 -46.1925 45.40375 -47 45 Z " fill="#000000" transform="translate(60,2)"/>
<path d="M0 0 C16.17 0 32.34 0 49 0 C49 1.32 49 2.64 49 4 C32.83 4 16.66 4 0 4 C0 2.68 0 1.36 0 0 Z " fill="#000000" transform="translate(23,68)"/>
<path d="M0 0 C4.62 0 9.24 0 14 0 C14 1.32 14 2.64 14 4 C9.38 4 4.76 4 0 4 C0 2.68 0 1.36 0 0 Z " fill="#000000" transform="translate(1,68)"/>
</svg>
