<?xml version="1.0" encoding="UTF-8"?>
<svg version="1.1" xmlns="http://www.w3.org/2000/svg" width="64" height="64">
<path d="M0 0 C4.92980824 3.35411252 9.40934228 7.59340997 12 13 C11.94115552 16.47182426 11.71776791 18.84359615 9.875 21.8125 C8 23 8 23 4.4375 24 C0.75396564 24.67139937 0.75396564 24.67139937 -1 28 C-1.34441352 30.14704485 -1.34441352 30.14704485 -1.4375 32.4375 C-1.71027451 35.18313198 -2.00575529 37.01310928 -3.125 39.5625 C-5 41 -5 41 -8.375 41.5625 C-12.8089439 40.87447422 -14.19475573 39.40029608 -17 36 C-20.71045247 37.57780923 -23.29906384 39.90703248 -26.25 42.625 C-27.14203125 43.44226562 -28.0340625 44.25953125 -28.953125 45.1015625 C-29.62859375 45.72804687 -30.3040625 46.35453125 -31 47 C-32.65 46.34 -34.3 45.68 -36 45 C-35.52042767 40.71446004 -32.7812778 38.23068595 -29.9375 35.25 C-29.46505859 34.74339844 -28.99261719 34.23679688 -28.50585938 33.71484375 C-27.34369289 32.47050387 -26.17269839 31.23441936 -25 30 C-26.36823951 27.01138152 -26.36823951 27.01138152 -28.625 24.6875 C-30 23 -30 23 -30.4375 19.5 C-30 16 -30 16 -28.5625 14.125 C-25.39742112 12.73545318 -22.55289236 12.49957074 -19.12109375 12.30859375 C-16.7025749 12.11164309 -16.7025749 12.11164309 -14 10 C-13.12271848 7.72839181 -12.54967015 5.45029443 -11.94140625 3.09375 C-11 1 -11 1 -9.10546875 -0.27734375 C-5.63363886 -1.46897367 -3.52811096 -0.99963144 0 0 Z M-4 8 C-4 9.98 -4 11.96 -4 14 C-4.515625 14.226875 -5.03125 14.45375 -5.5625 14.6875 C-8.30937635 16.16658727 -10.72104342 17.91932328 -13.21875 19.78125 C-15 21 -15 21 -19 23 C-16.69 25.31 -14.38 27.62 -12 30 C-11.34 28.68 -10.68 27.36 -10 26 C-8.20911843 23.6256638 -6.33822174 21.32981528 -4.4609375 19.0234375 C-2.80487458 17.14570006 -2.80487458 17.14570006 -3 15 C-1.02 15 0.96 15 3 15 C2.02433888 13.83040013 1.044375 12.66438823 0.0625 11.5 C-0.48277344 10.8503125 -1.02804688 10.200625 -1.58984375 9.53125 C-2.05519531 9.0259375 -2.52054688 8.520625 -3 8 C-3.33 8 -3.66 8 -4 8 Z " fill="#191919" transform="translate(45,8)"/>
</svg>
