<?xml version="1.0" encoding="UTF-8"?>
<svg version="1.1" xmlns="http://www.w3.org/2000/svg" width="50" height="50">
<path d="M0 0 C5.56340585 3.36669624 9.53349183 8.25193794 11.5 14.4375 C12.30594257 22.2813829 12.59671889 30.02934467 7.5 36.4375 C3.04867668 41.14197914 -1.19064516 44.09747071 -7.76953125 44.7734375 C-16.04371997 44.8646634 -22.08428015 44.61560264 -28.2421875 38.7890625 C-34.17397269 32.28964236 -34.96296445 26.57688134 -34.80859375 17.88671875 C-34.22339005 11.3457711 -31.85547257 7.43687235 -27.0625 3.0625 C-19.84507341 -2.93248543 -8.52200107 -3.84066973 0 0 Z M-27.875 9 C-32.43649379 14.47623185 -32.12226676 20.59256568 -31.5 27.4375 C-29.77883043 33.09869631 -25.25380196 37.15064853 -20.5 40.4375 C-15.0029273 42.26985757 -8.53352755 42.6147627 -3.07421875 40.49609375 C2.22187345 37.31444891 6.09461411 33.17185878 8.5 27.4375 C9.43256519 20.56596704 9.16717526 14.80751171 5 9.125 C1.23402845 4.888282 -2.30028498 1.7228547 -8.171875 1.19921875 C-17.12574998 0.98332583 -21.76625484 2.19969878 -27.875 9 Z " fill="#000000" transform="translate(36.5,3.5625)"/>
<path d="M0 0 C7.92 0 15.84 0 24 0 C24 8.06957674 23.42605598 12.08450746 18.25 18 C14.83436735 19.51805896 11.62451253 19.63537271 8 19 C3.26077837 16.3670991 1.61229151 13.09144687 0 8 C0 5.36 0 2.72 0 0 Z M3 2 C3.81186147 10.60961839 3.81186147 10.60961839 9 16 C12 17 12 17 15 16 C20.37601686 11.22131835 20.0002602 9.99791843 21 2 C15.06 2 9.12 2 3 2 Z " fill="#000000" transform="translate(13,23)"/>
<path d="M0 0 C3.5625 0.1875 3.5625 0.1875 5.5625 2.1875 C5.5625 3.1775 5.5625 4.1675 5.5625 5.1875 C4.5725 5.1875 3.5825 5.1875 2.5625 5.1875 C2.5625 4.5275 2.5625 3.8675 2.5625 3.1875 C0.9125 3.1875 -0.7375 3.1875 -2.4375 3.1875 C-2.4375 3.8475 -2.4375 4.5075 -2.4375 5.1875 C-3.4275 5.1875 -4.4175 5.1875 -5.4375 5.1875 C-4.31932898 0.23559976 -4.31932898 0.23559976 0 0 Z " fill="#000000" transform="translate(33.4375,12.8125)"/>
<path d="M0 0 C3.5625 0.1875 3.5625 0.1875 5.5625 2.1875 C5.5625 3.1775 5.5625 4.1675 5.5625 5.1875 C4.5725 5.1875 3.5825 5.1875 2.5625 5.1875 C2.5625 4.5275 2.5625 3.8675 2.5625 3.1875 C0.9125 3.1875 -0.7375 3.1875 -2.4375 3.1875 C-2.4375 3.8475 -2.4375 4.5075 -2.4375 5.1875 C-3.4275 5.1875 -4.4175 5.1875 -5.4375 5.1875 C-4.31932898 0.23559976 -4.31932898 0.23559976 0 0 Z " fill="#000000" transform="translate(16.4375,12.8125)"/>
</svg>
