<?xml version="1.0" encoding="UTF-8"?>
<svg version="1.1" xmlns="http://www.w3.org/2000/svg" width="64" height="64">
<path d="M0 0 C4.72110058 4.2859761 7.46670386 8.57674422 8 15 C7.9291476 18.90332337 7.79707464 22.55179396 5.890625 26.015625 C4.7576973 28.53986742 5.04227986 29.43815199 6 32 C7.4830877 33.52914785 7.4830877 33.52914785 9.37890625 34.8046875 C10.05244141 35.30613281 10.72597656 35.80757812 11.41992188 36.32421875 C12.84717705 37.35725485 14.27949521 38.38333205 15.71679688 39.40234375 C20.86665316 43.26350158 20.86665316 43.26350158 21.58984375 47.2578125 C21 50 21 50 19 52 C16.3046875 52.625 16.3046875 52.625 13 52 C10.3204962 49.6318524 8.25869935 46.85780547 6.125 44 C5.53203125 43.236875 4.9390625 42.47375 4.328125 41.6875 C2.86828098 39.80383029 1.42700489 37.90859524 0 36 C-2.59920448 36.63115341 -5.12442679 37.34304546 -7.6875 38.125 C-13.58715992 39.5725002 -19.23929859 39.15910292 -24.6875 36.375 C-29.6994682 33.13470428 -33.70607198 28.91951245 -35.4375 23.125 C-36.66559045 16.57940451 -35.93607019 10.27386756 -32.2890625 4.6328125 C-28.4445512 -0.23690181 -24.2948661 -3.65514601 -18.10546875 -4.81640625 C-11.27866323 -5.41169356 -5.43243974 -4.28876822 0 0 Z M-27.3125 7.625 C-30.62098774 12.28139015 -30.62082623 16.39531877 -30 22 C-27.50665497 26.98669007 -24.00649051 30.49675474 -19 33 C-14.04517906 33.54360446 -10.12874148 33.56437074 -5.625 31.3125 C-2.03224197 28.14745126 1.69412413 24.78798338 2.23828125 19.828125 C2.40659218 13.98153463 2.02425335 10.56807137 -2 6 C-6.99338118 1.60106896 -9.91015227 0.64323663 -16.4609375 0.71875 C-21.43602713 1.26983685 -24.12519403 4.00697701 -27.3125 7.625 Z " fill="#191919" transform="translate(38,7)"/>
</svg>
