<?xml version="1.0" encoding="UTF-8"?>
<svg version="1.1" xmlns="http://www.w3.org/2000/svg" width="72" height="72">
<path d="M0 0 C4.99911924 0.47610659 7.97832683 2.03162219 12 5 C12.70125 4.360625 13.4025 3.72125 14.125 3.0625 C17.22841233 0.83613898 19.24620139 0.34919057 23 0 C23 1.98 23 3.96 23 6 C21.329375 6.309375 21.329375 6.309375 19.625 6.625 C18.42875 7.07875 17.2325 7.5325 16 8 C15.34 9.98 14.68 11.96 14 14 C20.27 14 26.54 14 33 14 C33 25.22 33 36.44 33 48 C26.73 48 20.46 48 14 48 C14.66 49.98 15.32 51.96 16 54 C19.52451159 55.46022435 19.52451159 55.46022435 23 56 C23 57.98 23 59.96 23 62 C18.00088076 61.52389341 15.02167317 59.96837781 11 57 C10.29875 57.639375 9.5975 58.27875 8.875 58.9375 C5.77158767 61.16386102 3.75379861 61.65080943 0 62 C0 60.02 0 58.04 0 56 C0.763125 55.773125 1.52625 55.54625 2.3125 55.3125 C5.72154873 53.64761573 6.4103895 52.43204859 8 49 C8.28730629 46.19271041 8.42125634 43.61554709 8.3984375 40.8125 C8.40130768 40.03237549 8.40417786 39.25225098 8.40713501 38.44848633 C8.40917003 36.80451732 8.40367952 35.1605238 8.39111328 33.51660156 C8.37505065 31.00790999 8.39098004 28.50082929 8.41015625 25.9921875 C8.40817372 24.39062146 8.40432983 22.78905642 8.3984375 21.1875 C8.40451019 20.44153564 8.41058289 19.69557129 8.4168396 18.92700195 C8.35680083 14.45587207 7.80296026 11.53181322 5 8 C2.42900598 6.65310085 2.42900598 6.65310085 0 6 C0 4.02 0 2.04 0 0 Z M14 19 C14 26.92 14 34.84 14 43 C18.62 43 23.24 43 28 43 C28 35.08 28 27.16 28 19 C23.38 19 18.76 19 14 19 Z " fill="#FFFFFF" transform="translate(37,5)"/>
<path d="M0 0 C13.2 0 26.4 0 40 0 C40 1.65 40 3.3 40 5 C28.45 5 16.9 5 5 5 C5 12.92 5 20.84 5 29 C16.22 29 27.44 29 39 29 C39 30.65 39 32.3 39 34 C26.13 34 13.26 34 0 34 C0 22.78 0 11.56 0 0 Z " fill="#FFFFFF" transform="translate(2,19)"/>
<path d="M0 0 C10.23 0 20.46 0 31 0 C31 10 31 10 30 16 C20.1 16 10.2 16 0 16 C0 10.72 0 5.44 0 0 Z " fill="#FFFFFF" transform="translate(11,28)"/>
</svg>
