<?xml version="1.0" encoding="UTF-8"?>
<svg version="1.1" xmlns="http://www.w3.org/2000/svg" width="72" height="72">
<path d="M0 0 C2.39763185 2.39763185 2.34280586 3.33273498 2.625 6.625 C2.69976562 7.44226563 2.77453125 8.25953125 2.8515625 9.1015625 C2.90054688 9.72804688 2.94953125 10.35453125 3 11 C4.00160156 10.2059375 5.00320312 9.411875 6.03515625 8.59375 C7.37692679 7.56161881 8.71941292 6.53041742 10.0625 5.5 C11.04766602 4.71302734 11.04766602 4.71302734 12.05273438 3.91015625 C15.51378074 1.28453487 17.45903483 0.06550537 21.87109375 -0.46875 C25 0 25 0 27 2 C27.19990227 4.84540142 27.27976976 7.59137784 27.265625 10.4375 C27.26849518 11.6913147 27.26849518 11.6913147 27.27142334 12.97045898 C27.27278536 14.73909811 27.26908776 16.50774723 27.26074219 18.27636719 C27.25004275 20.98915994 27.26063676 23.70129044 27.2734375 26.4140625 C27.27211591 28.1302098 27.26955352 29.84635669 27.265625 31.5625 C27.26967346 32.37710693 27.27372192 33.19171387 27.27789307 34.03100586 C27.22991928 39.77008072 27.22991928 39.77008072 25 42 C18.49094299 42.91013032 15.0977883 40.65663723 10.0625 37 C9.37865234 36.52304687 8.69480469 36.04609375 7.99023438 35.5546875 C6.3165821 34.38430129 4.65681558 33.19410132 3 32 C2.814375 33.918125 2.814375 33.918125 2.625 35.875 C2.25 39.75 2.25 39.75 0 42 C-6.56476183 42.93431067 -9.91238333 40.62095226 -14.9375 36.875 C-15.63681641 36.3687207 -16.33613281 35.86244141 -17.05664062 35.34082031 C-18.43008198 34.34433933 -19.79924521 33.34192895 -21.16357422 32.33300781 C-22.67980584 31.23241959 -24.24288867 30.19669054 -25.81640625 29.1796875 C-26.53699219 28.70789063 -27.25757813 28.23609375 -28 27.75 C-28.598125 27.37359375 -29.19625 26.9971875 -29.8125 26.609375 C-31 25 -31 25 -31.55078125 21.63671875 C-31 18 -31 18 -28.54296875 15.41015625 C-27.44147038 14.60386346 -26.32159585 13.82225871 -25.1875 13.0625 C-24.6001709 12.64500488 -24.0128418 12.22750977 -23.40771484 11.79736328 C-22.1996026 10.93926791 -20.98566684 10.0893139 -19.76611328 9.24755859 C-18.11475418 8.08106081 -16.5211998 6.83391424 -14.93359375 5.58203125 C-6.16174248 -1.31100904 -6.16174248 -1.31100904 0 0 Z M-14.6875 17 C-16.17830078 18.11375 -16.17830078 18.11375 -17.69921875 19.25 C-18.83810547 20.11625 -18.83810547 20.11625 -20 21 C-16.99633984 23.46184406 -14.00273427 25.72714519 -10.6875 27.75 C-9.99011719 28.17796875 -9.29273438 28.6059375 -8.57421875 29.046875 C-8.05472656 29.36140625 -7.53523438 29.6759375 -7 30 C-5.58225162 28.81147145 -5.58225162 28.81147145 -5.90234375 25.40234375 C-5.9090178 23.91403133 -5.92097817 22.42573568 -5.9375 20.9375 C-5.94201172 20.17888672 -5.94652344 19.42027344 -5.95117188 18.63867188 C-5.9629932 16.75908129 -5.98092922 14.87953101 -6 13 C-10.03381023 13 -11.49433637 14.59573562 -14.6875 17 Z M10.3125 17 C8.82169922 18.11375 8.82169922 18.11375 7.30078125 19.25 C6.16189453 20.11625 6.16189453 20.11625 5 21 C8.00366016 23.46184406 10.99726573 25.72714519 14.3125 27.75 C15.00988281 28.17796875 15.70726562 28.6059375 16.42578125 29.046875 C16.94527344 29.36140625 17.46476562 29.6759375 18 30 C19.41774838 28.81147145 19.41774838 28.81147145 19.09765625 25.40234375 C19.0909822 23.91403133 19.07902183 22.42573568 19.0625 20.9375 C19.05798828 20.17888672 19.05347656 19.42027344 19.04882812 18.63867188 C19.0370068 16.75908129 19.01907078 14.87953101 19 13 C14.96618977 13 13.50566363 14.59573562 10.3125 17 Z " fill="#000000" transform="translate(38,15)"/>
</svg>
