<?xml version="1.0" encoding="UTF-8"?>
<svg version="1.1" xmlns="http://www.w3.org/2000/svg" width="72" height="72">
<path d="M0 0 C4.66007394 1.71369446 7.96693353 6.04118629 11.41894531 9.48510742 C12.67964844 10.69070313 12.67964844 10.69070313 13.96582031 11.9206543 C14.75988281 12.70891602 15.55394531 13.49717773 16.37207031 14.30932617 C17.46503418 15.38380005 17.46503418 15.38380005 18.58007812 16.47998047 C20.62443832 19.46201971 20.62230518 21.25203099 20.16894531 24.79760742 C18.10644531 27.11010742 18.10644531 27.11010742 15.16894531 28.79760742 C14.07582031 28.81823242 12.98269531 28.83885742 11.85644531 28.86010742 C6.57183508 30.2036524 4.75626007 33.13091755 1.75878906 37.54370117 C-0.43538044 42.0344707 -0.61612323 45.96030137 -0.69824219 50.89916992 C-0.91207563 55.56577037 -2.5923217 58.55887443 -5.83105469 61.79760742 C-10.23761477 61.57106785 -12.19670495 59.88174358 -15.14355469 56.73510742 C-15.8409375 56.00163086 -16.53832031 55.2681543 -17.25683594 54.51245117 C-17.77632812 53.94655273 -18.29582031 53.3806543 -18.83105469 52.79760742 C-22.62570447 54.39207294 -25.21554222 56.81644942 -28.20605469 59.61010742 C-29.17542969 60.50084961 -30.14480469 61.3915918 -31.14355469 62.30932617 C-32.66997019 63.72259169 -34.19319205 65.13937456 -35.70605469 66.56713867 C-38.00804477 68.64732241 -39.47852632 69.74152336 -42.58105469 70.23510742 C-44.83105469 69.79760742 -44.83105469 69.79760742 -46.83105469 67.79760742 C-47.56675582 64.42564392 -47.78408515 63.02848543 -46.83105469 59.79760742 C-44.57159885 56.79226945 -42.08954817 54.17894951 -39.45605469 51.49682617 C-36.21709574 48.16628952 -33.50244078 44.5875007 -30.83105469 40.79760742 C-31.40855469 40.31291992 -31.98605469 39.82823242 -32.58105469 39.32885742 C-38.57341794 33.91908504 -38.57341794 33.91908504 -39.36230469 30.48510742 C-39.33105469 28.29760742 -39.33105469 28.29760742 -38.83105469 24.79760742 C-34.26733097 22.09317855 -31.51805446 20.5217995 -26.20605469 21.17260742 C-20.86072059 21.42238939 -17.57604288 19.24548566 -13.33105469 16.29760742 C-12.7192334 15.88816895 -12.10741211 15.47873047 -11.47705078 15.05688477 C-6.72356033 11.53079011 -5.86553769 8.55860758 -4.83105469 2.79760742 C-2.76242318 -0.30533984 -2.76242318 -0.30533984 0 0 Z " fill="#080808" transform="translate(50.8310546875,1.202392578125)"/>
<path d="M0 0 C0.75023437 -0.00773437 1.50046875 -0.01546875 2.2734375 -0.0234375 C8.1235963 0.96778542 11.90390164 5.37393734 15.875 9.4375 C16.41640625 9.97955078 16.9578125 10.52160156 17.515625 11.08007812 C21.16959393 14.77515421 22.76956355 16.58045136 22.8125 21.75 C22.82667969 22.52085938 22.84085938 23.29171875 22.85546875 24.0859375 C22.60191762 26.60425893 21.8009699 28.15938766 20.625 30.375 C14.25909696 25.13041414 8.48929388 19.35402678 2.6875 13.5 C1.70791763 12.51539081 0.72810163 11.531014 -0.25195312 10.546875 C-2.62860252 8.15851797 -5.00287356 5.76784788 -7.375 3.375 C-4.87085452 0.67802193 -3.7384212 -0.03827735 0 0 Z " fill="#FCFCFC" transform="translate(23.375,25.625)"/>
<path d="M0 0 C3.21524305 1.40844718 5.32183868 3.10344786 7.75 5.625 C8.67039062 6.57246094 8.67039062 6.57246094 9.609375 7.5390625 C10.06828125 8.02117188 10.5271875 8.50328125 11 9 C9.65070536 12.83663072 7.92248975 15.65172569 5.375 18.8125 C4.74335937 19.60269531 4.11171875 20.39289062 3.4609375 21.20703125 C2.97882812 21.79871094 2.49671875 22.39039062 2 23 C1.360625 22.34 0.72125 21.68 0.0625 21 C-3.7829235 17.14346256 -7.90924419 13.59166578 -12 10 C-8.29909479 6.0747975 -4.45040344 3.05419844 0 0 Z " fill="#F8F8F8" transform="translate(45,16)"/>
<path d="M0 0 C6.03331362 4.98404168 11.5184171 10.41915303 17 16 C15.69921875 17.48828125 15.69921875 17.48828125 14 19 C10.19913294 19.22358042 7.88411119 18.64855759 4.80078125 16.38671875 C1.27221104 13.12421667 -0.74800121 10.85399589 -2.125 6.1875 C-2 3 -2 3 0 0 Z " fill="#EDEDED" transform="translate(50,5)"/>
<path d="M0 0 C1.32 1.32 2.64 2.64 4 4 C1.77283987 6.08551395 -0.45663588 8.16845445 -2.6875 10.25 C-3.31333984 10.83652344 -3.93917969 11.42304687 -4.58398438 12.02734375 C-14.21194698 21 -14.21194698 21 -17 21 C-15.7070307 18.21142906 -14.29514531 15.97377331 -12.28515625 13.65234375 C-11.76373047 13.04712891 -11.24230469 12.44191406 -10.70507812 11.81835938 C-9.89200195 10.88733398 -9.89200195 10.88733398 -9.0625 9.9375 C-8.52431641 9.31294922 -7.98613281 8.68839844 -7.43164062 8.04492188 C-5.03140731 5.27177932 -2.61718518 2.57175297 0 0 Z " fill="#EEEEEE" transform="translate(25,43)"/>
</svg>
