<?xml version="1.0" encoding="UTF-8"?>
<svg version="1.1" xmlns="http://www.w3.org/2000/svg" width="72" height="72">
<path d="M0 0 C2.475 0.495 2.475 0.495 5 1 C5 11.56 5 22.12 5 33 C15.56 33 26.12 33 37 33 C37.495 35.475 37.495 35.475 38 38 C37 39 37 39 33.94897461 39.11352539 C32.60008731 39.11327443 31.25119355 39.10771815 29.90234375 39.09765625 C27.95702759 39.09390991 27.95702759 39.09390991 25.97241211 39.09008789 C24.31089111 39.08098389 22.64937012 39.07187988 20.9375 39.0625 C15.678125 39.041875 10.41875 39.02125 5 39 C5 49.56 5 60.12 5 71 C2.525 71.495 2.525 71.495 0 72 C-1 71 -1 71 -1.11352539 67.94897461 C-1.11327443 66.60008731 -1.10771815 65.25119355 -1.09765625 63.90234375 C-1.09515869 62.60546631 -1.09266113 61.30858887 -1.09008789 59.97241211 C-1.08098389 58.31089111 -1.07187988 56.64937012 -1.0625 54.9375 C-1.0315625 47.0484375 -1.0315625 47.0484375 -1 39 C-11.56 39 -22.12 39 -33 39 C-33.33 37.35 -33.66 35.7 -34 34 C-33 33 -33 33 -29.94897461 32.88647461 C-28.60008729 32.88663366 -27.25119386 32.89232388 -25.90234375 32.90234375 C-24.83905602 32.90446617 -24.83905602 32.90446617 -23.75428772 32.90663147 C-21.48198288 32.91224557 -19.20977525 32.92480037 -16.9375 32.9375 C-15.40039204 32.94251319 -13.86328255 32.94707641 -12.32617188 32.95117188 C-8.55074358 32.96221958 -4.77538829 32.97949359 -1 33 C-1.00523682 32.03586182 -1.01047363 31.07172363 -1.01586914 30.07836914 C-1.03392118 26.51327436 -1.04543274 22.94818364 -1.05493164 19.38305664 C-1.0599714 17.83780234 -1.0668032 16.29255284 -1.07543945 14.74731445 C-1.08752076 12.53074971 -1.09323173 10.31424782 -1.09765625 8.09765625 C-1.10281754 7.4028566 -1.10797882 6.70805695 -1.11329651 5.99220276 C-1.11349277 4.3277067 -1.06189129 2.66334501 -1 1 C-0.67 0.67 -0.34 0.34 0 0 Z " fill="#000000" transform="translate(34,0)"/>
<path d="M0 0 C0.78503906 0.00773437 1.57007813 0.01546875 2.37890625 0.0234375 C3.55646484 0.01183594 3.55646484 0.01183594 4.7578125 0 C10.62559838 0.02012963 10.62559838 0.02012963 12.87890625 2.2734375 C13.07747597 5.14685811 13.15719571 7.90205738 13.12890625 10.7734375 C13.13664062 11.55847656 13.144375 12.34351563 13.15234375 13.15234375 C13.13221412 19.02012963 13.13221412 19.02012963 10.87890625 21.2734375 C8.00548564 21.47200722 5.25028637 21.55172696 2.37890625 21.5234375 C1.20134766 21.53503906 1.20134766 21.53503906 0 21.546875 C-5.86778588 21.52674537 -5.86778588 21.52674537 -8.12109375 19.2734375 C-8.31966347 16.40001689 -8.39938321 13.64481762 -8.37109375 10.7734375 C-8.37882812 9.98839844 -8.3865625 9.20335937 -8.39453125 8.39453125 C-8.36977533 1.17818136 -7.21634989 0.02475592 0 0 Z M-3.12109375 5.2734375 C-3.12109375 8.9034375 -3.12109375 12.5334375 -3.12109375 16.2734375 C0.50890625 16.2734375 4.13890625 16.2734375 7.87890625 16.2734375 C7.87890625 12.6434375 7.87890625 9.0134375 7.87890625 5.2734375 C4.24890625 5.2734375 0.61890625 5.2734375 -3.12109375 5.2734375 Z " fill="#000000" transform="translate(53.12109375,44.7265625)"/>
<path d="M0 0 C0.78503906 0.00773437 1.57007813 0.01546875 2.37890625 0.0234375 C3.55646484 0.01183594 3.55646484 0.01183594 4.7578125 0 C10.62559838 0.02012963 10.62559838 0.02012963 12.87890625 2.2734375 C13.07747597 5.14685811 13.15719571 7.90205738 13.12890625 10.7734375 C13.13664062 11.55847656 13.144375 12.34351563 13.15234375 13.15234375 C13.13221412 19.02012963 13.13221412 19.02012963 10.87890625 21.2734375 C8.00548564 21.47200722 5.25028637 21.55172696 2.37890625 21.5234375 C1.20134766 21.53503906 1.20134766 21.53503906 0 21.546875 C-5.86778588 21.52674537 -5.86778588 21.52674537 -8.12109375 19.2734375 C-8.31966347 16.40001689 -8.39938321 13.64481762 -8.37109375 10.7734375 C-8.37882813 9.98839844 -8.3865625 9.20335937 -8.39453125 8.39453125 C-8.36977533 1.17818136 -7.21634989 0.02475592 0 0 Z M-3.12109375 5.2734375 C-3.12109375 8.9034375 -3.12109375 12.5334375 -3.12109375 16.2734375 C0.50890625 16.2734375 4.13890625 16.2734375 7.87890625 16.2734375 C7.87890625 12.6434375 7.87890625 9.0134375 7.87890625 5.2734375 C4.24890625 5.2734375 0.61890625 5.2734375 -3.12109375 5.2734375 Z " fill="#000000" transform="translate(14.12109375,44.7265625)"/>
<path d="M0 0 C0.78503906 0.00773438 1.57007813 0.01546875 2.37890625 0.0234375 C3.55646484 0.01183594 3.55646484 0.01183594 4.7578125 0 C10.62559838 0.02012963 10.62559838 0.02012963 12.87890625 2.2734375 C13.07747597 5.14685811 13.15719571 7.90205738 13.12890625 10.7734375 C13.13664062 11.55847656 13.144375 12.34351563 13.15234375 13.15234375 C13.13221412 19.02012963 13.13221412 19.02012963 10.87890625 21.2734375 C8.00548564 21.47200722 5.25028637 21.55172696 2.37890625 21.5234375 C1.20134766 21.53503906 1.20134766 21.53503906 0 21.546875 C-5.86778588 21.52674537 -5.86778588 21.52674537 -8.12109375 19.2734375 C-8.31966347 16.40001689 -8.39938321 13.64481762 -8.37109375 10.7734375 C-8.37882812 9.98839844 -8.3865625 9.20335937 -8.39453125 8.39453125 C-8.36977533 1.17818136 -7.21634989 0.02475592 0 0 Z M-3.12109375 5.2734375 C-3.12109375 8.9034375 -3.12109375 12.5334375 -3.12109375 16.2734375 C0.50890625 16.2734375 4.13890625 16.2734375 7.87890625 16.2734375 C7.87890625 12.6434375 7.87890625 9.0134375 7.87890625 5.2734375 C4.24890625 5.2734375 0.61890625 5.2734375 -3.12109375 5.2734375 Z " fill="#000000" transform="translate(53.12109375,5.7265625)"/>
<path d="M0 0 C0.78503906 0.00773438 1.57007813 0.01546875 2.37890625 0.0234375 C3.55646484 0.01183594 3.55646484 0.01183594 4.7578125 0 C10.62559838 0.02012963 10.62559838 0.02012963 12.87890625 2.2734375 C13.07747597 5.14685811 13.15719571 7.90205738 13.12890625 10.7734375 C13.13664062 11.55847656 13.144375 12.34351563 13.15234375 13.15234375 C13.13221412 19.02012963 13.13221412 19.02012963 10.87890625 21.2734375 C8.00548564 21.47200722 5.25028637 21.55172696 2.37890625 21.5234375 C1.20134766 21.53503906 1.20134766 21.53503906 0 21.546875 C-5.86778588 21.52674537 -5.86778588 21.52674537 -8.12109375 19.2734375 C-8.31966347 16.40001689 -8.39938321 13.64481762 -8.37109375 10.7734375 C-8.37882813 9.98839844 -8.3865625 9.20335937 -8.39453125 8.39453125 C-8.36977533 1.17818136 -7.21634989 0.02475592 0 0 Z M-3.12109375 5.2734375 C-3.12109375 8.9034375 -3.12109375 12.5334375 -3.12109375 16.2734375 C0.50890625 16.2734375 4.13890625 16.2734375 7.87890625 16.2734375 C7.87890625 12.6434375 7.87890625 9.0134375 7.87890625 5.2734375 C4.24890625 5.2734375 0.61890625 5.2734375 -3.12109375 5.2734375 Z " fill="#000000" transform="translate(14.12109375,5.7265625)"/>
</svg>
