<?xml version="1.0" encoding="UTF-8"?>
<svg version="1.1" xmlns="http://www.w3.org/2000/svg" width="72" height="72">
<path d="M0 0 C2.70931419 0.15481795 4.46584039 0.48172081 6.4453125 2.40234375 C7.67679642 3.89771708 8.8429837 5.4462924 10 7 C8.35167366 11.17029717 5.3124621 14.02854012 2.21484375 17.15625 C1.63972549 17.74039673 1.06460724 18.32454346 0.47206116 18.9263916 C-0.74659644 20.15953583 -1.96806729 21.38990533 -3.19213867 22.61767578 C-5.04410029 24.48148261 -6.87655894 26.36310334 -8.70898438 28.24609375 C-20.74033152 40.4451017 -20.74033152 40.4451017 -28 42 C-29.32 42 -30.64 42 -32 42 C-31.50269348 37.02693484 -30.44697666 33.36200187 -28 29 C-23.73173127 29 -23.06117568 29.37613513 -20 32 C-21.32 30.35 -22.64 28.7 -24 27 C-22.52573172 21.44728153 -18.54065282 18.13459325 -14.5625 14.25 C-13.88123047 13.56550781 -13.19996094 12.88101562 -12.49804688 12.17578125 C-7.40102741 7.1336758 -7.40102741 7.1336758 -4 6 C-3.34 6.33 -2.68 6.66 -2 7 C-2.48713098 11.41510774 -3.85053197 13.30446645 -7.0625 16.3125 C-7.79597656 17.00988281 -8.52945313 17.70726563 -9.28515625 18.42578125 C-10.13400391 19.20501953 -10.13400391 19.20501953 -11 20 C-8.70644278 20.22542376 -8.70644278 20.22542376 -6.6171875 17.8125 C-5.71226563 16.884375 -4.80734375 15.95625 -3.875 15 C-2.96492188 14.071875 -2.05484375 13.14375 -1.1171875 12.1875 C-0.41851562 11.465625 0.28015625 10.74375 1 10 C0.690625 9.401875 0.38125 8.80375 0.0625 8.1875 C-1 6 -1 6 -2 3 C-1.34 2.01 -0.68 1.02 0 0 Z " fill="#000000" transform="translate(62,0)"/>
<path d="M0 0 C0.7805072 0.00030212 1.5610144 0.00060425 2.36517334 0.00091553 C3.61382172 0.03188324 3.61382172 0.03188324 4.88769531 0.06347656 C5.74768127 0.06913635 6.60766724 0.07479614 7.49371338 0.08062744 C10.2349868 0.10298206 12.97494335 0.15317554 15.71582031 0.20410156 C17.57647849 0.2241678 19.4371572 0.24241836 21.29785156 0.25878906 C25.85434698 0.30284372 30.40986053 0.37186402 34.96582031 0.45410156 C34.96582031 1.77410156 34.96582031 3.09410156 34.96582031 4.45410156 C16.15582031 4.94910156 16.15582031 4.94910156 -3.03417969 5.45410156 C-3.03417969 23.93410156 -3.03417969 42.41410156 -3.03417969 61.45410156 C13.30082031 61.94910156 13.30082031 61.94910156 29.96582031 62.45410156 C29.96582031 63.77410156 29.96582031 65.09410156 29.96582031 66.45410156 C25.19700155 66.55310291 20.42878302 66.62563084 15.65917969 66.67382812 C14.03732888 66.693923 12.41555034 66.72120411 10.79394531 66.75585938 C8.46043051 66.80447427 6.12787474 66.82709045 3.79394531 66.84472656 C2.70935028 66.87569427 2.70935028 66.87569427 1.60284424 66.9072876 C-1.65136473 66.90873259 -3.60075664 66.78468337 -6.22528076 64.78289795 C-8.47628594 61.8849291 -8.54028078 60.37965761 -8.55175781 56.73925781 C-8.56436646 55.59126709 -8.5769751 54.44327637 -8.58996582 53.26049805 C-8.5818689 52.02501221 -8.57377197 50.78952637 -8.56542969 49.51660156 C-8.56925659 48.24437744 -8.5730835 46.97215332 -8.57702637 45.66137695 C-8.57974896 42.97096329 -8.57437783 40.28200285 -8.55566406 37.59179688 C-8.5328733 34.14815411 -8.54599937 30.70575829 -8.56995392 27.26216125 C-8.58790521 23.97193029 -8.57532689 20.68184882 -8.56542969 17.39160156 C-8.57352661 16.15611572 -8.58162354 14.92062988 -8.58996582 13.64770508 C-8.57735718 12.49971436 -8.56474854 11.35172363 -8.55175781 10.16894531 C-8.54857544 9.15952881 -8.54539307 8.1501123 -8.54211426 7.11010742 C-7.63264863 2.354483 -4.81447429 -0.06252564 0 0 Z " fill="#000000" transform="translate(11.0341796875,2.5458984375)"/>
<path d="M0 0 C1.32 0 2.64 0 4 0 C6.9436266 29.10860438 6.9436266 29.10860438 0.35546875 37.91015625 C-3.54310204 42.12139437 -7.87792691 46.32351198 -13 49 C-14.32 49 -15.64 49 -17 49 C-17.10812003 46.24894578 -17.18734945 43.50214913 -17.25 40.75 C-17.28351562 39.97269531 -17.31703125 39.19539063 -17.3515625 38.39453125 C-17.36445312 37.64042969 -17.37734375 36.88632812 -17.390625 36.109375 C-17.41157227 35.41811523 -17.43251953 34.72685547 -17.45410156 34.01464844 C-17 32 -17 32 -13 28 C-8.71 28 -4.42 28 0 28 C0 18.76 0 9.52 0 0 Z M-11.875 33.125 C-13.4682099 35.78034983 -13.20214032 37.96789518 -13 41 C-11.87105124 40.06725891 -10.74699124 39.12859878 -9.625 38.1875 C-8.99851562 37.66542969 -8.37203125 37.14335938 -7.7265625 36.60546875 C-5.7778952 34.91774261 -5.7778952 34.91774261 -4 32 C-8.12587749 31.66482489 -8.12587749 31.66482489 -11.875 33.125 Z " fill="#000000" transform="translate(65,20)"/>
</svg>
