<?xml version="1.0" encoding="UTF-8"?>
<svg version="1.1" xmlns="http://www.w3.org/2000/svg" width="72" height="72">
<path d="M0 0 C1.23137695 -0.00945648 2.46275391 -0.01891296 3.73144531 -0.02865601 C5.07617514 -0.0232863 6.42090204 -0.01713334 7.765625 -0.01025391 C9.1442073 -0.01227487 10.52278855 -0.0151865 11.90136719 -0.01895142 C14.78981714 -0.02337375 17.67798867 -0.01694699 20.56640625 -0.00292969 C24.26892254 0.01416261 27.97078646 0.00432088 31.67327881 -0.01364708 C34.51974402 -0.02448762 37.36605455 -0.02103744 40.21252441 -0.0132637 C41.57767819 -0.01126242 42.94284602 -0.01371849 44.3079834 -0.02070236 C46.2157362 -0.02832031 48.12353824 -0.01465046 50.03125 0 C51.65981934 0.00358017 51.65981934 0.00358017 53.32128906 0.00723267 C56.015625 0.38818359 56.015625 0.38818359 57.86737061 1.59381104 C59.40944438 4.00360356 59.38345416 5.63196996 59.37207031 8.48632812 C59.37507141 9.52395294 59.37807251 10.56157776 59.38116455 11.63064575 C59.36264435 13.30886917 59.36264435 13.30886917 59.34375 15.02099609 C59.34187683 16.16857391 59.34000366 17.31615173 59.33807373 18.49850464 C59.3313487 20.92448837 59.31742536 23.35046118 59.296875 25.77636719 C59.26569221 29.50514714 59.25590249 33.23350488 59.25 36.96240234 C59.24083154 39.31527212 59.23045628 41.66813757 59.21875 44.02099609 C59.21450012 45.14386017 59.21025024 46.26672424 59.20587158 47.4236145 C59.19626404 48.454935 59.18665649 49.48625549 59.17675781 50.54882812 C59.16992981 51.46133331 59.16310181 52.3738385 59.15606689 53.31399536 C59.015625 55.38818359 59.015625 55.38818359 58.015625 56.38818359 C55.96549654 56.48757985 53.91191108 56.51617912 51.859375 56.51757812 C50.54130859 56.52073029 49.22324219 56.52388245 47.86523438 56.52713013 C46.41536425 56.52534035 44.96549442 56.5232894 43.515625 56.52099609 C42.03971338 56.52166917 40.56380187 56.52263922 39.08789062 56.52389526 C35.99087471 56.52537207 32.89388758 56.52321823 29.796875 56.51855469 C25.81853951 56.5128574 21.84027148 56.5161365 17.86193848 56.52212715 C14.81314583 56.52573323 11.76436929 56.52459397 8.71557617 56.52199936 C7.24829094 56.52133022 5.78100426 56.52215807 4.3137207 56.52447891 C2.26643907 56.52700616 0.21915234 56.5224742 -1.828125 56.51757812 C-3.57899414 56.51638474 -3.57899414 56.51638474 -5.36523438 56.51516724 C-7.984375 56.38818359 -7.984375 56.38818359 -8.984375 55.38818359 C-9.09340905 53.77785825 -9.13343098 52.16279537 -9.14550781 50.54882812 C-9.15511536 49.51750763 -9.1647229 48.48618713 -9.17462158 47.4236145 C-9.17887146 46.30075043 -9.18312134 45.17788635 -9.1875 44.02099609 C-9.19320007 42.87533173 -9.19890015 41.72966736 -9.20477295 40.54928589 C-9.21424003 38.11978077 -9.22076368 35.69026271 -9.22460938 33.26074219 C-9.23431536 29.53606854 -9.2653236 25.81194633 -9.296875 22.08740234 C-9.30340455 19.73193689 -9.30865521 17.37646746 -9.3125 15.02099609 C-9.3248468 13.90218048 -9.3371936 12.78336487 -9.34991455 11.63064575 C-9.34691345 10.59302094 -9.34391235 9.55539612 -9.34082031 8.48632812 C-9.34446594 7.57223175 -9.34811157 6.65813538 -9.35186768 5.71633911 C-8.984375 3.38818359 -8.984375 3.38818359 -7.83612061 1.59381104 C-5.18050233 -0.13519875 -3.15585413 0.00693768 0 0 Z M-4.984375 4.38818359 C-4.984375 8.67818359 -4.984375 12.96818359 -4.984375 17.38818359 C14.815625 17.38818359 34.615625 17.38818359 55.015625 17.38818359 C55.015625 13.09818359 55.015625 8.80818359 55.015625 4.38818359 C35.215625 4.38818359 15.415625 4.38818359 -4.984375 4.38818359 Z M-4.984375 21.38818359 C-4.984375 31.61818359 -4.984375 41.84818359 -4.984375 52.38818359 C14.815625 52.38818359 34.615625 52.38818359 55.015625 52.38818359 C55.015625 42.15818359 55.015625 31.92818359 55.015625 21.38818359 C35.215625 21.38818359 15.415625 21.38818359 -4.984375 21.38818359 Z " fill="#FFFFFF" transform="translate(10.984375,7.61181640625)"/>
<path d="M0 0 C11.55 0 23.1 0 35 0 C35 3.3 35 6.6 35 10 C23.45 10 11.9 10 0 10 C0 6.7 0 3.4 0 0 Z M4 4 C4 4.66 4 5.32 4 6 C13.24 6 22.48 6 32 6 C32 5.34 32 4.68 32 4 C22.76 4 13.52 4 4 4 Z " fill="#FFFFFF" transform="translate(27,14)"/>
<path d="M0 0 C2.125 0.375 2.125 0.375 4 1 C4.38218767 2.65614657 4.71395102 4.32457024 5 6 C4 7 4 7 1.4375 7.0625 C0.2309375 7.0315625 0.2309375 7.0315625 -1 7 C-1.625 4.625 -1.625 4.625 -2 2 C-1.34 1.34 -0.68 0.68 0 0 Z " fill="#FFFFFF" transform="translate(10,15)"/>
<path d="M0 0 C0.639375 0.2475 1.27875 0.495 1.9375 0.75 C2.2675 1.74 2.5975 2.73 2.9375 3.75 C1.9475 5.235 1.9475 5.235 0.9375 6.75 C-0.7125 6.42 -2.3625 6.09 -4.0625 5.75 C-4.0625 4.1 -4.0625 2.45 -4.0625 0.75 C-2.0625 -0.25 -2.0625 -0.25 0 0 Z " fill="#FFFFFF" transform="translate(21.0625,15.25)"/>
</svg>
