<?xml version="1.0" encoding="UTF-8"?>
<svg xmlns="http://www.w3.org/2000/svg" xmlns:xlink="http://www.w3.org/1999/xlink" width="72px" height="72px" viewBox="0 0 72 72" version="1.1">
<g id="surface1">
<path style=" stroke:none;fill-rule:nonzero;fill:rgb(0%,0%,0%);fill-opacity:1;" d="M 63.359375 0 C 65.757812 -0.0625 68.160156 -0.0585938 70.558594 0 C 72 1.441406 72 1.441406 72.449219 4.859375 C 71.898438 11.238281 69.804688 16.316406 67.359375 22.195312 C 65.824219 27.296875 66.804688 29.929688 69.121094 34.558594 C 69.738281 48.304688 63.605469 58.675781 55.621094 69.390625 C 50.40625 72.992188 46.347656 73.085938 40.320312 72 C 27.527344 68.789062 17.910156 62.546875 8.640625 53.28125 C 8.640625 51.378906 8.640625 49.476562 8.640625 47.519531 C 9.476562 47.378906 10.3125 47.238281 11.171875 47.09375 C 22.242188 44.972656 29.363281 41.0625 36 31.679688 C 36.773438 30.375 37.542969 29.066406 38.339844 27.71875 C 40.320312 24.480469 40.320312 24.480469 43.199219 23.039062 C 46.078125 22.980469 48.960938 22.976562 51.839844 23.039062 C 52.222656 22.023438 52.605469 21.007812 53 19.964844 C 54.8125 15.617188 56.9375 11.589844 59.21875 7.46875 C 59.996094 6.066406 60.773438 4.660156 61.570312 3.210938 C 62.160156 2.152344 62.75 1.09375 63.359375 0 Z M 66.238281 4.320312 C 62.4375 11.449219 58.636719 18.574219 54.71875 25.921875 C 56.621094 26.394531 58.523438 26.871094 60.480469 27.359375 C 61.726562 24.335938 62.953125 21.304688 64.171875 18.269531 C 64.855469 16.582031 65.539062 14.894531 66.246094 13.15625 C 68.160156 8.664062 68.160156 8.664062 66.238281 4.320312 Z M 44.640625 27.359375 C 44.640625 28.785156 44.640625 30.210938 44.640625 31.679688 C 51.34375 35.785156 57.171875 38.453125 64.800781 40.320312 C 64.613281 37.546875 64.613281 37.546875 63.359375 34.558594 C 60.203125 32.289062 60.203125 32.289062 56.339844 30.601562 C 55.066406 29.984375 53.792969 29.367188 52.480469 28.734375 C 48.917969 27.097656 48.917969 27.097656 44.640625 27.359375 Z M 40.320312 34.558594 C 40.320312 35.511719 40.320312 36.460938 40.320312 37.441406 C 41.746094 36.964844 43.171875 36.488281 44.640625 36 C 43.214844 35.523438 41.789062 35.050781 40.320312 34.558594 Z M 44.640625 37.441406 C 45.113281 38.390625 45.589844 39.339844 46.078125 40.320312 C 47.503906 39.84375 48.929688 39.371094 50.398438 38.878906 C 48.5 38.40625 46.597656 37.929688 44.640625 37.441406 Z M 31.589844 43.378906 C 30.601562 44.417969 30.601562 44.417969 29.59375 45.476562 C 25.652344 49.082031 20.851562 50.199219 15.839844 51.839844 C 17.265625 53.742188 18.691406 55.640625 20.160156 57.601562 C 26.195312 56.929688 29.042969 56.289062 33.121094 51.839844 C 36.269531 50.851562 36.269531 50.851562 38.878906 50.398438 C 35.402344 54.996094 32.140625 58.675781 27.359375 61.921875 C 30.359375 63.738281 32.363281 64.824219 35.910156 64.710938 C 40.191406 62.765625 42.820312 59.503906 46.078125 56.160156 C 47.503906 55.683594 48.929688 55.210938 50.398438 54.71875 C 47.753906 59.257812 44.984375 63.53125 41.761719 67.679688 C 45.710938 68.648438 45.710938 68.648438 50.398438 67.679688 C 55.492188 62.765625 59.140625 57.394531 60.480469 50.398438 C 56.03125 47.859375 54.382812 47.519531 48.960938 47.519531 C 48.960938 46.570312 48.960938 45.621094 48.960938 44.640625 C 40.148438 40.152344 40.148438 40.152344 31.589844 43.378906 Z M 50.398438 40.320312 C 53.242188 43.953125 54.671875 44.628906 59.308594 45.628906 C 60.648438 45.777344 61.984375 45.925781 63.359375 46.078125 C 59.128906 42.476562 55.902344 41.085938 50.398438 40.320312 Z M 50.398438 40.320312 "/>
<path style=" stroke:none;fill-rule:nonzero;fill:rgb(0%,0%,0%);fill-opacity:1;" d="M 16.558594 25.558594 C 21.601562 25.921875 21.601562 25.921875 24.480469 28.800781 C 24.839844 33.839844 24.839844 33.839844 24.480469 38.878906 C 21.601562 41.761719 21.601562 41.761719 16.558594 42.121094 C 11.519531 41.761719 11.519531 41.761719 8.640625 38.878906 C 8.28125 33.839844 8.28125 33.839844 8.640625 28.800781 C 11.519531 25.921875 11.519531 25.921875 16.558594 25.558594 Z M 12.960938 30.238281 C 12.960938 32.617188 12.960938 34.992188 12.960938 37.441406 C 15.335938 37.441406 17.710938 37.441406 20.160156 37.441406 C 20.160156 35.0625 20.160156 32.6875 20.160156 30.238281 C 17.785156 30.238281 15.40625 30.238281 12.960938 30.238281 Z M 12.960938 30.238281 "/>
<path style=" stroke:none;fill-rule:nonzero;fill:rgb(0%,0%,0%);fill-opacity:1;" d="M 5.761719 11.339844 C 10.078125 11.519531 10.078125 11.519531 11.519531 12.960938 C 11.699219 17.28125 11.699219 17.28125 11.519531 21.601562 C 10.078125 23.039062 10.078125 23.039062 5.761719 23.21875 C 1.441406 23.039062 1.441406 23.039062 0 21.601562 C -0.179688 17.28125 -0.179688 17.28125 0 12.960938 C 1.441406 11.519531 1.441406 11.519531 5.761719 11.339844 Z M 4.320312 15.839844 C 4.320312 16.789062 4.320312 17.742188 4.320312 18.71875 C 5.269531 18.71875 6.222656 18.71875 7.199219 18.71875 C 7.199219 17.769531 7.199219 16.820312 7.199219 15.839844 C 6.25 15.839844 5.300781 15.839844 4.320312 15.839844 Z M 4.320312 15.839844 "/>
<path style=" stroke:none;fill-rule:nonzero;fill:rgb(0%,0%,0%);fill-opacity:1;" d="M 15.839844 15.839844 C 17.742188 15.839844 19.640625 15.839844 21.601562 15.839844 C 21.601562 17.742188 21.601562 19.640625 21.601562 21.601562 C 19.699219 21.601562 17.796875 21.601562 15.839844 21.601562 C 15.839844 19.699219 15.839844 17.796875 15.839844 15.839844 Z M 15.839844 15.839844 "/>
</g>
</svg>
