<?xml version="1.0" encoding="UTF-8"?>
<svg version="1.1" xmlns="http://www.w3.org/2000/svg" width="72" height="72">
<path d="M0 0 C2.9375 -0.5 2.9375 -0.5 6 0 C6.38542969 0.71929688 6.77085938 1.43859375 7.16796875 2.1796875 C9.7916192 6.21865472 13.32295971 8.13354279 17.375 10.625 C18.13039062 11.10195313 18.88578125 11.57890625 19.6640625 12.0703125 C21.12657015 12.99077186 22.59355788 13.90416021 24.06542969 14.80957031 C25.60905971 15.75943654 27.13901784 16.73150999 28.6640625 17.7109375 C31.35608262 19.19650044 34.07864684 20.05886946 37 21 C37.0246501 26.10863896 37.04283607 31.21724359 37.05493164 36.32592773 C37.05997204 38.06519168 37.0668043 39.80445136 37.07543945 41.54370117 C37.08751792 44.03825937 37.09323108 46.53276173 37.09765625 49.02734375 C37.10281754 49.80963852 37.10797882 50.59193329 37.11329651 51.39793396 C37.11349226 53.26567114 37.06199694 55.13329204 37 57 C35.17443883 58.82556117 32.29461397 58.12772403 29.84375 58.12939453 C28.52568359 58.13254669 27.20761719 58.13569885 25.84960938 58.13894653 C24.39973925 58.13715675 22.94986942 58.1351058 21.5 58.1328125 C20.02408838 58.13348557 18.54817687 58.13445563 17.07226562 58.13571167 C13.97524971 58.13718848 10.87826258 58.13503464 7.78125 58.13037109 C3.80291451 58.1246738 -0.17535352 58.1279529 -4.15368652 58.13394356 C-7.20247917 58.13754963 -10.25125571 58.13641037 -13.30004883 58.13381577 C-14.76733406 58.13314662 -16.23462074 58.13397447 -17.7019043 58.13629532 C-19.74918593 58.13882257 -21.79647266 58.1342906 -23.84375 58.12939453 C-25.59461914 58.12820114 -25.59461914 58.12820114 -27.38085938 58.12698364 C-30 58 -30 58 -31 57 C-31.08855161 54.3337397 -31.11524673 51.69352886 -31.09765625 49.02734375 C-31.0962413 48.22970108 -31.09482635 47.43205841 -31.09336853 46.61024475 C-31.08775316 44.05262565 -31.07519812 41.49509282 -31.0625 38.9375 C-31.05748698 37.20768355 -31.05292373 35.47786574 -31.04882812 33.74804688 C-31.03777875 29.49866447 -31.02050386 25.24934688 -31 21 C-30.44675049 20.76925781 -29.89350098 20.53851562 -29.32348633 20.30078125 C-23.81094547 17.93617752 -18.74654843 15.21364 -13.6875 12 C-12.99849609 11.57460938 -12.30949219 11.14921875 -11.59960938 10.7109375 C-6.80616106 7.69712043 -3.17783686 4.76675529 0 0 Z M-9.5625 13.9375 C-10.28501953 14.40607422 -11.00753906 14.87464844 -11.75195312 15.35742188 C-13.53122302 16.52732971 -15.27008197 17.7582797 -17 19 C-17 19.33 -17 19.66 -17 20 C-3.8 20 9.4 20 23 20 C20.525 18.02 20.525 18.02 18 16 C16.83210938 15.04867188 16.83210938 15.04867188 15.640625 14.078125 C14.85171875 13.47484375 14.0628125 12.8715625 13.25 12.25 C12.47140625 11.63640625 11.6928125 11.0228125 10.890625 10.390625 C3.1215154 6.65305335 -2.89991519 9.36048532 -9.5625 13.9375 Z M-27 24 C-27 33.9 -27 43.8 -27 54 C-7.2 54 12.6 54 33 54 C33 44.1 33 34.2 33 24 C13.2 24 -6.6 24 -27 24 Z " fill="#FFFFFF" transform="translate(33,7)"/>
<path d="M0 0 C1.98 0 3.96 0 6 0 C6.33 1.32 6.66 2.64 7 4 C7.33 2.68 7.66 1.36 8 0 C9.32 0 10.64 0 12 0 C12 5.94 12 11.88 12 18 C10.02 18 8.04 18 6 18 C5.67 17.01 5.34 16.02 5 15 C4.67 15.99 4.34 16.98 4 18 C2.68 18 1.36 18 0 18 C0 12.06 0 6.12 0 0 Z " fill="#FFFFFF" transform="translate(48,37)"/>
<path d="M0 0 C1.670625 0.4021875 1.670625 0.4021875 3.375 0.8125 C4.72781371 3.51812743 4.58109362 5.73143655 4.625 8.75 C4.66367187 10.34134766 4.66367187 10.34134766 4.703125 11.96484375 C4.375 14.8125 4.375 14.8125 3.0859375 16.703125 C1.375 17.8125 1.375 17.8125 -2.25 17.625 C-3.36375 17.356875 -4.4775 17.08875 -5.625 16.8125 C-6.97781371 14.10687257 -6.83109362 11.89356345 -6.875 8.875 C-6.90078125 7.81410156 -6.9265625 6.75320312 -6.953125 5.66015625 C-6.625 2.8125 -6.625 2.8125 -5.3359375 0.921875 C-3.625 -0.1875 -3.625 -0.1875 0 0 Z M-2.625 3.8125 C-2.625 7.1125 -2.625 10.4125 -2.625 13.8125 C-1.635 13.8125 -0.645 13.8125 0.375 13.8125 C0.375 10.5125 0.375 7.2125 0.375 3.8125 C-0.615 3.8125 -1.605 3.8125 -2.625 3.8125 Z " fill="#FFFFFF" transform="translate(17.625,37.1875)"/>
<path d="M0 0 C3.3 0 6.6 0 10 0 C10 1.32 10 2.64 10 4 C8.02 4 6.04 4 4 4 C4 4.99 4 5.98 4 7 C5.32 7 6.64 7 8 7 C8 8.32 8 9.64 8 11 C6.68 11 5.36 11 4 11 C4 11.99 4 12.98 4 14 C5.98 14 7.96 14 10 14 C10 15.32 10 16.64 10 18 C6.7 18 3.4 18 0 18 C0 12.06 0 6.12 0 0 Z " fill="#FFFFFF" transform="translate(37,37)"/>
<path d="M0 0 C8 0 8 0 10 1.125 C11.47901666 3.89815624 11.38601984 5.91184125 11 9 C9.75 10.875 9.75 10.875 8 12 C6.68 12 5.36 12 4 12 C4 13.98 4 15.96 4 18 C2.68 18 1.36 18 0 18 C0 12.06 0 6.12 0 0 Z M4 4 C4 5.65 4 7.3 4 9 C4.99 8.67 5.98 8.34 7 8 C6.67 6.68 6.34 5.36 6 4 C5.34 4 4.68 4 4 4 Z " fill="#FFFFFF" transform="translate(24,37)"/>
</svg>
