<?xml version="1.0" encoding="UTF-8"?>
<svg version="1.1" xmlns="http://www.w3.org/2000/svg" width="72" height="72">
<path d="M0 0 C1.2065625 0.0309375 1.2065625 0.0309375 2.4375 0.0625 C2.9375 2.25 2.9375 2.25 2.4375 5.0625 C-0.86506229 7.84157922 -4.48395132 9.70298377 -8.5625 11.0625 C-7.98242188 11.34222656 -7.40234375 11.62195312 -6.8046875 11.91015625 C0.94760723 15.88864414 5.07740877 20.61719801 9.4375 28.0625 C9.81261719 27.340625 10.18773438 26.61875 10.57421875 25.875 C11.08597656 24.946875 11.59773438 24.01875 12.125 23.0625 C12.62386719 22.134375 13.12273438 21.20625 13.63671875 20.25 C15.4375 18.0625 15.4375 18.0625 18.14453125 17.75 C18.90121094 17.853125 19.65789063 17.95625 20.4375 18.0625 C21.4375 21.0625 21.4375 21.0625 20.29296875 23.40234375 C19.74253906 24.25957031 19.19210938 25.11679687 18.625 26 C16.34113269 29.55762067 16.34113269 29.55762067 14.46484375 33.33203125 C14.12582031 33.90308594 13.78679688 34.47414062 13.4375 35.0625 C9.8125 35.8125 9.8125 35.8125 6.4375 36.0625 C4.27736447 32.8994444 2.38249456 29.95052464 0.6875 26.5 C-1.70890207 22.20920894 -5.34147117 20.34051556 -9.5625 18.0625 C-14.50986842 15.11513158 -14.50986842 15.11513158 -15.5625 14.0625 C-15.875 11.1875 -15.875 11.1875 -15.5625 8.0625 C-12.85058845 5.12459582 -8.84720138 3.64219008 -5.26953125 1.9296875 C-1.54518898 0.03768754 -1.54518898 0.03768754 0 0 Z " fill="#000000" transform="translate(21.5625,18.9375)"/>
<path d="M0 0 C3.125 0.375 3.125 0.375 4.6875 2.3125 C5.48491558 4.01134189 6.26285946 5.72126671 6.95703125 7.46484375 C10.12625256 14.40864326 14.43341258 16.54156946 21.359375 19.4765625 C24.125 21.375 24.125 21.375 25.015625 25.0859375 C25.06976563 26.71402344 25.06976563 26.71402344 25.125 28.375 C18.0702954 33.43408096 18.0702954 33.43408096 14.125 33.1875 C13.465 32.919375 12.805 32.65125 12.125 32.375 C12.125 31.055 12.125 29.735 12.125 28.375 C14.625 26.625 14.625 26.625 17.125 25.375 C16.53332031 25.08367188 15.94164063 24.79234375 15.33203125 24.4921875 C7.62540731 20.49429776 3.7625811 16.41596875 0.125 8.375 C-0.2875 9.035 -0.7 9.695 -1.125 10.375 C-1.7025 11.035 -2.28 11.695 -2.875 12.375 C-4.195 12.375 -5.515 12.375 -6.875 12.375 C-7.875 9.375 -7.875 9.375 -7.1328125 7.3671875 C-6.75898438 6.66851562 -6.38515625 5.96984375 -6 5.25 C-5.63132812 4.54617187 -5.26265625 3.84234375 -4.8828125 3.1171875 C-3.31778173 0.41174671 -3.3109222 0.43185942 0 0 Z " fill="#000000" transform="translate(30.875,4.625)"/>
<path d="M0 0 C3.15140423 0.34069235 4.60781561 0.58076841 6.8125 2.9375 C8 5 8 5 8 7 C8.804375 7.309375 9.60875 7.61875 10.4375 7.9375 C13 9 13 9 14 10 C14.4375 12.3125 14.4375 12.3125 14 15 C12.04109119 16.39300182 10.0360882 17.72245446 8 19 C7.505 19.9075 7.01 20.815 6.5 21.75 C6.005 22.4925 5.51 23.235 5 24 C1.8125 24.3125 1.8125 24.3125 -1 24 C-1.33 21.69 -1.66 19.38 -2 17 C-1.21625 16.731875 -0.4325 16.46375 0.375 16.1875 C3.28114923 15.15185568 3.28114923 15.15185568 5 12 C4.01 11.01 3.02 10.02 2 9 C-0.79872437 11.52788007 -2.45773019 13.20411134 -3 17 C-8.875 16.125 -8.875 16.125 -10 15 C-10.4375 12.6875 -10.4375 12.6875 -10 10 C-8.03501678 8.61558 -6.02951535 7.28796166 -4 6 C-2.43695674 4.08171964 -1.2643475 2.13966501 0 0 Z " fill="#000000" transform="translate(52,42)"/>
</svg>
