<?xml version="1.0" encoding="UTF-8"?>
<svg xmlns="http://www.w3.org/2000/svg" xmlns:xlink="http://www.w3.org/1999/xlink" width="72px" height="72px" viewBox="0 0 72 72" version="1.1">
<g id="surface1">
<path style=" stroke:none;fill-rule:nonzero;fill:rgb(0%,0%,0%);fill-opacity:1;" d="M 43.875 29.25 C 46.980469 28.910156 49.777344 28.78125 52.875 28.828125 C 54.121094 28.808594 54.121094 28.808594 55.390625 28.789062 C 57.796875 28.800781 57.796875 28.800781 61.875 29.25 C 62.617188 30.363281 63.359375 31.476562 64.125 32.625 C 66.722656 32.996094 69.324219 33.367188 72 33.75 C 72 44.144531 72 54.539062 72 65.25 C 57.148438 65.25 42.300781 65.25 27 65.25 C 27 54.855469 27 44.460938 27 33.75 C 34.238281 33.191406 34.238281 33.191406 41.625 32.625 C 42.367188 31.511719 43.109375 30.398438 43.875 29.25 Z M 47.25 31.5 C 46.507812 32.984375 45.765625 34.46875 45 36 C 43.957031 35.988281 42.914062 35.972656 41.839844 35.960938 C 39.820312 35.945312 39.820312 35.945312 37.757812 35.929688 C 35.742188 35.910156 35.742188 35.910156 33.683594 35.890625 C 30.5 35.617188 30.5 35.617188 29.25 37.125 C 29.136719 38.949219 29.101562 40.78125 29.101562 42.609375 C 29.097656 43.71875 29.097656 44.824219 29.097656 45.96875 C 29.101562 47.132812 29.105469 48.296875 29.109375 49.5 C 29.105469 50.664062 29.101562 51.832031 29.097656 53.03125 C 29.097656 54.140625 29.097656 55.25 29.101562 56.390625 C 29.101562 57.414062 29.101562 58.4375 29.105469 59.492188 C 28.984375 61.859375 28.984375 61.859375 30.375 63 C 33.199219 63.113281 35.988281 63.15625 38.8125 63.148438 C 40.078125 63.152344 40.078125 63.152344 41.371094 63.152344 C 43.160156 63.152344 44.949219 63.152344 46.742188 63.148438 C 49.488281 63.140625 52.234375 63.148438 54.984375 63.152344 C 56.71875 63.152344 58.453125 63.152344 60.1875 63.148438 C 61.015625 63.152344 61.84375 63.152344 62.695312 63.15625 C 66.546875 63.484375 66.546875 63.484375 69.75 61.875 C 69.863281 60.050781 69.898438 58.21875 69.898438 56.390625 C 69.902344 55.28125 69.902344 54.175781 69.902344 53.03125 C 69.898438 51.285156 69.898438 51.285156 69.890625 49.5 C 69.894531 48.335938 69.898438 47.167969 69.902344 45.96875 C 69.902344 44.859375 69.902344 43.75 69.898438 42.609375 C 69.898438 41.074219 69.898438 41.074219 69.894531 39.507812 C 70.015625 37.140625 70.015625 37.140625 68.625 36 C 66 35.953125 63.375 35.953125 60.75 36 C 60.007812 34.515625 59.265625 33.03125 58.5 31.5 C 54.789062 31.5 51.074219 31.5 47.25 31.5 Z M 47.25 31.5 "/>
<path style=" stroke:none;fill-rule:nonzero;fill:rgb(0%,0%,0%);fill-opacity:1;" d="M 55.195312 37.714844 C 59.191406 38.695312 60.761719 40.519531 63 43.875 C 63.785156 47.070312 63.785156 49.679688 63 52.875 C 60.761719 56.230469 59.191406 58.054688 55.195312 59.035156 C 50.78125 59.355469 48.746094 58.746094 45 56.25 C 42.503906 52.503906 41.894531 50.46875 42.214844 46.054688 C 43.859375 39.359375 48.90625 37.261719 55.195312 37.714844 Z M 47.390625 42.890625 C 45.53125 45.992188 45.683594 48.207031 46.125 51.75 C 47.25 54 47.25 54 49.5 55.125 C 53.042969 55.566406 55.257812 55.71875 58.359375 53.859375 C 60.21875 50.757812 60.066406 48.542969 59.625 45 C 58.5 42.75 58.5 42.75 56.25 41.625 C 52.707031 41.183594 50.492188 41.03125 47.390625 42.890625 Z M 47.390625 42.890625 "/>
<path style=" stroke:none;fill-rule:nonzero;fill:rgb(0%,0%,0%);fill-opacity:1;" d="M 6.75 47.25 C 7.492188 47.25 8.234375 47.25 9 47.25 C 9 50.21875 9 53.191406 9 56.25 C 11.96875 56.25 14.941406 56.25 18 56.25 C 18 56.992188 18 57.734375 18 58.5 C 15.03125 58.5 12.058594 58.5 9 58.5 C 9 59.984375 9 61.46875 9 63 C 8.257812 63 7.515625 63 6.75 63 C 6.75 61.515625 6.75 60.03125 6.75 58.5 C 5.265625 58.5 3.78125 58.5 2.25 58.5 C 2.25 57.757812 2.25 57.015625 2.25 56.25 C 3.734375 56.25 5.21875 56.25 6.75 56.25 C 6.75 53.28125 6.75 50.308594 6.75 47.25 Z M 6.75 47.25 "/>
<path style=" stroke:none;fill-rule:nonzero;fill:rgb(0%,0%,0%);fill-opacity:1;" d="M 63 2.25 C 63.742188 2.25 64.484375 2.25 65.25 2.25 C 65.25 3.734375 65.25 5.21875 65.25 6.75 C 66.734375 6.75 68.21875 6.75 69.75 6.75 C 69.75 7.492188 69.75 8.234375 69.75 9 C 68.265625 9 66.78125 9 65.25 9 C 65.25 11.96875 65.25 14.941406 65.25 18 C 64.507812 18 63.765625 18 63 18 C 63 15.03125 63 12.058594 63 9 C 60.03125 9 57.058594 9 54 9 C 54 8.257812 54 7.515625 54 6.75 C 56.96875 6.75 59.941406 6.75 63 6.75 C 63 5.265625 63 3.78125 63 2.25 Z M 63 2.25 "/>
<path style=" stroke:none;fill-rule:nonzero;fill:rgb(0%,0%,0%);fill-opacity:1;" d="M 6.75 2.25 C 7.492188 2.25 8.234375 2.25 9 2.25 C 9 3.734375 9 5.21875 9 6.75 C 11.96875 6.75 14.941406 6.75 18 6.75 C 18 7.492188 18 8.234375 18 9 C 15.03125 9 12.058594 9 9 9 C 9 11.96875 9 14.941406 9 18 C 8.257812 18 7.515625 18 6.75 18 C 6.75 15.03125 6.75 12.058594 6.75 9 C 5.265625 9 3.78125 9 2.25 9 C 2.25 8.257812 2.25 7.515625 2.25 6.75 C 3.734375 6.75 5.21875 6.75 6.75 6.75 C 6.75 5.265625 6.75 3.78125 6.75 2.25 Z M 6.75 2.25 "/>
<path style=" stroke:none;fill-rule:nonzero;fill:rgb(0%,0%,0%);fill-opacity:1;" d="M 51.75 42.75 C 54.535156 43.308594 54.535156 43.308594 57.375 43.875 C 57.746094 45.359375 58.117188 46.84375 58.5 48.375 C 55.757812 47.460938 55.757812 47.460938 52.875 46.125 C 52.503906 45.011719 52.132812 43.898438 51.75 42.75 Z M 51.75 42.75 "/>
<path style=" stroke:none;fill-rule:nonzero;fill:rgb(0%,0%,0%);fill-opacity:1;" d="M 31.5 59.625 C 32.984375 59.625 34.46875 59.625 36 59.625 C 36 60.367188 36 61.109375 36 61.875 C 34.515625 61.875 33.03125 61.875 31.5 61.875 C 31.5 61.132812 31.5 60.390625 31.5 59.625 Z M 31.5 59.625 "/>
<path style=" stroke:none;fill-rule:nonzero;fill:rgb(0%,0%,0%);fill-opacity:1;" d="M 20.25 56.25 C 21.734375 56.25 23.21875 56.25 24.75 56.25 C 24.75 56.992188 24.75 57.734375 24.75 58.5 C 23.265625 58.5 21.78125 58.5 20.25 58.5 C 20.25 57.757812 20.25 57.015625 20.25 56.25 Z M 20.25 56.25 "/>
<path style=" stroke:none;fill-rule:nonzero;fill:rgb(0%,0%,0%);fill-opacity:1;" d="M 31.5 54 C 32.984375 54 34.46875 54 36 54 C 36 54.742188 36 55.484375 36 56.25 C 34.515625 56.25 33.03125 56.25 31.5 56.25 C 31.5 55.507812 31.5 54.765625 31.5 54 Z M 31.5 54 "/>
<path style=" stroke:none;fill-rule:nonzero;fill:rgb(0%,0%,0%);fill-opacity:1;" d="M 31.5 48.375 C 32.984375 48.375 34.46875 48.375 36 48.375 C 36 49.117188 36 49.859375 36 50.625 C 34.515625 50.625 33.03125 50.625 31.5 50.625 C 31.5 49.882812 31.5 49.140625 31.5 48.375 Z M 31.5 48.375 "/>
<path style=" stroke:none;fill-rule:nonzero;fill:rgb(0%,0%,0%);fill-opacity:1;" d="M 31.5 42.75 C 32.984375 42.75 34.46875 42.75 36 42.75 C 36 43.492188 36 44.234375 36 45 C 34.515625 45 33.03125 45 31.5 45 C 31.5 44.257812 31.5 43.515625 31.5 42.75 Z M 31.5 42.75 "/>
<path style=" stroke:none;fill-rule:nonzero;fill:rgb(0%,0%,0%);fill-opacity:1;" d="M 6.75 40.5 C 7.492188 40.5 8.234375 40.5 9 40.5 C 9 41.984375 9 43.46875 9 45 C 8.257812 45 7.515625 45 6.75 45 C 6.75 43.515625 6.75 42.03125 6.75 40.5 Z M 6.75 40.5 "/>
<path style=" stroke:none;fill-rule:nonzero;fill:rgb(0%,0%,0%);fill-opacity:1;" d="M 31.5 37.125 C 32.984375 37.125 34.46875 37.125 36 37.125 C 36 37.867188 36 38.609375 36 39.375 C 34.515625 39.375 33.03125 39.375 31.5 39.375 C 31.5 38.632812 31.5 37.890625 31.5 37.125 Z M 31.5 37.125 "/>
<path style=" stroke:none;fill-rule:nonzero;fill:rgb(0%,0%,0%);fill-opacity:1;" d="M 6.75 33.75 C 7.492188 33.75 8.234375 33.75 9 33.75 C 9 35.234375 9 36.71875 9 38.25 C 8.257812 38.25 7.515625 38.25 6.75 38.25 C 6.75 36.765625 6.75 35.28125 6.75 33.75 Z M 6.75 33.75 "/>
<path style=" stroke:none;fill-rule:nonzero;fill:rgb(0%,0%,0%);fill-opacity:1;" d="M 63 27 C 63.742188 27 64.484375 27 65.25 27 C 65.25 28.484375 65.25 29.96875 65.25 31.5 C 64.507812 31.5 63.765625 31.5 63 31.5 C 63 30.015625 63 28.53125 63 27 Z M 63 27 "/>
<path style=" stroke:none;fill-rule:nonzero;fill:rgb(0%,0%,0%);fill-opacity:1;" d="M 6.75 27 C 7.492188 27 8.234375 27 9 27 C 9 28.484375 9 29.96875 9 31.5 C 8.257812 31.5 7.515625 31.5 6.75 31.5 C 6.75 30.015625 6.75 28.53125 6.75 27 Z M 6.75 27 "/>
<path style=" stroke:none;fill-rule:nonzero;fill:rgb(0%,0%,0%);fill-opacity:1;" d="M 63 20.25 C 63.742188 20.25 64.484375 20.25 65.25 20.25 C 65.25 21.734375 65.25 23.21875 65.25 24.75 C 64.507812 24.75 63.765625 24.75 63 24.75 C 63 23.265625 63 21.78125 63 20.25 Z M 63 20.25 "/>
<path style=" stroke:none;fill-rule:nonzero;fill:rgb(0%,0%,0%);fill-opacity:1;" d="M 6.75 20.25 C 7.492188 20.25 8.234375 20.25 9 20.25 C 9 21.734375 9 23.21875 9 24.75 C 8.257812 24.75 7.515625 24.75 6.75 24.75 C 6.75 23.265625 6.75 21.78125 6.75 20.25 Z M 6.75 20.25 "/>
<path style=" stroke:none;fill-rule:nonzero;fill:rgb(0%,0%,0%);fill-opacity:1;" d="M 47.25 6.75 C 48.734375 6.75 50.21875 6.75 51.75 6.75 C 51.75 7.492188 51.75 8.234375 51.75 9 C 50.265625 9 48.78125 9 47.25 9 C 47.25 8.257812 47.25 7.515625 47.25 6.75 Z M 47.25 6.75 "/>
<path style=" stroke:none;fill-rule:nonzero;fill:rgb(0%,0%,0%);fill-opacity:1;" d="M 40.5 6.75 C 41.984375 6.75 43.46875 6.75 45 6.75 C 45 7.492188 45 8.234375 45 9 C 43.515625 9 42.03125 9 40.5 9 C 40.5 8.257812 40.5 7.515625 40.5 6.75 Z M 40.5 6.75 "/>
<path style=" stroke:none;fill-rule:nonzero;fill:rgb(0%,0%,0%);fill-opacity:1;" d="M 33.75 6.75 C 35.234375 6.75 36.71875 6.75 38.25 6.75 C 38.25 7.492188 38.25 8.234375 38.25 9 C 36.765625 9 35.28125 9 33.75 9 C 33.75 8.257812 33.75 7.515625 33.75 6.75 Z M 33.75 6.75 "/>
<path style=" stroke:none;fill-rule:nonzero;fill:rgb(0%,0%,0%);fill-opacity:1;" d="M 27 6.75 C 28.484375 6.75 29.96875 6.75 31.5 6.75 C 31.5 7.492188 31.5 8.234375 31.5 9 C 30.015625 9 28.53125 9 27 9 C 27 8.257812 27 7.515625 27 6.75 Z M 27 6.75 "/>
<path style=" stroke:none;fill-rule:nonzero;fill:rgb(0%,0%,0%);fill-opacity:1;" d="M 20.25 6.75 C 21.734375 6.75 23.21875 6.75 24.75 6.75 C 24.75 7.492188 24.75 8.234375 24.75 9 C 23.265625 9 21.78125 9 20.25 9 C 20.25 8.257812 20.25 7.515625 20.25 6.75 Z M 20.25 6.75 "/>
</g>
</svg>
