<?xml version="1.0" encoding="UTF-8"?>
<svg xmlns="http://www.w3.org/2000/svg" xmlns:xlink="http://www.w3.org/1999/xlink" width="72px" height="72px" viewBox="0 0 72 72" version="1.1">
<g id="surface1">
<path style=" stroke:none;fill-rule:nonzero;fill:rgb(0%,0%,0%);fill-opacity:1;" d="M 52.558594 5.128906 C 60.570312 9.976562 66.289062 17.011719 69.121094 25.921875 C 70.28125 37.214844 70.699219 48.371094 63.359375 57.601562 C 56.949219 64.375 50.84375 68.628906 41.371094 69.605469 C 29.457031 69.734375 20.757812 69.375 11.890625 60.984375 C 3.347656 51.628906 2.214844 43.402344 2.4375 30.886719 C 3.277344 21.46875 6.6875 15.839844 13.589844 9.539062 C 23.984375 0.90625 40.289062 -0.402344 52.558594 5.128906 Z M 12.421875 18.089844 C 5.851562 25.976562 6.304688 34.785156 7.199219 44.640625 C 9.679688 52.792969 16.195312 58.625 23.039062 63.359375 C 30.957031 66 40.273438 66.496094 48.132812 63.445312 C 55.757812 58.863281 61.335938 52.898438 64.800781 44.640625 C 66.144531 34.746094 65.761719 26.453125 59.761719 18.269531 C 54.335938 12.167969 49.246094 7.609375 40.792969 6.855469 C 27.898438 6.546875 21.214844 8.296875 12.421875 18.089844 Z M 12.421875 18.089844 "/>
<path style=" stroke:none;fill-rule:nonzero;fill:rgb(0%,0%,0%);fill-opacity:1;" d="M 18.71875 33.121094 C 30.125 33.121094 41.53125 33.121094 53.28125 33.121094 C 53.28125 44.738281 52.453125 50.523438 45 59.039062 C 40.082031 61.226562 35.460938 61.394531 30.238281 60.480469 C 23.414062 56.6875 21.042969 51.972656 18.71875 44.640625 C 18.71875 40.839844 18.71875 37.035156 18.71875 33.121094 Z M 23.039062 36 C 24.210938 48.398438 24.210938 48.398438 31.679688 56.160156 C 36 57.601562 36 57.601562 40.320312 56.160156 C 48.0625 49.277344 47.519531 47.515625 48.960938 36 C 40.40625 36 31.851562 36 23.039062 36 Z M 23.039062 36 "/>
<path style=" stroke:none;fill-rule:nonzero;fill:rgb(0%,0%,0%);fill-opacity:1;" d="M 48.148438 18.449219 C 53.28125 18.71875 53.28125 18.71875 56.160156 21.601562 C 56.160156 23.027344 56.160156 24.453125 56.160156 25.921875 C 54.734375 25.921875 53.308594 25.921875 51.839844 25.921875 C 51.839844 24.96875 51.839844 24.019531 51.839844 23.039062 C 49.464844 23.039062 47.089844 23.039062 44.640625 23.039062 C 44.640625 23.992188 44.640625 24.941406 44.640625 25.921875 C 43.214844 25.921875 41.789062 25.921875 40.320312 25.921875 C 41.929688 18.789062 41.929688 18.789062 48.148438 18.449219 Z M 48.148438 18.449219 "/>
<path style=" stroke:none;fill-rule:nonzero;fill:rgb(0%,0%,0%);fill-opacity:1;" d="M 23.671875 18.449219 C 28.800781 18.71875 28.800781 18.71875 31.679688 21.601562 C 31.679688 23.027344 31.679688 24.453125 31.679688 25.921875 C 30.253906 25.921875 28.828125 25.921875 27.359375 25.921875 C 27.359375 24.96875 27.359375 24.019531 27.359375 23.039062 C 24.984375 23.039062 22.609375 23.039062 20.160156 23.039062 C 20.160156 23.992188 20.160156 24.941406 20.160156 25.921875 C 18.734375 25.921875 17.308594 25.921875 15.839844 25.921875 C 17.449219 18.789062 17.449219 18.789062 23.671875 18.449219 Z M 23.671875 18.449219 "/>
</g>
</svg>
