<?xml version="1.0" encoding="UTF-8"?>
<svg version="1.1" xmlns="http://www.w3.org/2000/svg" width="72" height="72">
<path d="M0 0 C0 5.28 0 10.56 0 16 C-1.546875 16.4125 -3.09375 16.825 -4.6875 17.25 C-10.51417998 19.02763118 -13.72046891 20.82479715 -16.875 26.1875 C-18.64292251 32.17879293 -18.09204727 36.68485979 -15.4375 42.3125 C-11.04879605 47.15132743 -6.3227092 48.73545816 0 50 C0 55.28 0 60.56 0 66 C-6.64802916 67.66200729 -12.66241191 65.93853029 -18.6875 62.8125 C-27.0731628 57.71011258 -32.0140568 51.40386261 -35 42 C-37.00033994 31.76296617 -35.83915171 23.07441473 -30.46484375 14.1328125 C-25.06800456 6.27501463 -18.11121155 1.88584616 -8.87890625 -0.5625 C-5.48919279 -1.14567651 -3.40172416 -0.85043104 0 0 Z M-25.53125 14.0625 C-30.46672396 20.57312523 -32.29729114 27.88166497 -32 36 C-30.22277767 46.10977295 -25.14341301 52.94973442 -17 59 C-12.76073312 61.52400795 -8.94782854 62.36203623 -4 62 C-4 59.03 -4 56.06 -4 53 C-6.0728125 52.38125 -6.0728125 52.38125 -8.1875 51.75 C-13.11628055 50.05814586 -16.52674533 48.56525174 -19.22265625 43.87109375 C-22.04779728 37.75155098 -22.82579101 32.53440994 -21 26 C-18.41469269 19.82930766 -15.05122399 16.70143928 -9 14 C-6.0625 13.25 -6.0625 13.25 -4 13 C-4 10.03 -4 7.06 -4 4 C-12.3514309 2.90112751 -20.09262491 8.11079707 -25.53125 14.0625 Z " fill="#000000" transform="translate(38,3)"/>
<path d="M0 0 C11.22 0 22.44 0 34 0 C34 11.22 34 22.44 34 34 C28.06 34 22.12 34 16 34 C16 28.72 16 23.44 16 18 C10.72 18 5.44 18 0 18 C0 12.06 0 6.12 0 0 Z M4 4 C4 7.3 4 10.6 4 14 C8.95 14.33 13.9 14.66 19 15 C19.33 19.95 19.66 24.9 20 30 C23.3 30 26.6 30 30 30 C30 21.42 30 12.84 30 4 C21.42 4 12.84 4 4 4 Z " fill="#000000" transform="translate(34,27)"/>
</svg>
