<?xml version="1.0" encoding="UTF-8"?>
<svg version="1.1" xmlns="http://www.w3.org/2000/svg" width="72" height="72">
<path d="M0 0 C-0.44469329 5.03985731 -2.71343362 7.37634988 -6 11 C-4.68 11.99 -3.36 12.98 -2 14 C1.465 10.535 1.465 10.535 5 7 C5.99 7.33 6.98 7.66 8 8 C8.91473744 16.41897233 8.91473744 16.41897233 6.734375 20.1875 C1.89246781 25.82855692 1.89246781 25.82855692 -2.2421875 26.203125 C-3.54542969 26.22632813 -3.54542969 26.22632813 -4.875 26.25 C-6.17050781 26.28867187 -6.17050781 26.28867187 -7.4921875 26.328125 C-10.48225103 25.93690173 -11.83879275 25.07073811 -14 23 C-14 22.34 -14 21.68 -14 21 C-13.19175781 21.11859375 -12.38351563 21.2371875 -11.55078125 21.359375 C-4.91600562 22.30709257 -4.91600562 22.30709257 1.25 20.25 C3.30697031 18.08039699 3.30697031 18.08039699 3 15 C2.13375 16.0209375 2.13375 16.0209375 1.25 17.0625 C0.5075 17.701875 -0.235 18.34125 -1 19 C-4.24118374 18.65951201 -6.01954466 17.43493762 -8.3125 15.1875 C-8.84488281 14.68605469 -9.37726562 14.18460938 -9.92578125 13.66796875 C-11 12 -11 12 -10.796875 9.94140625 C-9.73072898 7.34398188 -8.06305267 5.86340241 -6 4 C-8.99823432 4.32413344 -10.56765161 4.55274305 -12.69921875 6.7578125 C-14.28905667 9.49825383 -14.01943629 10.55832803 -13.5 13.625 C-13.30952526 17.6249696 -13.78972172 18.75197946 -16.4375 21.875 C-19.15797801 24.42344254 -22.03770266 26.7398056 -25 29 C-24.67 29.66 -24.34 30.32 -24 31 C-21.72707059 29.98110061 -20.16975439 29.19097369 -18.5 27.3125 C-17 26 -17 26 -15.29296875 26.078125 C-11.85862218 27.45888444 -9.45802176 29.9260095 -6.8125 32.4375 C-6.26658203 32.94087891 -5.72066406 33.44425781 -5.15820312 33.96289062 C-0.14806792 38.63777515 -0.14806792 38.63777515 0.3125 42.875 C-0 46 -0 46 -1.6875 48.3125 C-4.3107812 50.22678628 -5.7521338 50.92078375 -9 51 C-13.9260647 48.92586749 -17.3655575 44.7992283 -21 41 C-21.66 40.34 -22.32 39.68 -23 39 C-23.78503906 39.86625 -24.57007812 40.7325 -25.37890625 41.625 C-26.43913838 42.75091023 -27.50039066 43.87586043 -28.5625 45 C-29.07619141 45.57234375 -29.58988281 46.1446875 -30.11914062 46.734375 C-33.10893738 49.85416291 -34.33264081 50.92140605 -38.78125 51.4453125 C-42 51 -42 51 -43.9375 49.875 C-45.63262266 46.88360708 -45.64407189 45.41358101 -45 42 C-42.21771431 37.9551645 -39.04079788 34.71554854 -35 31.9375 C-32.63727072 30.07755175 -32.63727072 30.07755175 -32.75 26.6875 C-34.39484184 21.83521657 -36.9750537 19.10202867 -41 16 C-41.886875 15.67 -42.77375 15.34 -43.6875 15 C-47.50594845 13.34877905 -48.37636412 10.76683525 -50 7 C-49.38242985 4.14373805 -48.55975247 3.37634421 -46.1640625 1.765625 C-44 1 -44 1 -41.9296875 1.72265625 C-37.6750189 4.49708844 -35.67317578 6.09998521 -34 11 C-31.08783418 14.6226641 -28.67509376 17.14998295 -24 18 C-24.33 19.32 -24.66 20.64 -25 22 C-26.32 22 -27.64 22 -29 22 C-29 23.32 -29 24.64 -29 26 C-22.10259211 21.87691604 -22.10259211 21.87691604 -18.2890625 15.23046875 C-18.22184638 13.34066169 -18.18364943 11.44957943 -18.17578125 9.55859375 C-17.98618456 6.79890867 -17.54459322 5.60532104 -15.875 3.4375 C-10.8214023 -0.84707196 -6.36217335 -1.5517496 0 0 Z M-45 5 C-45.33 5.66 -45.66 6.32 -46 7 C-44.89858275 9.69694835 -44.89858275 9.69694835 -43 12 C-41.68 12 -40.36 12 -39 12 C-39.10613836 9.54775306 -39.10613836 9.54775306 -40 7 C-42.47636012 5.62533375 -42.47636012 5.62533375 -45 5 Z M-16 30 C-17.32 31.32 -18.64 32.64 -20 34 C-18.67256644 37.88699777 -17.0660214 40.38994768 -14.1875 43.3125 C-13.18783203 44.35857422 -13.18783203 44.35857422 -12.16796875 45.42578125 C-9.56530902 47.31564048 -8.14565576 47.32389824 -5 47 C-4.34 45.35 -3.68 43.7 -3 42 C-6.87792288 37.07091854 -10.76116833 33.4576289 -16 30 Z M-35.5625 36.75 C-36.06974609 37.1934375 -36.57699219 37.636875 -37.09960938 38.09375 C-39.19350971 39.98969172 -40.82319355 41.59628002 -41.96484375 44.203125 C-41.97644531 44.79609375 -41.98804688 45.3890625 -42 46 C-41.34 46.66 -40.68 47.32 -40 48 C-36.24015986 47.94177239 -34.25384707 45.56783026 -31.73828125 43.00195312 C-31.24714844 42.48568359 -30.75601562 41.96941406 -30.25 41.4375 C-29.74339844 40.91736328 -29.23679687 40.39722656 -28.71484375 39.86132812 C-27.46965595 38.58089916 -26.23388498 37.29132446 -25 36 C-26.36323743 33.9600281 -26.36323743 33.9600281 -28 32 C-31.30534001 32 -33.23020012 34.62375478 -35.5625 36.75 Z " fill="#FFFFFF" transform="translate(58,12)"/>
</svg>
