<?xml version="1.0" encoding="UTF-8"?>
<svg version="1.1" xmlns="http://www.w3.org/2000/svg" width="72" height="72">
<path d="M0 0 C6.36345279 5.35159634 10.0233518 11.56645023 11.1875 19.8125 C11.96650677 29.47218395 9.39574519 37.39812651 3.140625 44.8359375 C-3.10486622 51.15637461 -10.00723766 53.42497884 -18.6875 54.125 C-27.92384243 53.79964939 -35.27588544 50.27160529 -41.8125 43.8125 C-47.02984132 37.44988864 -49.34477791 30.17675078 -49.0546875 21.94140625 C-47.99799721 12.65275773 -44.13322577 5.17549513 -36.859375 -0.7890625 C-25.39907986 -8.50445805 -11.1508878 -8.11310442 0 0 Z M-32.3125 13.3125 C-34.06417744 15.66181996 -34.06417744 15.66181996 -33.5625 18.125 C-33.315 18.681875 -33.0675 19.23875 -32.8125 19.8125 C-32.1525 19.8125 -31.4925 19.8125 -30.8125 19.8125 C-30.19375 18.86375 -29.575 17.915 -28.9375 16.9375 C-26.81600348 13.81765218 -26.16956464 13.09196202 -22.8125 11.8125 C-20.55859375 11.546875 -20.55859375 11.546875 -18.25 11.5625 C-17.48558594 11.55734375 -16.72117187 11.5521875 -15.93359375 11.546875 C-13.8125 11.8125 -13.8125 11.8125 -10.8125 13.8125 C-11.8025 15.2975 -11.8025 15.2975 -12.8125 16.8125 C-7.8625 18.7925 -7.8625 18.7925 -2.8125 20.8125 C-2.8125 17.1825 -2.8125 13.5525 -2.8125 9.8125 C-4.4625 9.8125 -6.1125 9.8125 -7.8125 9.8125 C-8.534375 9.3175 -9.25625 8.8225 -10 8.3125 C-18.25657264 3.90899459 -26.12617081 7.12617081 -32.3125 13.3125 Z M-34.8125 26.8125 C-34.8125 30.4425 -34.8125 34.0725 -34.8125 37.8125 C-33.1625 37.8125 -31.5125 37.8125 -29.8125 37.8125 C-29.090625 38.3075 -28.36875 38.8025 -27.625 39.3125 C-23.3987087 41.56652202 -19.50390814 41.47222927 -14.8125 40.8125 C-10.0310872 39.12813867 -6.42316925 36.16361541 -3.8125 31.8125 C-3.93813582 29.54825649 -3.93813582 29.54825649 -4.8125 27.8125 C-5.4725 27.8125 -6.1325 27.8125 -6.8125 27.8125 C-7.43125 28.76125 -8.05 29.71 -8.6875 30.6875 C-10.80899652 33.80734782 -11.45543536 34.53303798 -14.8125 35.8125 C-17.06640625 36.078125 -17.06640625 36.078125 -19.375 36.0625 C-20.52162109 36.07023437 -20.52162109 36.07023437 -21.69140625 36.078125 C-23.8125 35.8125 -23.8125 35.8125 -26.8125 33.8125 C-26.1525 32.8225 -25.4925 31.8325 -24.8125 30.8125 C-29.7625 28.8325 -29.7625 28.8325 -34.8125 26.8125 Z " fill="#FFFFFF" transform="translate(54.8125,12.1875)"/>
</svg>
