<?xml version="1.0" encoding="UTF-8"?>
<svg version="1.1" xmlns="http://www.w3.org/2000/svg" width="72" height="72">
<path d="M0 0 C4.94121254 0.40372252 6.65309243 2.46029138 9.8125 6.125 C13.53331508 10.26935045 13.53331508 10.26935045 18.8125 11.125 C19.45316406 10.9496875 20.09382813 10.774375 20.75390625 10.59375 C30.37183234 8.05127215 39.54127926 10.19285816 48 15 C53.48393178 18.79892481 58.44024017 23.13625618 63 28 C61.46518706 31.80668295 59.13477919 33.8962489 56.0625 36.5625 C51.92587532 40.16935634 51.92587532 40.16935634 48 44 C48.721875 44.67546875 49.44375 45.3509375 50.1875 46.046875 C51.115625 46.93890625 52.04375 47.8309375 53 48.75 C53.928125 49.63171875 54.85625 50.5134375 55.8125 51.421875 C58 54 58 54 58 58 C53.10162384 57.56287666 50.98946946 55.49534218 47.56713867 52.0847168 C46.79063461 51.31872665 46.79063461 51.31872665 45.9984436 50.53726196 C44.29476896 48.85115374 42.60609844 47.15088 40.91796875 45.44921875 C39.73742637 44.27137124 38.55629077 43.09411802 37.37458801 41.91743469 C34.90275119 39.45149076 32.43828368 36.97846727 29.97875977 34.50024414 C26.8234998 31.32217016 23.65058888 28.16242425 20.47196484 25.00773907 C18.03096223 22.58117848 15.59955233 20.14518623 13.17095375 17.70621681 C12.00447619 16.53706887 10.83501427 15.37089071 9.6625576 14.20773888 C8.02713231 12.58245525 6.40505145 10.94493059 4.78588867 9.3034668 C3.85943039 8.37382614 2.93297211 7.44418549 1.97843933 6.4863739 C0 4 0 4 0 0 Z M20 17 C24.25677827 22.0569486 24.25677827 22.0569486 30.375 23.875 C31.57125 23.91625 32.7675 23.9575 34 24 C34.020625 25.19625 34.04125 26.3925 34.0625 27.625 C34.49852132 31.45381221 35.6312659 33.0297261 38.5625 35.5 C39.69239945 36.35481326 40.83345948 37.19590941 42 38 C44.63433646 33.42679191 44.65323951 29.16059216 44 24 C41.67031069 19.16141452 38.83858548 16.32968931 34 14 C28.35398526 13.20491248 24.42525954 13.15593815 20 17 Z M46 20 C46.16242187 20.556875 46.32484375 21.11375 46.4921875 21.6875 C47.04222447 24.19228372 47.13281256 26.437481 47.125 29 C47.12757812 29.845625 47.13015625 30.69125 47.1328125 31.5625 C47.00833711 33.84698944 46.63877457 35.80991574 46 38 C48.99220268 36.63629701 51.29026529 35.05091917 53.75 32.875 C54.36359375 32.33617187 54.9771875 31.79734375 55.609375 31.2421875 C56.06828125 30.83226562 56.5271875 30.42234375 57 30 C55.63088196 26.8510285 54.1247864 24.9521513 51.5 22.75 C50.8915625 22.22921875 50.283125 21.7084375 49.65625 21.171875 C48.06604179 19.80747003 48.06604179 19.80747003 46 20 Z " fill="#000000" transform="translate(7,7)"/>
<path d="M0 0 C2.08121374 1.5955972 3.42476052 3.26214077 4.875 5.4375 C4.545 6.0975 4.215 6.7575 3.875 7.4375 C3.32855962 12.41816973 3.33295325 16.3333307 5.5625 20.875 C8.61695399 24.25966523 10.63200676 26.24339482 15.3125 26.6484375 C19.12922172 26.70391311 22.23266308 26.65161231 25.875 25.4375 C26.865 26.7575 27.855 28.0775 28.875 29.4375 C22.98201062 32.9874936 15.47715759 32.20144752 8.96484375 30.8203125 C-0.9717069 27.58914639 -9.10372918 21.02806305 -16.125 13.4375 C-13.79055827 8.2051306 -6.42064341 -1.69958208 0 0 Z M-5.75 7.4375 C-6.97589844 8.55125 -6.97589844 8.55125 -8.2265625 9.6875 C-8.85304688 10.265 -9.47953125 10.8425 -10.125 11.4375 C-8.74311547 14.64793882 -7.20078097 16.48686365 -4.5 18.6875 C-3.55253906 19.46867187 -3.55253906 19.46867187 -2.5859375 20.265625 C-2.10382812 20.65234375 -1.62171875 21.0390625 -1.125 21.4375 C-0.465 21.1075 0.195 20.7775 0.875 20.4375 C0.545 19.4475 0.215 18.4575 -0.125 17.4375 C-0.21829934 15.79378509 -0.25495144 14.14635323 -0.25 12.5 C-0.25257812 11.64535156 -0.25515625 10.79070313 -0.2578125 9.91015625 C-0.13430254 7.61069148 0.23079313 5.64109652 0.875 3.4375 C-2.23410487 3.4375 -3.504834 5.3847768 -5.75 7.4375 Z " fill="#000000" transform="translate(18.125,23.5625)"/>
<path d="M0 0 C1.98 1.65 3.96 3.3 6 5 C5.01 5.33 4.02 5.66 3 6 C1.5 4.6875 1.5 4.6875 0 3 C0 2.01 0 1.02 0 0 Z " fill="#000000" transform="translate(30,36)"/>
</svg>
