<?xml version="1.0" encoding="UTF-8"?>
<svg version="1.1" xmlns="http://www.w3.org/2000/svg" width="72" height="72">
<path d="M0 0 C5.27615253 3.82521059 8.60698478 8.02646956 11.5 13.8125 C12.36944624 22.46970047 11.64473459 28.70174184 6.5 35.8125 C7.46099609 35.90724609 7.46099609 35.90724609 8.44140625 36.00390625 C15.44825282 36.99593371 19.17722782 39.2074376 23.5 44.8125 C24.88125018 47.57500036 24.69079306 49.75981099 24.5 52.8125 C22.5 54.8125 22.5 54.8125 19.875 55.375 C14.83191909 54.53448651 11.95376042 51.44517144 8.5 47.8125 C5.93383368 43.96325052 5.94902324 41.3775696 5.5 36.8125 C5.00113281 37.1734375 4.50226562 37.534375 3.98828125 37.90625 C-2.66326489 42.20527444 -8.6885831 43.14592589 -16.5 41.8125 C-22.85485039 39.3165601 -27.38965861 35.89795055 -30.5 29.8125 C-32.59459207 23.5287238 -32.6958848 15.50309057 -30 9.375 C-23.73739752 -1.21979702 -11.16240309 -3.78724391 0 0 Z M-23.8125 9.3125 C-24.369375 10.1375 -24.92625 10.9625 -25.5 11.8125 C-26.11875 12.7096875 -26.11875 12.7096875 -26.75 13.625 C-28.50655242 18.74827788 -28.03258995 23.24481493 -25.8125 28.0625 C-22.98057087 33.14800654 -19.11403838 36.20848903 -13.5 37.8125 C-7.53697836 38.48755905 -3.38814825 37.09256462 1.5 33.8125 C5.43057819 29.77848554 7.24338292 26.07928421 7.875 20.5 C7.28295233 14.67819791 5.24568224 10.47089812 1 6.4375 C-7.93782964 0.62791074 -16.38400077 1.28169003 -23.8125 9.3125 Z M11.5 41.8125 C13.05603771 45.63186528 15.45604931 48.07294438 18.5 50.8125 C19.16 50.8125 19.82 50.8125 20.5 50.8125 C18.94396229 46.99313472 16.54395069 44.55205562 13.5 41.8125 C12.84 41.8125 12.18 41.8125 11.5 41.8125 Z " fill="#000000" transform="translate(39.5,9.1875)"/>
<path d="M0 0 C0.33 0.99 0.66 1.98 1 3 C0.67 3.66 0.34 4.32 0 5 C-1.6396875 5.4021875 -1.6396875 5.4021875 -3.3125 5.8125 C-7.54224847 7.17462239 -8.67402298 8.29566623 -11 12 C-12.24016669 14.6794645 -12.24016669 14.6794645 -13 17 C-14.32 16.67 -15.64 16.34 -17 16 C-16.43441707 10.80587103 -15.65977663 7.04230925 -11.625 3.5 C-7.77467107 0.44687573 -4.89688424 0 0 0 Z " fill="#000000" transform="translate(31,14)"/>
<path d="M0 0 C1.32 0 2.64 0 4 0 C3.67 1.32 3.34 2.64 3 4 C2.01 4 1.02 4 0 4 C0 2.68 0 1.36 0 0 Z " fill="#000000" transform="translate(18,36)"/>
</svg>
