<?xml version="1.0" encoding="UTF-8"?>
<svg version="1.1" xmlns="http://www.w3.org/2000/svg" width="72" height="72">
<path d="M0 0 C0 3.96 0 7.92 0 12 C1.05058594 11.96519531 2.10117187 11.93039063 3.18359375 11.89453125 C13.6572307 11.64744676 22.54752417 11.71614254 30.55859375 19.35546875 C35.42904479 24.91227061 35.54452246 30.70455669 35.33984375 37.84375 C34.74459694 43.37201924 33.16811402 47.01074448 29.05859375 50.78125 C23.47392641 55.14202155 19.36171421 56.14741218 12.3125 56.0625 C8.6928125 56.0315625 8.6928125 56.0315625 5 56 C5 51.05 5 46.1 5 41 C7.76692708 40.83723958 10.53385417 40.67447917 13.30078125 40.51171875 C15.99987298 40.19291603 15.99987298 40.19291603 17.8671875 38.68359375 C19.35519625 36.83582143 19.35519625 36.83582143 18.8125 33.375 C18.544375 32.26125 18.27625 31.1475 18 30 C14.828262 28.414131 11.36486178 28.62133555 7.875 28.4375 C6.74384766 28.37272461 6.74384766 28.37272461 5.58984375 28.30664062 C3.72678112 28.2005168 1.86341476 28.09974999 0 28 C0 31.96 0 35.92 0 40 C-7.15801225 34.17371096 -13.52591766 27.5617015 -20 21 C-18.5450489 17.65215892 -16.70194509 15.45622627 -14.12109375 12.890625 C-13.36505859 12.13652344 -12.60902344 11.38242187 -11.83007812 10.60546875 C-11.04052734 9.82816406 -10.25097656 9.05085938 -9.4375 8.25 C-8.64408203 7.45722656 -7.85066406 6.66445312 -7.03320312 5.84765625 C-1.14025522 0 -1.14025522 0 0 0 Z M-5.72265625 9.625 C-6.83846648 10.74749173 -7.95162666 11.87262226 -9.0625 13 C-9.63033203 13.57234375 -10.19816406 14.1446875 -10.78320312 14.734375 C-12.19103589 16.15403829 -13.59580248 17.57674097 -15 19 C-13.41379873 22.87939509 -10.90079013 25.33361087 -7.9375 28.25 C-7.03902344 29.14203125 -6.14054687 30.0340625 -5.21484375 30.953125 C-3.38023731 33.11311839 -3.38023731 33.11311839 -2 33 C-2 30.36 -2 27.72 -2 25 C1.08439243 25.08109748 4.16683912 25.19391689 7.25 25.3125 C8.12269531 25.33505859 8.99539062 25.35761719 9.89453125 25.38085938 C16.31444349 25.65039768 16.31444349 25.65039768 19.55078125 27.30078125 C21.98325873 30.15287749 22.13357766 33.40043347 22 37 C21.25 39.875 21.25 39.875 19 42 C15.36901171 43.02138257 11.74368516 43.57414787 8 44 C8 46.31 8 48.62 8 51 C9.485 50.505 9.485 50.505 11 50 C11 50.99 11 51.98 11 53 C9.515 52.505 9.515 52.505 8 52 C8 52.66 8 53.32 8 54 C10.64 54 13.28 54 16 54 C15.67 53.34 15.34 52.68 15 52 C13.515 52.495 13.515 52.495 12 53 C12 52.01 12 51.02 12 50 C13.98 50 15.96 50 18 50 C17.67 50.99 17.34 51.98 17 53 C20.93075644 52.42547254 20.93075644 52.42547254 24 50 C23.34 50 22.68 50 22 50 C22 49.01 22 48.02 22 47 C22.66 47 23.32 47 24 47 C24 46.34 24 45.68 24 45 C24.66 45 25.32 45 26 45 C26 44.34 26 43.68 26 43 C26.99 43 27.98 43 29 43 C29.33 43.66 29.66 44.32 30 45 C30.33 44.01 30.66 43.02 31 42 C30.01 42 29.02 42 28 42 C28 41.34 28 40.68 28 40 C29.32 40.33 30.64 40.66 32 41 C31.67 40.01 31.34 39.02 31 38 C30.01 38.495 30.01 38.495 29 39 C29 37.02 29 35.04 29 33 C29.99 33 30.98 33 32 33 C31.67 34.32 31.34 35.64 31 37 C31.66 37 32.32 37 33 37 C33 35.35 33 33.7 33 32 C31.68 32 30.36 32 29 32 C29 31.34 29 30.68 29 30 C29.99 30 30.98 30 32 30 C31.505 29.01 31.505 29.01 31 28 C30.01 28.33 29.02 28.66 28 29 C28.66 27.35 29.32 25.7 30 24 C27.19195732 21.03595495 24.81684226 18.55500981 21 17 C21 17.99 21 18.98 21 20 C20.34 20 19.68 20 19 20 C19.33 18.68 19.66 17.36 20 16 C19.34 16 18.68 16 18 16 C18 16.99 18 17.98 18 19 C15.5625 18.625 15.5625 18.625 13 18 C12.67 17.34 12.34 16.68 12 16 C13.32 16.33 14.64 16.66 16 17 C16.33 16.34 16.66 15.68 17 15 C10.73 15 4.46 15 -2 15 C-2 12.36 -2 9.72 -2 7 C-3.51034914 6.8843203 -3.51034914 6.8843203 -5.72265625 9.625 Z M27 45 C27.33 45.66 27.66 46.32 28 47 C28.33 46.34 28.66 45.68 29 45 C28.34 45 27.68 45 27 45 Z M24 48 C24.33 48.66 24.66 49.32 25 50 C25.33 49.34 25.66 48.68 26 48 C25.34 48 24.68 48 24 48 Z " fill="#000000" transform="translate(28,7)"/>
<path d="M0 0 C1.98 0 3.96 0 6 0 C6 0.99 6 1.98 6 3 C4.02 3 2.04 3 0 3 C0 2.01 0 1.02 0 0 Z " fill="#000000" transform="translate(33,23)"/>
<path d="M0 0 C0.66 0 1.32 0 2 0 C2 0.66 2 1.32 2 2 C2.99 2 3.98 2 5 2 C4.67 2.99 4.34 3.98 4 5 C2.68 4.34 1.36 3.68 0 3 C0 2.01 0 1.02 0 0 Z " fill="#000000" transform="translate(50,26)"/>
<path d="M0 0 C0.99 0 1.98 0 3 0 C2.67 0.99 2.34 1.98 2 3 C1.34 2.67 0.68 2.34 0 2 C0 1.34 0 0.68 0 0 Z " fill="#000000" transform="translate(29,23)"/>
<path d="M0 0 C0.66 0 1.32 0 2 0 C2 0.99 2 1.98 2 3 C1.01 2.67 0.02 2.34 -1 2 C-0.67 1.34 -0.34 0.68 0 0 Z " fill="#000000" transform="translate(20,20)"/>
<path d="M0 0 C0.99 0 1.98 0 3 0 C3 0.66 3 1.32 3 2 C2.01 2 1.02 2 0 2 C0 1.34 0 0.68 0 0 Z " fill="#000000" transform="translate(54,31)"/>
<path d="M0 0 C0.99 0 1.98 0 3 0 C3 0.66 3 1.32 3 2 C2.01 2 1.02 2 0 2 C0 1.34 0 0.68 0 0 Z " fill="#000000" transform="translate(14,26)"/>
<path d="M0 0 C0.66 0 1.32 0 2 0 C2 0.99 2 1.98 2 3 C1.34 3 0.68 3 0 3 C0 2.01 0 1.02 0 0 Z " fill="#000000" transform="translate(17,23)"/>
<path d="M0 0 C0.99 0 1.98 0 3 0 C3 0.66 3 1.32 3 2 C2.01 2 1.02 2 0 2 C0 1.34 0 0.68 0 0 Z " fill="#000000" transform="translate(22,18)"/>
<path d="M0 0 C0.66 0 1.32 0 2 0 C2 0.66 2 1.32 2 2 C1.34 2 0.68 2 0 2 C0 1.34 0 0.68 0 0 Z " fill="#000000" transform="translate(47,56)"/>
</svg>
