<?xml version="1.0" encoding="UTF-8"?>
<svg version="1.1" xmlns="http://www.w3.org/2000/svg" width="72" height="72">
<path d="M0 0 C1.1446875 0.00386719 2.289375 0.00773437 3.46875 0.01171875 C6.5 0.3125 6.5 0.3125 9.5 2.3125 C9.77668225 4.90676798 9.87295242 7.22513646 9.8125 9.8125 C9.81733398 10.84697266 9.81733398 10.84697266 9.82226562 11.90234375 C9.76712592 17.04537408 9.76712592 17.04537408 7.5 19.3125 C4.95151644 19.53753811 2.54736331 19.63690357 0 19.625 C-0.68964844 19.64111328 -1.37929688 19.65722656 -2.08984375 19.67382812 C-4.09375 19.67578125 -4.09375 19.67578125 -7.5 19.3125 C-9.87184142 15.75473788 -9.79824394 14.03229393 -9.8125 9.8125 C-9.82925781 8.6678125 -9.84601562 7.523125 -9.86328125 6.34375 C-9.5 3.3125 -9.5 3.3125 -8.38671875 1.42578125 C-5.57623783 -0.23257706 -3.23434311 -0.04734962 0 0 Z M-5.5 4.3125 C-5.5 7.9425 -5.5 11.5725 -5.5 15.3125 C-1.87 15.3125 1.76 15.3125 5.5 15.3125 C5.5 11.6825 5.5 8.0525 5.5 4.3125 C1.87 4.3125 -1.76 4.3125 -5.5 4.3125 Z " fill="#000000" transform="translate(57.5,47.6875)"/>
<path d="M0 0 C1.1446875 -0.01675781 2.289375 -0.03351562 3.46875 -0.05078125 C6.5 0.3125 6.5 0.3125 8.38671875 1.42578125 C10.04507706 4.23626217 9.85984962 6.57815689 9.8125 9.8125 C9.80863281 10.9571875 9.80476563 12.101875 9.80078125 13.28125 C9.5 16.3125 9.5 16.3125 7.5 19.3125 C4.90573202 19.58918225 2.58736354 19.68545242 0 19.625 C-0.68964844 19.62822266 -1.37929687 19.63144531 -2.08984375 19.63476562 C-7.23287408 19.57962592 -7.23287408 19.57962592 -9.5 17.3125 C-9.72503811 14.76401644 -9.82440357 12.35986331 -9.8125 9.8125 C-9.82861328 9.12285156 -9.84472656 8.43320312 -9.86132812 7.72265625 C-9.86328125 5.71875 -9.86328125 5.71875 -9.5 2.3125 C-5.94223788 -0.05934142 -4.21979393 0.01425606 0 0 Z M-5.5 4.3125 C-5.5 7.9425 -5.5 11.5725 -5.5 15.3125 C-1.87 15.3125 1.76 15.3125 5.5 15.3125 C5.5 11.6825 5.5 8.0525 5.5 4.3125 C1.87 4.3125 -1.76 4.3125 -5.5 4.3125 Z " fill="#000000" transform="translate(14.5,47.6875)"/>
<path d="M0 0 C2.59426798 -0.27668225 4.91263646 -0.37295242 7.5 -0.3125 C8.18964844 -0.31572266 8.87929688 -0.31894531 9.58984375 -0.32226562 C14.73287408 -0.26712592 14.73287408 -0.26712592 17 2 C17.22503811 4.54848356 17.32440357 6.95263669 17.3125 9.5 C17.32861328 10.18964844 17.34472656 10.87929687 17.36132812 11.58984375 C17.36328125 13.59375 17.36328125 13.59375 17 17 C13.44223788 19.37184142 11.71979393 19.29824394 7.5 19.3125 C5.78296875 19.33763672 5.78296875 19.33763672 4.03125 19.36328125 C1 19 1 19 -0.88671875 17.88671875 C-2.54507706 15.07623783 -2.35984962 12.73434311 -2.3125 9.5 C-2.30863281 8.3553125 -2.30476563 7.210625 -2.30078125 6.03125 C-2 3 -2 3 0 0 Z M2 4 C2 7.63 2 11.26 2 15 C5.63 15 9.26 15 13 15 C13 11.37 13 7.74 13 4 C9.37 4 5.74 4 2 4 Z " fill="#000000" transform="translate(50,5)"/>
<path d="M0 0 C1.03447266 0.00483398 1.03447266 0.00483398 2.08984375 0.00976562 C2.77949219 -0.00634766 3.46914062 -0.02246094 4.1796875 -0.0390625 C6.18359375 -0.04101562 6.18359375 -0.04101562 9.58984375 0.32226562 C11.96168517 3.88002775 11.88808769 5.6024717 11.90234375 9.82226562 C11.91910156 10.96695312 11.93585937 12.11164062 11.953125 13.29101562 C11.58984375 16.32226563 11.58984375 16.32226563 10.4765625 18.20898438 C7.66608158 19.86734268 5.32418686 19.68211524 2.08984375 19.63476562 C0.94515625 19.63089844 -0.19953125 19.62703125 -1.37890625 19.62304688 C-4.41015625 19.32226562 -4.41015625 19.32226562 -7.41015625 17.32226562 C-7.6868385 14.72799765 -7.78310867 12.40962917 -7.72265625 9.82226562 C-7.72587891 9.13261719 -7.72910156 8.44296875 -7.73242188 7.73242188 C-7.66392271 1.34331814 -6.38910373 0.06849916 0 0 Z M-3.41015625 4.32226562 C-3.41015625 7.95226563 -3.41015625 11.58226563 -3.41015625 15.32226562 C0.21984375 15.32226562 3.84984375 15.32226562 7.58984375 15.32226562 C7.58984375 11.69226562 7.58984375 8.06226562 7.58984375 4.32226562 C3.95984375 4.32226562 0.32984375 4.32226562 -3.41015625 4.32226562 Z " fill="#000000" transform="translate(12.41015625,4.677734375)"/>
<path d="M0 0 C1.12535156 0.00580078 1.12535156 0.00580078 2.2734375 0.01171875 C3.02367187 0.00785156 3.77390625 0.00398438 4.546875 0 C10.14682697 0.01010822 10.14682697 0.01010822 11.2734375 1.13671875 C11.37324964 3.81403255 11.41223625 6.4597605 11.3984375 9.13671875 C11.40423828 10.26207031 11.40423828 10.26207031 11.41015625 11.41015625 C11.40004803 17.01010822 11.40004803 17.01010822 10.2734375 18.13671875 C7.5961237 18.23653089 4.95039575 18.2755175 2.2734375 18.26171875 C1.14808594 18.26751953 1.14808594 18.26751953 0 18.2734375 C-5.59995197 18.26332928 -5.59995197 18.26332928 -6.7265625 17.13671875 C-6.82637464 14.45940495 -6.86536125 11.813677 -6.8515625 9.13671875 C-6.85542969 8.38648438 -6.85929687 7.63625 -6.86328125 6.86328125 C-6.8512779 0.21342273 -6.64985852 0.01200335 0 0 Z M-2.7265625 4.13671875 C-2.7265625 7.43671875 -2.7265625 10.73671875 -2.7265625 14.13671875 C0.5734375 14.13671875 3.8734375 14.13671875 7.2734375 14.13671875 C7.2734375 10.83671875 7.2734375 7.53671875 7.2734375 4.13671875 C3.9734375 4.13671875 0.6734375 4.13671875 -2.7265625 4.13671875 Z " fill="#000000" transform="translate(33.7265625,26.86328125)"/>
<path d="M0 0 C2.62561109 -0.08074203 5.24875676 -0.1403623 7.875 -0.1875 C8.99455078 -0.22520508 8.99455078 -0.22520508 10.13671875 -0.26367188 C12.3046875 -0.29296875 12.3046875 -0.29296875 16 0 C18.30821663 3.46232494 18.27000989 4.91798316 18.25 9 C18.25515625 10.051875 18.2603125 11.10375 18.265625 12.1875 C18 15 18 15 16 18 C13.2114711 18.22107787 10.65346819 18.28107535 7.875 18.1875 C6.74384766 18.16719727 6.74384766 18.16719727 5.58984375 18.14648438 C3.72625873 18.11109985 1.86304022 18.05729167 0 18 C-1.48619895 15.02760209 -1.13177009 12.30380422 -1.125 9 C-1.12757813 7.741875 -1.13015625 6.48375 -1.1328125 5.1875 C-1 2 -1 2 0 0 Z M3 4 C3 7.3 3 10.6 3 14 C6.63 14 10.26 14 14 14 C14 10.7 14 7.4 14 4 C10.37 4 6.74 4 3 4 Z " fill="#000000" transform="translate(6,27)"/>
<path d="M0 0 C1.8871875 -0.00386719 1.8871875 -0.00386719 3.8125 -0.0078125 C7 0.125 7 0.125 9 1.125 C9.08074203 3.75061109 9.1403623 6.37375676 9.1875 9 C9.21263672 9.74636719 9.23777344 10.49273437 9.26367188 11.26171875 C9.29296875 13.4296875 9.29296875 13.4296875 9 17.125 C5.53767506 19.43321663 4.08201684 19.39500989 0 19.375 C-1.051875 19.38015625 -2.10375 19.3853125 -3.1875 19.390625 C-6 19.125 -6 19.125 -9 17.125 C-9.22107787 14.3364711 -9.28107535 11.77846819 -9.1875 9 C-9.17396484 8.24589844 -9.16042969 7.49179688 -9.14648438 6.71484375 C-9.11109985 4.85125873 -9.05729167 2.98804022 -9 1.125 C-6.02760209 -0.36119895 -3.30380422 -0.00677009 0 0 Z M-5 4.125 C-5 7.755 -5 11.385 -5 15.125 C-1.7 15.125 1.6 15.125 5 15.125 C5 11.495 5 7.865 5 4.125 C1.7 4.125 -1.6 4.125 -5 4.125 Z " fill="#000000" transform="translate(36,4.875)"/>
<path d="M0 0 C1.051875 -0.00515625 2.10375 -0.0103125 3.1875 -0.015625 C6 0.25 6 0.25 9 2.25 C9.27668225 4.84426798 9.37295242 7.16263646 9.3125 9.75 C9.31733398 10.78447266 9.31733398 10.78447266 9.32226562 11.83984375 C9.26712592 16.98287408 9.26712592 16.98287408 7 19.25 C3.8125 19.48046875 3.8125 19.48046875 0 19.4375 C-1.258125 19.43105469 -2.51625 19.42460938 -3.8125 19.41796875 C-7 19.25 -7 19.25 -9 18.25 C-9.08074203 15.62438891 -9.1403623 13.00124324 -9.1875 10.375 C-9.21263672 9.62863281 -9.23777344 8.88226563 -9.26367188 8.11328125 C-9.29296875 5.9453125 -9.29296875 5.9453125 -9 2.25 C-5.53767506 -0.05821663 -4.08201684 -0.02000989 0 0 Z M-5 4.25 C-5 7.88 -5 11.51 -5 15.25 C-1.7 15.25 1.6 15.25 5 15.25 C5 11.62 5 7.99 5 4.25 C1.7 4.25 -1.6 4.25 -5 4.25 Z " fill="#000000" transform="translate(36,47.75)"/>
<path d="M0 0 C2.7885289 -0.22107787 5.34653181 -0.28107535 8.125 -0.1875 C8.87910156 -0.17396484 9.63320313 -0.16042969 10.41015625 -0.14648438 C12.27374127 -0.11109985 14.13695978 -0.05729167 16 0 C17.48520725 2.97041449 17.1705822 5.69764447 17.1875 9 C17.20167969 10.258125 17.21585938 11.51625 17.23046875 12.8125 C17 16 17 16 15 18 C12.45151644 18.22503811 10.04736331 18.32440357 7.5 18.3125 C6.81035156 18.32861328 6.12070312 18.34472656 5.41015625 18.36132812 C3.40625 18.36328125 3.40625 18.36328125 0 18 C-2.30821663 14.53767506 -2.27000989 13.08201684 -2.25 9 C-2.25515625 7.948125 -2.2603125 6.89625 -2.265625 5.8125 C-2 3 -2 3 0 0 Z M2 4 C2 7.3 2 10.6 2 14 C5.63 14 9.26 14 13 14 C13 10.7 13 7.4 13 4 C9.37 4 5.74 4 2 4 Z " fill="#000000" transform="translate(50,27)"/>
</svg>
