<?xml version="1.0" encoding="UTF-8"?>
<svg version="1.1" xmlns="http://www.w3.org/2000/svg" width="72" height="72">
<path d="M0 0 C1.61672607 -0.00472824 1.61672607 -0.00472824 3.26611328 -0.009552 C4.43899902 -0.00752777 5.61188477 -0.00550354 6.8203125 -0.00341797 C8.0151123 -0.00437469 9.20991211 -0.00533142 10.44091797 -0.00631714 C12.9729823 -0.00699918 15.50504838 -0.00514325 18.03710938 -0.00097656 C21.9284251 0.00437132 25.81962539 -0.00092079 29.7109375 -0.00732422 C32.16406276 -0.00666344 34.61718794 -0.00538229 37.0703125 -0.00341797 C38.24319824 -0.0054422 39.41608398 -0.00746643 40.62451172 -0.009552 C41.7023291 -0.00639984 42.78014648 -0.00324768 43.890625 0 C44.84469238 0.00079559 45.79875977 0.00159119 46.78173828 0.00241089 C48.9453125 0.12939453 48.9453125 0.12939453 49.9453125 1.12939453 C50.0381851 2.54164499 50.06278022 3.95848388 50.05883789 5.3737793 C50.05876236 6.2746376 50.05868683 7.17549591 50.05860901 8.10365295 C50.05344772 9.08281174 50.04828644 10.06197052 50.04296875 11.07080078 C50.0415538 12.06820786 50.04013885 13.06561493 50.03868103 14.09324646 C50.03306364 17.29282577 50.02050821 20.49233622 50.0078125 23.69189453 C50.00279974 25.85530498 49.99823645 28.01871653 49.99414062 30.18212891 C49.98308857 35.49790778 49.96633354 40.81364624 49.9453125 46.12939453 C51.93098958 46.06429036 53.91666667 45.9991862 55.90234375 45.93408203 C57.9453125 46.12939453 57.9453125 46.12939453 60.9453125 48.12939453 C61.2578125 51.12939453 61.2578125 51.12939453 60.9453125 54.12939453 C58.9453125 56.12939453 58.9453125 56.12939453 56.78125 56.32470703 C55.96914062 56.30150391 55.15703125 56.27830078 54.3203125 56.25439453 C53.50304687 56.23634766 52.68578125 56.21830078 51.84375 56.19970703 C51.21726563 56.17650391 50.59078125 56.15330078 49.9453125 56.12939453 C49.96851563 56.75587891 49.99171875 57.38236328 50.015625 58.02783203 C50.03367188 58.84509766 50.05171875 59.66236328 50.0703125 60.50439453 C50.09351563 61.31650391 50.11671875 62.12861328 50.140625 62.96533203 C49.9453125 65.12939453 49.9453125 65.12939453 47.9453125 67.12939453 C44.9453125 67.44189453 44.9453125 67.44189453 41.9453125 67.12939453 C39.26603909 63.11048441 39.78930002 60.8877753 39.9453125 56.12939453 C39.38376968 56.13161514 38.82222687 56.13383575 38.2436676 56.13612366 C32.42050815 56.15817759 26.59736049 56.17330158 20.77416992 56.18432617 C18.59838377 56.18936761 16.42260103 56.1962006 14.24682617 56.20483398 C11.12678183 56.21690791 8.00678212 56.22262458 4.88671875 56.22705078 C3.41798058 56.23479271 3.41798058 56.23479271 1.91957092 56.24269104 C1.01871262 56.24276657 0.11785431 56.2428421 -0.81030273 56.24291992 C-1.60750229 56.24514053 -2.40470184 56.24736115 -3.22605896 56.24964905 C-5.0546875 56.12939453 -5.0546875 56.12939453 -6.0546875 55.12939453 C-6.1534392 53.44684218 -6.18267654 51.76015425 -6.18408203 50.07470703 C-6.18723419 48.99688965 -6.19038635 47.91907227 -6.19363403 46.80859375 C-6.1916098 45.63570801 -6.18958557 44.46282227 -6.1875 43.25439453 C-6.18845673 42.05959473 -6.18941345 40.86479492 -6.19039917 39.63378906 C-6.19108121 37.10172473 -6.18922528 34.56965866 -6.18505859 32.03759766 C-6.17971071 28.14628193 -6.18500283 24.25508164 -6.19140625 20.36376953 C-6.19074547 17.91064427 -6.18946432 15.45751909 -6.1875 13.00439453 C-6.18952423 11.83150879 -6.19154846 10.65862305 -6.19363403 9.45019531 C-6.19048187 8.37237793 -6.18732971 7.29456055 -6.18408203 6.18408203 C-6.18328644 5.23001465 -6.18249084 4.27594727 -6.18167114 3.29296875 C-5.93829642 -0.85370144 -3.60724599 0.00300807 0 0 Z M-2.0546875 5.12939453 C-2.12712803 7.14903652 -2.13845938 9.17106577 -2.1171875 11.19189453 C-2.10816406 12.29662109 -2.09914063 13.40134766 -2.08984375 14.53955078 C-2.07824219 15.39419922 -2.06664062 16.24884766 -2.0546875 17.12939453 C-1.3946875 17.12939453 -0.7346875 17.12939453 -0.0546875 17.12939453 C-0.0546875 13.49939453 -0.0546875 9.86939453 -0.0546875 6.12939453 C3.5753125 6.12939453 7.2053125 6.12939453 10.9453125 6.12939453 C10.9453125 5.46939453 10.9453125 4.80939453 10.9453125 4.12939453 C8.96621852 4.102529 6.98702279 4.08306078 5.0078125 4.06689453 C3.35458984 4.04949219 3.35458984 4.04949219 1.66796875 4.03173828 C-0.96916384 3.81676882 -0.96916384 3.81676882 -2.0546875 5.12939453 Z M15.9453125 4.12939453 C15.9453125 4.78939453 15.9453125 5.44939453 15.9453125 6.12939453 C17.2653125 6.12939453 18.5853125 6.12939453 19.9453125 6.12939453 C19.9453125 5.46939453 19.9453125 4.80939453 19.9453125 4.12939453 C18.6253125 4.12939453 17.3053125 4.12939453 15.9453125 4.12939453 Z M23.9453125 4.12939453 C23.9453125 4.78939453 23.9453125 5.44939453 23.9453125 6.12939453 C25.5953125 6.12939453 27.2453125 6.12939453 28.9453125 6.12939453 C28.6153125 5.46939453 28.2853125 4.80939453 27.9453125 4.12939453 C26.6253125 4.12939453 25.3053125 4.12939453 23.9453125 4.12939453 Z M32.9453125 4.12939453 C32.9453125 4.78939453 32.9453125 5.44939453 32.9453125 6.12939453 C36.5753125 6.12939453 40.2053125 6.12939453 43.9453125 6.12939453 C43.9453125 9.75939453 43.9453125 13.38939453 43.9453125 17.12939453 C44.6053125 17.12939453 45.2653125 17.12939453 45.9453125 17.12939453 C45.9453125 12.83939453 45.9453125 8.54939453 45.9453125 4.12939453 C41.6553125 4.12939453 37.3653125 4.12939453 32.9453125 4.12939453 Z M-2.0546875 22.12939453 C-2.0546875 23.44939453 -2.0546875 24.76939453 -2.0546875 26.12939453 C-1.3946875 26.12939453 -0.7346875 26.12939453 -0.0546875 26.12939453 C-0.0546875 24.80939453 -0.0546875 23.48939453 -0.0546875 22.12939453 C-0.7146875 22.12939453 -1.3746875 22.12939453 -2.0546875 22.12939453 Z M43.9453125 22.12939453 C43.9453125 23.44939453 43.9453125 24.76939453 43.9453125 26.12939453 C44.6053125 26.12939453 45.2653125 26.12939453 45.9453125 26.12939453 C45.9453125 24.80939453 45.9453125 23.48939453 45.9453125 22.12939453 C45.2853125 22.12939453 44.6253125 22.12939453 43.9453125 22.12939453 Z M-2.0546875 30.12939453 C-1.7246875 31.77939453 -1.3946875 33.42939453 -1.0546875 35.12939453 C-0.7246875 35.12939453 -0.3946875 35.12939453 -0.0546875 35.12939453 C-0.0546875 33.47939453 -0.0546875 31.82939453 -0.0546875 30.12939453 C-0.7146875 30.12939453 -1.3746875 30.12939453 -2.0546875 30.12939453 Z M44.9453125 30.12939453 C44.6153125 31.44939453 44.2853125 32.76939453 43.9453125 34.12939453 C44.9353125 34.62439453 44.9353125 34.62439453 45.9453125 35.12939453 C45.9453125 33.47939453 45.9453125 31.82939453 45.9453125 30.12939453 C45.6153125 30.12939453 45.2853125 30.12939453 44.9453125 30.12939453 Z M-2.0546875 39.12939453 C-2.0546875 43.41939453 -2.0546875 47.70939453 -2.0546875 52.12939453 C2.2353125 52.12939453 6.5253125 52.12939453 10.9453125 52.12939453 C10.9453125 51.46939453 10.9453125 50.80939453 10.9453125 50.12939453 C7.3153125 50.12939453 3.6853125 50.12939453 -0.0546875 50.12939453 C-0.0546875 46.49939453 -0.0546875 42.86939453 -0.0546875 39.12939453 C-0.7146875 39.12939453 -1.3746875 39.12939453 -2.0546875 39.12939453 Z M43.9453125 39.12939453 C43.9453125 42.75939453 43.9453125 46.38939453 43.9453125 50.12939453 C40.3153125 50.12939453 36.6853125 50.12939453 32.9453125 50.12939453 C32.9453125 50.78939453 32.9453125 51.44939453 32.9453125 52.12939453 C36.5753125 52.12939453 40.2053125 52.12939453 43.9453125 52.12939453 C43.9453125 55.75939453 43.9453125 59.38939453 43.9453125 63.12939453 C44.6053125 63.12939453 45.2653125 63.12939453 45.9453125 63.12939453 C45.9453125 59.49939453 45.9453125 55.86939453 45.9453125 52.12939453 C49.5753125 52.12939453 53.2053125 52.12939453 56.9453125 52.12939453 C56.9453125 51.46939453 56.9453125 50.80939453 56.9453125 50.12939453 C53.3153125 50.12939453 49.6853125 50.12939453 45.9453125 50.12939453 C45.9453125 46.49939453 45.9453125 42.86939453 45.9453125 39.12939453 C45.2853125 39.12939453 44.6253125 39.12939453 43.9453125 39.12939453 Z M15.9453125 50.12939453 C15.9453125 50.78939453 15.9453125 51.44939453 15.9453125 52.12939453 C17.2653125 52.12939453 18.5853125 52.12939453 19.9453125 52.12939453 C19.9453125 51.46939453 19.9453125 50.80939453 19.9453125 50.12939453 C18.6253125 50.12939453 17.3053125 50.12939453 15.9453125 50.12939453 Z M24.9453125 50.12939453 C24.6153125 50.78939453 24.2853125 51.44939453 23.9453125 52.12939453 C25.5953125 52.12939453 27.2453125 52.12939453 28.9453125 52.12939453 C28.6153125 51.46939453 28.2853125 50.80939453 27.9453125 50.12939453 C26.9553125 50.12939453 25.9653125 50.12939453 24.9453125 50.12939453 Z " fill="#FFFFFF" transform="translate(11.0546875,4.87060546875)"/>
</svg>
