<?xml version="1.0" encoding="UTF-8"?>
<svg version="1.1" xmlns="http://www.w3.org/2000/svg" width="128" height="128">
<path d="M0 0 C2.63804589 -0.39397335 2.63804589 -0.39397335 5 -1 C8 -1 8 -1 10.875 -0.4375 C13.98600467 -0.00195935 15.98461683 -0.26652842 19 -1 C22 -1 22 -1 24.875 -0.4375 C27.98600467 -0.00195935 29.98461683 -0.26652842 33 -1 C33.99 -1 34.98 -1 36 -1 C37.78906765 -1.02304129 39.57812944 -1.04653864 41.3671875 -1.0703125 C43.53645491 -1.08894424 45.70572596 -1.10715638 47.875 -1.125 C49.50888672 -1.15013672 49.50888672 -1.15013672 51.17578125 -1.17578125 C52.22894531 -1.18222656 53.28210938 -1.18867188 54.3671875 -1.1953125 C55.32737793 -1.20578613 56.28756836 -1.21625977 57.27685547 -1.22705078 C60.19450889 -0.98378221 62.35231848 -0.21760848 65 1 C65 0.34 65 -0.32 65 -1 C66.0828125 -0.7215625 66.0828125 -0.7215625 67.1875 -0.4375 C70.15685423 0.02439955 72.10335998 -0.31395368 75 -1 C82.33333333 -1 89.66666667 -1 97 -1 C97 -0.34 97 0.32 97 1 C97.99 0.34 98.98 -0.32 100 -1 C102.62890625 -1.23046875 102.62890625 -1.23046875 105.5625 -1.1875 C106.53316406 -1.18105469 107.50382812 -1.17460937 108.50390625 -1.16796875 C111 -1 111 -1 113 0 C113.99 -0.33 114.98 -0.66 116 -1 C116 41.24 116 83.48 116 127 C74.09 127 32.18 127 -11 127 C-12.27906977 115.48837209 -12.27906977 115.48837209 -11.4375 111 C-11.01763116 108.12089942 -11.24965342 106.72000636 -12 104 C-11.67 103.01 -11.34 102.02 -11 101 C-11.144375 100.443125 -11.28875 99.88625 -11.4375 99.3125 C-12.27914073 95.85242146 -12.05651931 92.56071673 -12 89 C-12 88.01 -12 87.02 -12 86 C-11.814375 85.030625 -11.62875 84.06125 -11.4375 83.0625 C-11.0212057 80.14843989 -11.24213902 78.74724607 -12 76 C-11.67 75.01 -11.34 74.02 -11 73 C-11.29299023 71.32577014 -11.62690101 69.65821773 -12 68 C-12 65.1568006 -11.58287897 62.76867509 -11 60 C-10.96566492 58.75858147 -10.96566492 58.75858147 -11.5 56.625 C-12.08845126 53.53563087 -12.04180677 51.21367905 -11.4375 48.125 C-11.00195935 45.01399533 -11.26652842 43.01538317 -12 40 C-12 37 -12 37 -11.4375 34.125 C-11.00195935 31.01399533 -11.26652842 29.01538317 -12 26 C-12 23 -12 23 -11.4375 20.125 C-11.00401951 17.02871081 -11.33131319 15.00909063 -12 12 C-11.67 11.34 -11.34 10.68 -11 10 C-11.165 9.236875 -11.33 8.47375 -11.5 7.6875 C-12.04064844 4.78151461 -11.72966066 2.83756923 -11 0 C-6.96924328 -1.06696501 -4.07138656 -0.67856443 0 0 Z M-5 2 C-4 4 -4 4 -4 4 Z M2 2 C3 4 3 4 3 4 Z M9 2 C9 2.66 9 3.32 9 4 C9.66 4 10.32 4 11 4 C11 3.34 11 2.68 11 2 C10.34 2 9.68 2 9 2 Z M16 2 C17 4 17 4 17 4 Z M23 2 C23 2.66 23 3.32 23 4 C23.66 3.67 24.32 3.34 25 3 C24.34 2.67 23.68 2.34 23 2 Z M80 2 C81 4 81 4 81 4 Z M87 2 C88 4 88 4 88 4 Z M94 2 C95 4 95 4 95 4 Z M101 2 C102 4 102 4 102 4 Z M108 2 C109 4 109 4 109 4 Z M-9 6 C-9 6.66 -9 7.32 -9 8 C-8.34 8 -7.68 8 -7 8 C-7 7.34 -7 6.68 -7 6 C-7.66 6 -8.32 6 -9 6 Z M6 6 C7 8 7 8 7 8 Z M111 6 C111.66 6.66 112.32 7.32 113 8 C113 7.34 113 6.68 113 6 C112.34 6 111.68 6 111 6 Z M87 9 C86.67 9.66 86.34 10.32 86 11 C86.66 11 87.32 11 88 11 C87.67 10.34 87.34 9.68 87 9 Z M94 9 C95 11 95 11 95 11 Z M108 9 C109 11 109 11 109 11 Z M90 13 C90.66 13.66 91.32 14.32 92 15 C92 14.34 92 13.68 92 13 C91.34 13 90.68 13 90 13 Z M111 13 C111.66 13.66 112.32 14.32 113 15 C113 14.34 113 13.68 113 13 C112.34 13 111.68 13 111 13 Z M101 16 C102 18 102 18 102 18 Z M-9 20 C-9 20.66 -9 21.32 -9 22 C-8.34 22 -7.68 22 -7 22 C-7 21.34 -7 20.68 -7 20 C-7.66 20 -8.32 20 -9 20 Z M-1 20 C0 22 0 22 0 22 Z M97 20 C97.33 20.66 97.66 21.32 98 22 C98.33 21.34 98.66 20.68 99 20 C98.34 20 97.68 20 97 20 Z M104 20 C104.66 20.66 105.32 21.32 106 22 C106 21.34 106 20.68 106 20 C105.34 20 104.68 20 104 20 Z M111 20 C111.66 20.66 112.32 21.32 113 22 C113 21.34 113 20.68 113 20 C112.34 20 111.68 20 111 20 Z M-5 23 C-4 25 -4 25 -4 25 Z M101 23 C101 26 101 26 101 26 Z M108 23 C109 25 109 25 109 25 Z M-9 27 C-9 27.66 -9 28.32 -9 29 C-8.34 29 -7.68 29 -7 29 C-7 28.34 -7 27.68 -7 27 C-7.66 27 -8.32 27 -9 27 Z M111 27 C111.66 27.66 112.32 28.32 113 29 C113 28.34 113 27.68 113 27 C112.34 27 111.68 27 111 27 Z M-8 34 C-8.33 34.66 -8.66 35.32 -9 36 C-8.34 36 -7.68 36 -7 36 C-7.33 35.34 -7.66 34.68 -8 34 Z M112 34 C113 36 113 36 113 36 Z M108 38 C109 40 109 40 109 40 Z M-9 41 C-9 41.66 -9 42.32 -9 43 C-8.01 42.67 -7.02 42.34 -6 42 C-6.99 41.67 -7.98 41.34 -9 41 Z M111 41 C111 41.66 111 42.32 111 43 C111.66 43 112.32 43 113 43 C113 42.34 113 41.68 113 41 C112.34 41 111.68 41 111 41 Z M109 44 C110 46 110 46 110 46 Z M111 48 C110.67 48.66 110.34 49.32 110 50 C110.99 50 111.98 50 113 50 C113 49.34 113 48.68 113 48 C112.34 48 111.68 48 111 48 Z M112 55 C111.67 55.66 111.34 56.32 111 57 C111.66 57 112.32 57 113 57 C112.67 56.34 112.34 55.68 112 55 Z M112 62 C113 64 113 64 113 64 Z M112 69 C111.67 69.66 111.34 70.32 111 71 C111.66 71 112.32 71 113 71 C112.67 70.34 112.34 69.68 112 69 Z M109 73 C110 75 110 75 110 75 Z M108 79 C109 82 109 82 109 82 Z M-6 80 C-5 82 -5 82 -5 82 Z M-9 83 C-9 83.66 -9 84.32 -9 85 C-8.34 85 -7.68 85 -7 85 C-7 84.34 -7 83.68 -7 83 C-7.66 83 -8.32 83 -9 83 Z M105 84 C106 86 106 86 106 86 Z M-5 87 C-4.67 87.66 -4.34 88.32 -4 89 C-3.67 88.34 -3.34 87.68 -3 87 C-3.66 87 -4.32 87 -5 87 Z M108 87 C109 89 109 89 109 89 Z M-5 94 C-4 96 -4 96 -4 96 Z M100 94 C100.66 94.66 101.32 95.32 102 96 C102 95.34 102 94.68 102 94 C101.34 94 100.68 94 100 94 Z M108 94 C109 96 109 96 109 96 Z M-5 101 C-4 103 -4 103 -4 103 Z M2 101 C3 103 3 103 3 103 Z M94 101 C93.67 101.66 93.34 102.32 93 103 C93.66 103 94.32 103 95 103 C94.67 102.34 94.34 101.68 94 101 Z M101 101 C102 103 102 103 102 103 Z M108 101 C109 103 109 103 109 103 Z M-5 108 C-4 110 -4 110 -4 110 Z M2 108 C3 110 3 110 3 110 Z M9 108 C9.33 108.66 9.66 109.32 10 110 C10.33 109.34 10.66 108.68 11 108 C10.34 108 9.68 108 9 108 Z M86 108 C86.66 108.66 87.32 109.32 88 110 C88 109.34 88 108.68 88 108 C87.34 108 86.68 108 86 108 Z M94 108 C95 110 95 110 95 110 Z M101 108 C102 110 102 110 102 110 Z M108 108 C109 110 109 110 109 110 Z M20 111 C20 111.66 20 112.32 20 113 C20.66 112.67 21.32 112.34 22 112 C21.34 111.67 20.68 111.34 20 111 Z M-5 115 C-4 117 -4 117 -4 117 Z M2 115 C3 117 3 117 3 117 Z M9 115 C9 115.66 9 116.32 9 117 C9.66 116.67 10.32 116.34 11 116 C10.34 115.67 9.68 115.34 9 115 Z M16 115 C17 117 17 117 17 117 Z M23 115 C23.33 115.66 23.66 116.32 24 117 C24.33 116.34 24.66 115.68 25 115 C24.34 115 23.68 115 23 115 Z M73 115 C72.67 115.66 72.34 116.32 72 117 C72.99 116.67 73.98 116.34 75 116 C74.34 115.67 73.68 115.34 73 115 Z M80 115 C81 117 81 117 81 117 Z M87 115 C88 117 88 117 88 117 Z M94 115 C95 117 95 117 95 117 Z M101 115 C102 117 102 117 102 117 Z M108 115 C109 117 109 117 109 117 Z M-5 122 C-5 122.66 -5 123.32 -5 124 C-4.34 123.67 -3.68 123.34 -3 123 C-3.66 122.67 -4.32 122.34 -5 122 Z M2 122 C2 122.66 2 123.32 2 124 C2.66 123.67 3.32 123.34 4 123 C3.34 122.67 2.68 122.34 2 122 Z M9 122 C9 122.66 9 123.32 9 124 C9.66 123.67 10.32 123.34 11 123 C10.34 122.67 9.68 122.34 9 122 Z M16 122 C16 122.66 16 123.32 16 124 C16.66 123.67 17.32 123.34 18 123 C17.34 122.67 16.68 122.34 16 122 Z M30 122 C30 122.66 30 123.32 30 124 C30.66 124 31.32 124 32 124 C32 123.34 32 122.68 32 122 C31.34 122 30.68 122 30 122 Z M37 122 C37 122.66 37 123.32 37 124 C37.66 123.67 38.32 123.34 39 123 C38.34 122.67 37.68 122.34 37 122 Z M45 122 C44.67 122.66 44.34 123.32 44 124 C44.66 124 45.32 124 46 124 C45.67 123.34 45.34 122.68 45 122 Z M51 122 C51 122.66 51 123.32 51 124 C51.66 124 52.32 124 53 124 C53 123.34 53 122.68 53 122 C52.34 122 51.68 122 51 122 Z M59 122 C58.67 122.66 58.34 123.32 58 124 C58.66 124 59.32 124 60 124 C59.67 123.34 59.34 122.68 59 122 Z M66 122 C67 124 67 124 67 124 Z M73 122 C72.67 122.66 72.34 123.32 72 124 C72.66 124 73.32 124 74 124 C73.67 123.34 73.34 122.68 73 122 Z M80 122 C81 124 81 124 81 124 Z M87 122 C86.67 122.66 86.34 123.32 86 124 C86.66 124 87.32 124 88 124 C87.67 123.34 87.34 122.68 87 122 Z M94 122 C95 124 95 124 95 124 Z M101 122 C102 124 102 124 102 124 Z M108 122 C107.67 122.66 107.34 123.32 107 124 C107.66 124 108.32 124 109 124 C108.67 123.34 108.34 122.68 108 122 Z " fill="#575756" transform="translate(12,1)"/>
<path d="M0 0 C1.29647461 -0.01836914 1.29647461 -0.01836914 2.61914062 -0.03710938 C8.15418331 -0.04964155 12.87442612 0.62628317 18.1875 2.1875 C18.1875 2.8475 18.1875 3.5075 18.1875 4.1875 C19.05375 4.27 19.92 4.3525 20.8125 4.4375 C27.01954405 5.81684312 30.90745662 9.68796722 35.1875 14.1875 C36.4559375 15.425 36.4559375 15.425 37.75 16.6875 C47.80030971 26.99550996 51.73000757 37.52116272 51.5625 51.75 C51.57410156 52.73935547 51.58570312 53.72871094 51.59765625 54.74804688 C51.57290462 60.96483236 50.70726122 65.5071494 48.1875 71.1875 C47.87425781 72.0228125 47.56101562 72.858125 47.23828125 73.71875 C46.5546875 75.54166667 45.87109375 77.36458333 45.1875 79.1875 C44.5275 79.1875 43.8675 79.1875 43.1875 79.1875 C42.6925 80.6725 42.6925 80.6725 42.1875 82.1875 C40.20793058 83.87838222 38.20804804 85.54580472 36.1875 87.1875 C35.8575 87.8475 35.5275 88.5075 35.1875 89.1875 C33.6096875 89.4040625 33.6096875 89.4040625 32 89.625 C28.09560311 90.20105856 25.66680168 91.41083531 22.1875 93.1875 C17.60998632 94.17454709 13.10435306 94.38002773 8.4375 94.375 C7.73737793 94.37491943 7.03725586 94.37483887 6.31591797 94.37475586 C0.17663137 94.30760962 -6.23592271 93.97578865 -11.8125 91.1875 C-11.8125 90.5275 -11.8125 89.8675 -11.8125 89.1875 C-12.8025 88.8575 -13.7925 88.5275 -14.8125 88.1875 C-9.97766794 86.81581634 -5.16328409 87.17191764 -0.1875 87.31445312 C4.38390651 87.38310499 7.86383587 86.86260379 12.1875 85.1875 C14.18119031 84.81829809 16.18029077 84.47424418 18.1875 84.1875 C18.1875 83.5275 18.1875 82.8675 18.1875 82.1875 C20.16071053 80.8148318 22.16293152 79.48322383 24.1875 78.1875 C24.8475 77.5275 25.5075 76.8675 26.1875 76.1875 C27.1775 76.1875 28.1675 76.1875 29.1875 76.1875 C31.28100689 72.7855513 31.36692163 70.13477588 31.1875 66.1875 C29.5375 65.8575 27.8875 65.5275 26.1875 65.1875 C25.8471875 65.70699219 25.506875 66.22648437 25.15625 66.76171875 C21.59974949 71.87891763 17.95458602 75.6298158 12.1875 78.1875 C11.1975 78.1875 10.2075 78.1875 9.1875 78.1875 C9.1875 78.8475 9.1875 79.5075 9.1875 80.1875 C0.54782118 82.07985335 -6.66150301 82.13891088 -14.51953125 77.75390625 C-18.70454345 74.89497969 -22.00377511 71.33444173 -25.25390625 67.4765625 C-26.98912762 65.76261298 -26.98912762 65.76261298 -30.8125 66.1875 C-31.40026634 68.9321344 -31.40026634 68.9321344 -30.8125 72.1875 C-29.19619658 73.92111576 -27.44831885 75.2899402 -25.57421875 76.73828125 C-23.31009287 78.60078835 -21.99946226 80.51683491 -20.8125 83.1875 C-21.1425 83.8475 -21.4725 84.5075 -21.8125 85.1875 C-24.1225 84.1975 -26.4325 83.2075 -28.8125 82.1875 C-28.8125 81.5275 -28.8125 80.8675 -28.8125 80.1875 C-29.369375 79.96191406 -29.92625 79.73632812 -30.5 79.50390625 C-37.53354892 75.500011 -43.38992359 67.69487142 -46.2734375 60.203125 C-47.00324437 57.47428192 -47.09983252 54.98899209 -46.8125 52.1875 C-47.4725 52.1875 -48.1325 52.1875 -48.8125 52.1875 C-49.51851643 36.9061666 -48.49748087 28.08551348 -38.125 16.4375 C-33.26288129 11.23584995 -28.28084631 7.27568617 -21.8125 4.1875 C-21.1525 3.86394531 -20.4925 3.54039063 -19.8125 3.20703125 C-13.23111659 0.18583585 -7.11174799 0.00523307 0 0 Z " fill="#F0B712" transform="translate(62.8125,8.8125)"/>
<path d="M0 0 C26.11527734 -0.82362592 26.11527734 -0.82362592 36 4 C37.56621094 4.70576172 37.56621094 4.70576172 39.1640625 5.42578125 C44.69879476 8.03154936 49.65652193 10.65652193 54 15 C54 15.66 54 16.32 54 17 C55.485 17.495 55.485 17.495 57 18 C57 18.66 57 19.32 57 20 C57.598125 20.2475 58.19625 20.495 58.8125 20.75 C61.31626919 22.18072525 62.48072388 23.5691582 64 26 C64 26.66 64 27.32 64 28 C64.66 28 65.32 28 66 28 C67.14973839 30.581658 68.29490359 33.16518307 69.4375 35.75 C69.92573242 36.84441406 69.92573242 36.84441406 70.42382812 37.9609375 C70.73642578 38.66992188 71.04902344 39.37890625 71.37109375 40.109375 C71.65911865 40.75874023 71.94714355 41.40810547 72.24389648 42.07714844 C77.02298026 54.23086617 75.68838443 71.903325 70.69921875 83.78149414 C64.63847616 96.76309044 53.52616696 109.5251229 40 115 C39.01 115 38.02 115 37 115 C37 115.66 37 116.32 37 117 C20.2607352 121.8907765 3.13463027 121.83222071 -12.6875 113.875 C-18.89307024 110.32253588 -23.98891115 106.07509911 -29 101 C-29.84304687 100.18982422 -29.84304687 100.18982422 -30.703125 99.36328125 C-42.64978096 86.88216963 -44.62303782 70.8074112 -44.3046875 54.39453125 C-43.72219024 40.48440029 -37.00924841 27.78263518 -27.69140625 17.55078125 C-24.10638245 14.26381947 -20.08706888 11.61676042 -16 9 C-14.98099609 8.34257812 -14.98099609 8.34257812 -13.94140625 7.671875 C-10.60432349 5.63374273 -9.01652971 5 -5 5 C-5 4.34 -5 3.68 -5 3 C-3.35 2.34 -1.7 1.68 0 1 C0 0.67 0 0.34 0 0 Z M-1 11 C-1.81082031 11.27199219 -2.62164062 11.54398438 -3.45703125 11.82421875 C-16.6609252 16.66345683 -26.59925404 26.93172194 -33.1796875 39.19921875 C-34.40878849 43.39572071 -34.20926108 47.46657264 -34.125 51.8125 C-34.11597656 52.69615234 -34.10695313 53.57980469 -34.09765625 54.49023438 C-34.07419637 56.66027359 -34.03832865 58.83017247 -34 61 C-33.34 61 -32.68 61 -32 61 C-31.98582031 61.556875 -31.97164062 62.11375 -31.95703125 62.6875 C-31.25758371 73.87866056 -23.79884423 81.49102431 -16 89 C-15.34 89 -14.68 89 -14 89 C-13.67 89.99 -13.34 90.98 -13 92 C-9.48809191 93.22969878 -9.48809191 93.22969878 -6 94 C-7.48917357 89.08572721 -10.44186662 85.59680874 -14 82 C-14.66 81.67 -15.32 81.34 -16 81 C-16 79.02 -16 77.04 -16 75 C-12.67458352 75 -10.63087483 75.38296015 -8.21875 77.7421875 C-7.02161379 79.1756006 -5.834216 80.61719808 -4.65625 82.06640625 C-2.67099531 84.38409746 -0.73622349 85.66696805 2 87 C2.86625 87.556875 3.7325 88.11375 4.625 88.6875 C10.88222883 91.12086677 17.5345734 90.44975208 24 89 C24 88.34 24 87.68 24 87 C24.70125 86.9175 25.4025 86.835 26.125 86.75 C33.34069987 84.86764351 36.98520996 79.86557977 41 74 C42.65 74.33 44.3 74.66 46 75 C46.31263383 81.87794433 46.31263383 81.87794433 44 85 C42.67511887 85.36548445 41.33981486 85.6937566 40 86 C38.30225062 87.29352333 36.63260714 88.62517293 35 90 C34.01 90.495 34.01 90.495 33 91 C33 91.66 33 92.32 33 93 C32.21753906 93.13277344 31.43507813 93.26554687 30.62890625 93.40234375 C29.11103516 93.66724609 29.11103516 93.66724609 27.5625 93.9375 C26.04849609 94.19853516 26.04849609 94.19853516 24.50390625 94.46484375 C22.0712562 94.74751097 22.0712562 94.74751097 21 96 C19.43827255 96.08685603 17.87270656 96.10702219 16.30859375 96.09765625 C15.36435547 96.09443359 14.42011719 96.09121094 13.44726562 96.08789062 C12.45404297 96.07951172 11.46082031 96.07113281 10.4375 96.0625 C9.44041016 96.05798828 8.44332031 96.05347656 7.41601562 96.04882812 C4.94395151 96.03700007 2.47200482 96.02051849 0 96 C0.33 96.66 0.66 97.32 1 98 C1.66 98 2.32 98 3 98 C3 98.66 3 99.32 3 100 C9.42259851 102.91936296 16.0330741 103.1808267 23 103.1875 C23.67289063 103.19974609 24.34578125 103.21199219 25.0390625 103.22460938 C30.62106562 103.24077348 35.38237307 102.11249145 40.5 99.9375 C43 99 43 99 46.5 98.75 C51.30305937 97.72077299 52.13813739 95.895313 55 92 C55.99 91.34 56.98 90.68 58 90 C58 89.34 58 88.68 58 88 C58.66 88 59.32 88 60 88 C60.433125 86.845 60.86625 85.69 61.3125 84.5 C62.33856805 81.76381852 63.39673991 79.09724443 64.57421875 76.41796875 C66.49213171 71.27199811 66.53584442 66.25547477 66.5 60.8125 C66.49355469 59.79381836 66.48710938 58.77513672 66.48046875 57.72558594 C66.16551428 44.71713752 61.71788308 34.7931438 53 25 C50.74661265 23.06468521 48.52937259 21.58705731 46 20 C45.26716797 19.26330078 45.26716797 19.26330078 44.51953125 18.51171875 C41.362688 15.37110606 37.50005825 13 33 13 C33 12.34 33 11.68 33 11 C26.82946995 9.19608634 21.28738559 8.69231737 14.875 8.75 C14.00746094 8.74226562 13.13992187 8.73453125 12.24609375 8.7265625 C7.41259565 8.74127635 3.53630066 9.15774689 -1 11 Z " fill="#0B0A06" transform="translate(48,0)"/>
<path d="M0 0 C1.23910126 0.00444122 2.47820251 0.00888245 3.75485229 0.01345825 C4.43789429 0.0131662 5.12093628 0.01287415 5.82467651 0.01257324 C8.08652367 0.01396864 10.34804302 0.02953936 12.60983276 0.04519653 C14.17638977 0.04892593 15.74294911 0.05177325 17.30950928 0.05377197 C21.43596824 0.06141427 25.56228677 0.0810678 29.68869019 0.10317993 C33.89806214 0.12362557 38.10745674 0.13277094 42.31686401 0.14285278 C50.57864726 0.1643132 58.8403163 0.19845625 67.10202026 0.24050903 C67.29696952 1.65469479 67.48103289 3.07038345 67.66061401 4.48660278 C67.76430298 5.27478394 67.86799194 6.06296509 67.974823 6.87503052 C68.16277446 10.37035047 67.28553607 12.96843591 66.10202026 16.24050903 C65.44202026 16.24050903 64.78202026 16.24050903 64.10202026 16.24050903 C63.83389526 16.83863403 63.56577026 17.43675903 63.28952026 18.05300903 C61.05927178 22.1613615 58.44653282 23.88923465 54.08639526 25.67800903 C50.71388882 26.63399511 47.58688525 26.42392298 44.10202026 26.24050903 C44.10202026 25.58050903 44.10202026 24.92050903 44.10202026 24.24050903 C43.38014526 24.13738403 42.65827026 24.03425903 41.91452026 23.92800903 C38.80242776 23.16727531 36.69447874 22.11284016 34.10202026 20.24050903 C33.60702026 18.75550903 33.60702026 18.75550903 33.10202026 17.24050903 C32.11202026 17.24050903 31.12202026 17.24050903 30.10202026 17.24050903 C29.82358276 18.07582153 29.82358276 18.07582153 29.53952026 18.92800903 C27.36565999 22.4250886 24.83754903 24.61748619 21.10202026 26.24050903 C14.67663446 27.15842129 9.46062491 27.16955304 4.10202026 23.24050903 C-0.55148826 18.21171756 -4.63373313 12.41146832 -5.21047974 5.49050903 C-4.80794041 1.30410003 -4.23828664 0.35174374 0 0 Z " fill="#0C0903" transform="translate(30.897979736328125,37.759490966796875)"/>
<path d="M0 0 C1.0828125 0.2784375 1.0828125 0.2784375 2.1875 0.5625 C5.15685423 1.02439955 7.10335998 0.68604632 10 0 C17.33333333 0 24.66666667 0 32 0 C32 0.66 32 1.32 32 2 C32.99 1.34 33.98 0.68 35 0 C37.62890625 -0.23046875 37.62890625 -0.23046875 40.5625 -0.1875 C41.53316406 -0.18105469 42.50382812 -0.17460938 43.50390625 -0.16796875 C46 0 46 0 48 1 C48.99 0.67 49.98 0.34 51 0 C51 42.24 51 84.48 51 128 C9.09 128 -32.82 128 -76 128 C-76.33 125.03 -76.66 122.06 -77 119 C-75.515 118.505 -75.515 118.505 -74 118 C-72 120 -72 120 -72 124 C-69.525 123.505 -69.525 123.505 -67 123 C-66.67 123.66 -66.34 124.32 -66 125 C-64.515 124.505 -64.515 124.505 -63 124 C-61.33178677 124.32550502 -59.66500443 124.65846063 -58 125 C-57.01 124.505 -57.01 124.505 -56 124 C-55.4225 124.165 -54.845 124.33 -54.25 124.5 C-51.92319705 125.16977494 -51.92319705 125.16977494 -49.25 124.5 C-45.84910074 123.97678473 -43.31328174 124.2991156 -39.95703125 124.8125 C-37.20991811 125.07569647 -34.69809124 124.50197046 -32 124 C-31.01 124.33 -30.02 124.66 -29 125 C-26.60509014 125.06970052 -24.20832309 125.08448003 -21.8125 125.0625 C-20.54019531 125.05347656 -19.26789062 125.04445313 -17.95703125 125.03515625 C-16.98121094 125.02355469 -16.00539062 125.01195313 -15 125 C-14.67 124.34 -14.34 123.68 -14 123 C-14 123.66 -14 124.32 -14 125 C-12.515 124.505 -12.515 124.505 -11 124 C-9.515 124.495 -9.515 124.495 -8 125 C-5.66993089 125.35543427 -3.33672984 125.6913753 -1 126 C-0.505 124.515 -0.505 124.515 0 123 C1.98 123.66 3.96 124.32 6 125 C6 124.34 6 123.68 6 123 C8.31 123.66 10.62 124.32 13 125 C13.66 124.34 14.32 123.68 15 123 C16.6752357 123.28718326 18.34080104 123.63128912 20 124 C22.3329866 124.04022391 24.66706666 124.04320247 27 124 C30 124 30 124 33 125 C33.825 124.649375 34.65 124.29875 35.5 123.9375 C36.325 123.628125 37.15 123.31875 38 123 C39.485 123.99 39.485 123.99 41 125 C41.99 125 42.98 125 44 125 C44.33 124.34 44.66 123.68 45 123 C45 123.66 45 124.32 45 125 C45.99 125 46.98 125 48 125 C48 124.01 48 123.02 48 122 C47.34 121.67 46.68 121.34 46 121 C46.350625 120.443125 46.70125 119.88625 47.0625 119.3125 C48.22841779 116.43656945 47.68554381 114.97068984 47 112 C47.495 110.515 47.495 110.515 48 109 C47.12516085 106.83284443 47.12516085 106.83284443 46 105 C46.66 104.34 47.32 103.68 48 103 C47.34 101.35 46.68 99.7 46 98 C46.66 97.34 47.32 96.68 48 96 C47.69208308 94.328451 47.35613097 92.66194453 47 91 C47.4375 88.8125 47.4375 88.8125 48 87 C48 86.34 48 85.68 48 85 C47.34 84.67 46.68 84.34 46 84 C46.66 83.34 47.32 82.68 48 82 C46.33075929 78.95865509 46.33075929 78.95865509 44 78 C44.33 69.09 44.66 60.18 45 51 C45.99 51 46.98 51 48 51 C48 50.34 48 49.68 48 49 C46.515 49.495 46.515 49.495 45 50 C44.82984375 49.45472656 44.6596875 48.90945312 44.484375 48.34765625 C42.90024622 43.41831936 41.0695124 38.72931127 38.8671875 34.04296875 C38.01830866 32.04313256 37.46651425 30.11835551 37 28 C36.34 28 35.68 28 35 28 C34.773125 27.05125 34.54625 26.1025 34.3125 25.125 C33.35590055 21.83706872 33.35590055 21.83706872 30.6875 21 C29.800625 20.67 28.91375 20.34 28 20 C26.87114351 18.57232856 25.74308506 17.14401051 24.62109375 15.7109375 C18.13362831 8.86392578 8.63846551 5.27146076 0 2 C0 1.34 0 0.68 0 0 Z M15 3 C16 5 16 5 16 5 Z M22 3 C23 5 23 5 23 5 Z M29 3 C30 5 30 5 30 5 Z M36 3 C37 5 37 5 37 5 Z M43 3 C44 5 44 5 44 5 Z M46 7 C46.66 7.66 47.32 8.32 48 9 C48 8.34 48 7.68 48 7 C47.34 7 46.68 7 46 7 Z M22 10 C21.67 10.66 21.34 11.32 21 12 C21.66 12 22.32 12 23 12 C22.67 11.34 22.34 10.68 22 10 Z M29 10 C30 12 30 12 30 12 Z M43 10 C44 12 44 12 44 12 Z M25 14 C25.66 14.66 26.32 15.32 27 16 C27 15.34 27 14.68 27 14 C26.34 14 25.68 14 25 14 Z M46 14 C46.66 14.66 47.32 15.32 48 16 C48 15.34 48 14.68 48 14 C47.34 14 46.68 14 46 14 Z M36 17 C37 19 37 19 37 19 Z M39 21 C39.66 21.66 40.32 22.32 41 23 C41 22.34 41 21.68 41 21 C40.34 21 39.68 21 39 21 Z M46 21 C46.66 21.66 47.32 22.32 48 23 C48 22.34 48 21.68 48 21 C47.34 21 46.68 21 46 21 Z M36 24 C36 27 36 27 36 27 Z M43 24 C44 26 44 26 44 26 Z M46 28 C46.66 28.66 47.32 29.32 48 30 C48 29.34 48 28.68 48 28 C47.34 28 46.68 28 46 28 Z M47 35 C48 37 48 37 48 37 Z M43 39 C44 41 44 41 44 41 Z M46 42 C46 42.66 46 43.32 46 44 C46.66 44 47.32 44 48 44 C48 43.34 48 42.68 48 42 C47.34 42 46.68 42 46 42 Z M47 56 C46.67 56.66 46.34 57.32 46 58 C46.66 58 47.32 58 48 58 C47.67 57.34 47.34 56.68 47 56 Z M47 63 C48 65 48 65 48 65 Z M47 70 C46.67 70.66 46.34 71.32 46 72 C46.66 72 47.32 72 48 72 C47.67 71.34 47.34 70.68 47 70 Z " fill="#8E8E8D" transform="translate(77,0)"/>
<path d="M0 0 C0.33 0 0.66 0 1 0 C1 4.95 1 9.9 1 15 C1.66 15 2.32 15 3 15 C3.08636719 15.556875 3.17273438 16.11375 3.26171875 16.6875 C5.5188539 28.94643586 14.13780959 38.69708875 24 46 C26.18214568 46.77833534 26.18214568 46.77833534 28 47 C26.37105413 42.9755455 24.70917601 40.59907598 21.3125 38 C18.05339253 35.41188525 18.05339253 35.41188525 17.5625 31.625 C17.706875 30.75875 17.85125 29.8925 18 29 C20.1875 28.1875 20.1875 28.1875 23 28 C25.36964567 30.0050848 27.29933871 32.19454772 29.33203125 34.53125 C33.69815803 39.2461858 38.38170314 42.61771719 44.97021484 43.16308594 C49.65472302 43.33412275 54.31862712 43.20678457 59 43 C59 42.34 59 41.68 59 41 C60.269553 40.35165346 61.54069706 39.70642185 62.8125 39.0625 C63.52019531 38.70285156 64.22789063 38.34320313 64.95703125 37.97265625 C67 37 67 37 70 36 C70.70394612 34.68596724 71.36345658 33.3479743 72 32 C73.3050581 30.31110128 74.63360658 28.6396721 76 27 C80.875 27.875 80.875 27.875 82 29 C82.28556554 32.21261231 82.3687992 34.32063306 80.8125 37.1875 C78.72112808 39.27887192 76.5752257 40.55536119 74 42 C72.9171875 42.8353125 72.9171875 42.8353125 71.8125 43.6875 C70 45 70 45 68 45 C68 45.66 68 46.32 68 47 C67.21753906 47.20496094 66.43507813 47.40992188 65.62890625 47.62109375 C64.61699219 47.89050781 63.60507813 48.15992188 62.5625 48.4375 C61.55316406 48.70433594 60.54382813 48.97117188 59.50390625 49.24609375 C57.08247999 49.75978077 57.08247999 49.75978077 56 51 C54.5112814 51.08669432 53.018555 51.10703494 51.52734375 51.09765625 C50.62822266 51.09443359 49.72910156 51.09121094 48.80273438 51.08789062 C47.38444336 51.07532227 47.38444336 51.07532227 45.9375 51.0625 C44.98810547 51.05798828 44.03871094 51.05347656 43.06054688 51.04882812 C40.70696935 51.0370011 38.35351523 51.02052025 36 51 C36.99 51.495 36.99 51.495 38 52 C38 52.66 38 53.32 38 54 C50.3534066 56.62041958 63.71416206 58.07670934 75.5625 52.875 C78.48252424 51.82678617 80.92100701 51.85679102 84 52 C80.9605301 55.41940364 77.61875094 57.57274991 73.70703125 59.8515625 C71.84413578 60.90133104 71.84413578 60.90133104 71 63 C55.17065843 68.06789197 38.00498457 64.97877528 23 59 C23 58.34 23 57.68 23 57 C22.278125 56.7525 21.55625 56.505 20.8125 56.25 C14.39193731 53.39641658 10.93850946 48.5768426 7 43 C6.2575 42.01 5.515 41.02 4.75 40 C3.00574335 37.00984574 2.18907933 34.5720037 1.4921875 31.22265625 C1.00006522 28.82102038 1.00006522 28.82102038 -0.04296875 25.85546875 C-1.19464694 21.2158509 -1.2573113 17.00451667 -1.1875 12.25 C-1.18685547 11.40050781 -1.18621094 10.55101562 -1.18554688 9.67578125 C-1.16033967 6.12996715 -1.13113472 3.39340416 0 0 Z " fill="#C09007" transform="translate(13,46)"/>
<path d="M0 0 C2.63804589 -0.39397335 2.63804589 -0.39397335 5 -1 C8 -1 8 -1 10.875 -0.4375 C13.98600467 -0.00195935 15.98461683 -0.26652842 19 -1 C22 -1 22 -1 24.875 -0.4375 C27.95172478 -0.00675853 30.02442718 -0.21234837 33 -1 C33.66 -0.01 34.32 0.98 35 2 C33.68 2 32.36 2 31 2 C31 2.66 31 3.32 31 4 C29.88625 4.350625 28.7725 4.70125 27.625 5.0625 C22.93038521 6.79473754 19.19284746 9.50485134 15.19921875 12.4765625 C13 14 13 14 10 15 C9.67 15.99 9.34 16.98 9 18 C8.34 18 7.68 18 7 18 C6.72929687 18.57234375 6.45859375 19.1446875 6.1796875 19.734375 C4.97595627 22.04617669 3.61072985 24.10993316 2.125 26.25 C-0.65486896 30.3620311 -2.87637519 34.51679207 -5 39 C-5.33 39.66 -5.66 40.32 -6 41 C-6.99 41 -7.98 41 -9 41 C-9 41.66 -9 42.32 -9 43 C-7.515 42.505 -7.515 42.505 -6 42 C-6.16242187 42.76570313 -6.32484375 43.53140625 -6.4921875 44.3203125 C-7.1640737 49.18890329 -7.14471198 53.96671629 -7.125 58.875 C-7.12886719 59.83019531 -7.13273438 60.78539062 -7.13671875 61.76953125 C-7.12546962 69.97014619 -7.00743122 76.89910768 -2.9375 84.25 C-0.8502649 88.04140117 0 89.58857876 0 94 C-1.98 94.99 -1.98 94.99 -4 96 C-4.33 95.01 -4.66 94.02 -5 93 C-4.34 92.01 -3.68 91.02 -3 90 C-3.66 90 -4.32 90 -5 90 C-5.33 90.99 -5.66 91.98 -6 93 C-7.485 93.99 -7.485 93.99 -9 95 C-8.649375 95.61875 -8.29875 96.2375 -7.9375 96.875 C-7.4734375 97.926875 -7.4734375 97.926875 -7 99 C-7.495 99.99 -7.495 99.99 -8 101 C-9.32 100.67 -10.64 100.34 -12 100 C-12 86 -12 86 -11.4375 83.0625 C-11.0212057 80.14843989 -11.24213902 78.74724607 -12 76 C-11.67 75.01 -11.34 74.02 -11 73 C-11.29299023 71.32577014 -11.62690101 69.65821773 -12 68 C-12 65.1568006 -11.58287897 62.76867509 -11 60 C-10.96566492 58.75858147 -10.96566492 58.75858147 -11.5 56.625 C-12.08845126 53.53563087 -12.04180677 51.21367905 -11.4375 48.125 C-11.00195935 45.01399533 -11.26652842 43.01538317 -12 40 C-12 37 -12 37 -11.4375 34.125 C-11.00195935 31.01399533 -11.26652842 29.01538317 -12 26 C-12 23 -12 23 -11.4375 20.125 C-11.00401951 17.02871081 -11.33131319 15.00909063 -12 12 C-11.67 11.34 -11.34 10.68 -11 10 C-11.165 9.236875 -11.33 8.47375 -11.5 7.6875 C-12.04064844 4.78151461 -11.72966066 2.83756923 -11 0 C-6.96924328 -1.06696501 -4.07138656 -0.67856443 0 0 Z M-5 2 C-4 4 -4 4 -4 4 Z M2 2 C3 4 3 4 3 4 Z M9 2 C9 2.66 9 3.32 9 4 C9.66 4 10.32 4 11 4 C11 3.34 11 2.68 11 2 C10.34 2 9.68 2 9 2 Z M16 2 C17 4 17 4 17 4 Z M23 2 C23 2.66 23 3.32 23 4 C23.66 3.67 24.32 3.34 25 3 C24.34 2.67 23.68 2.34 23 2 Z M-9 6 C-9 6.66 -9 7.32 -9 8 C-8.34 8 -7.68 8 -7 8 C-7 7.34 -7 6.68 -7 6 C-7.66 6 -8.32 6 -9 6 Z M6 6 C7 8 7 8 7 8 Z M-9 20 C-9 20.66 -9 21.32 -9 22 C-8.34 22 -7.68 22 -7 22 C-7 21.34 -7 20.68 -7 20 C-7.66 20 -8.32 20 -9 20 Z M-1 20 C0 22 0 22 0 22 Z M-5 23 C-4 25 -4 25 -4 25 Z M-9 27 C-9 27.66 -9 28.32 -9 29 C-8.34 29 -7.68 29 -7 29 C-7 28.34 -7 27.68 -7 27 C-7.66 27 -8.32 27 -9 27 Z M-8 34 C-8.33 34.66 -8.66 35.32 -9 36 C-8.34 36 -7.68 36 -7 36 C-7.33 35.34 -7.66 34.68 -8 34 Z M-9 83 C-9 83.66 -9 84.32 -9 85 C-8.34 85 -7.68 85 -7 85 C-7 84.34 -7 83.68 -7 83 C-7.66 83 -8.32 83 -9 83 Z M-5 87 C-4.67 87.66 -4.34 88.32 -4 89 C-3.67 88.34 -3.34 87.68 -3 87 C-3.66 87 -4.32 87 -5 87 Z " fill="#565655" transform="translate(12,1)"/>
<path d="M0 0 C0.721875 0.185625 1.44375 0.37125 2.1875 0.5625 C5.15685423 1.02439955 7.10335998 0.68604632 10 0 C17.33333333 0 24.66666667 0 32 0 C32 0.66 32 1.32 32 2 C32.99 1.34 33.98 0.68 35 0 C37.62890625 -0.30078125 37.62890625 -0.30078125 40.5625 -0.3125 C41.53316406 -0.32925781 42.50382812 -0.34601562 43.50390625 -0.36328125 C44.32761719 -0.24339844 45.15132812 -0.12351562 46 0 C48 3 48 3 47.6875 5 C47.460625 5.66 47.23375 6.32 47 7 C46.67 7.99 46.34 8.98 46 10 C46.99 10.33 47.98 10.66 49 11 C48.34 12.32 47.68 13.64 47 15 C47.66 15.66 48.32 16.32 49 17 C48.625 19 48.625 19 48 21 C47.8509288 23.0745356 47.8509288 23.0745356 49 25 C48.4740625 25.8971875 48.4740625 25.8971875 47.9375 26.8125 C46.69506906 29.03137096 46.69506906 29.03137096 47.875 31.5 C48.24625 32.325 48.6175 33.15 49 34 C49 38.67325155 47.92757363 40.82359047 46 45 C46.66 45 47.32 45 48 45 C48.33 45.99 48.66 46.98 49 48 C47.68 48.66 46.36 49.32 45 50 C44.82984375 49.45472656 44.6596875 48.90945312 44.484375 48.34765625 C42.90024622 43.41831936 41.0695124 38.72931127 38.8671875 34.04296875 C38.01830866 32.04313256 37.46651425 30.11835551 37 28 C36.34 28 35.68 28 35 28 C34.6596875 26.576875 34.6596875 26.576875 34.3125 25.125 C33.35590055 21.83706872 33.35590055 21.83706872 30.6875 21 C29.800625 20.67 28.91375 20.34 28 20 C26.87114351 18.57232856 25.74308506 17.14401051 24.62109375 15.7109375 C18.13362831 8.86392578 8.63846551 5.27146076 0 2 C0 1.34 0 0.68 0 0 Z M15 3 C16 5 16 5 16 5 Z M22 3 C23 5 23 5 23 5 Z M29 3 C30 5 30 5 30 5 Z M36 3 C37 5 37 5 37 5 Z M43 3 C44 5 44 5 44 5 Z M22 10 C21.67 10.66 21.34 11.32 21 12 C21.66 12 22.32 12 23 12 C22.67 11.34 22.34 10.68 22 10 Z M29 10 C30 12 30 12 30 12 Z M43 10 C44 12 44 12 44 12 Z M25 14 C25.66 14.66 26.32 15.32 27 16 C27 15.34 27 14.68 27 14 C26.34 14 25.68 14 25 14 Z M36 17 C37 19 37 19 37 19 Z M39 21 C39.66 21.66 40.32 22.32 41 23 C41 22.34 41 21.68 41 21 C40.34 21 39.68 21 39 21 Z M36 24 C36 27 36 27 36 27 Z M43 24 C44 26 44 26 44 26 Z M43 39 C44 41 44 41 44 41 Z " fill="#585857" transform="translate(77,0)"/>
<path d="M0 0 C4.875 0.875 4.875 0.875 6 2 C6.28556554 5.21261231 6.3687992 7.32063306 4.8125 10.1875 C2.72112808 12.27887192 0.5752257 13.55536119 -2 15 C-2.721875 15.556875 -3.44375 16.11375 -4.1875 16.6875 C-6 18 -6 18 -8 18 C-8 18.66 -8 19.32 -8 20 C-8.78246094 20.20496094 -9.56492188 20.40992187 -10.37109375 20.62109375 C-11.38300781 20.89050781 -12.39492187 21.15992187 -13.4375 21.4375 C-14.44683594 21.70433594 -15.45617187 21.97117187 -16.49609375 22.24609375 C-18.91752001 22.75978077 -18.91752001 22.75978077 -20 24 C-29.89146661 24.76541111 -38.76987264 23.8786624 -47 18 C-48.35573748 16.68945377 -49.68612831 15.35251497 -51 14 C-51.59554687 13.54496094 -52.19109375 13.08992188 -52.8046875 12.62109375 C-54.70001015 11.16344601 -56.40965736 9.78749255 -58 8 C-58.4375 4.625 -58.4375 4.625 -58 2 C-55.8125 1.1875 -55.8125 1.1875 -53 1 C-50.63035433 3.0050848 -48.70066129 5.19454772 -46.66796875 7.53125 C-42.30184197 12.2461858 -37.61829686 15.61771719 -31.02978516 16.16308594 C-26.34527698 16.33412275 -21.68137288 16.20678457 -17 16 C-17 15.34 -17 14.68 -17 14 C-15.730447 13.35165346 -14.45930294 12.70642185 -13.1875 12.0625 C-12.47980469 11.70285156 -11.77210937 11.34320313 -11.04296875 10.97265625 C-9 10 -9 10 -6 9 C-5.29605388 7.68596724 -4.63654342 6.3479743 -4 5 C-2.6949419 3.31110128 -1.36639342 1.6396721 0 0 Z " fill="#1B1505" transform="translate(89,73)"/>
<path d="M0 0 C5.15438571 0.04277499 9.24646462 3.12697846 13 6.4375 C13.33 7.4275 13.66 8.4175 14 9.4375 C15.50090253 10.88671942 15.50090253 10.88671942 17.3125 12.25 C20.59945656 14.9756039 22.93894359 17.64515621 25 21.4375 C25 22.7575 25 24.0775 25 25.4375 C25.66 25.4375 26.32 25.4375 27 25.4375 C28.6543676 30.50564202 29.27163961 34.79923621 29.25 40.1875 C29.25773437 42.12882812 29.25773437 42.12882812 29.265625 44.109375 C29 47.4375 29 47.4375 27 50.4375 C24.375 50.625 24.375 50.625 22 50.4375 C20.57732138 47.59214275 20.78028131 45.07531448 20.68359375 41.8984375 C20.64169922 40.59648438 20.59980469 39.29453125 20.55664062 37.953125 C20.51682701 36.57291955 20.47711478 35.19271117 20.4375 33.8125 C20.39430593 32.42446585 20.35069135 31.03644472 20.30664062 29.6484375 C20.20028 26.24489744 20.09825286 22.84128222 20 19.4375 C18.88729736 19.48390625 17.77459473 19.5303125 16.62817383 19.578125 C15.43087646 19.53171875 14.2335791 19.4853125 13 19.4375 C10.94921875 17.1875 10.94921875 17.1875 9 14.4375 C5.93336819 12.31537471 2.77956001 10.41774397 -0.41796875 8.5 C-3 6.4375 -3 6.4375 -3.92578125 3.75 C-3.95027344 2.986875 -3.97476563 2.22375 -4 1.4375 C-3 0.4375 -3 0.4375 0 0 Z " fill="#F9F3DA" transform="translate(78,18.5625)"/>
<path d="M0 0 C0.99 0.33 1.98 0.66 3 1 C2.67 1.99 2.34 2.98 2 4 C2.99 3.67 3.98 3.34 5 3 C4.83757813 3.76570313 4.67515625 4.53140625 4.5078125 5.3203125 C3.8359263 10.18890329 3.85528802 14.96671629 3.875 19.875 C3.87113281 20.83019531 3.86726562 21.78539063 3.86328125 22.76953125 C3.87453038 30.97014619 3.99256878 37.89910768 8.0625 45.25 C10.1497351 49.04140117 11 50.58857876 11 55 C9.68 55.66 8.36 56.32 7 57 C6.505 55.515 6.505 55.515 6 54 C6.66 53.01 7.32 52.02 8 51 C7.34 51 6.68 51 6 51 C5.67 51.99 5.34 52.98 5 54 C4.01 54.66 3.02 55.32 2 56 C2.350625 56.61875 2.70125 57.2375 3.0625 57.875 C3.5265625 58.926875 3.5265625 58.926875 4 60 C3.67 60.66 3.34 61.32 3 62 C1.68 61.67 0.36 61.34 -1 61 C-1 47 -1 47 -0.4375 44.0625 C-0.0212057 41.14843989 -0.24213902 39.74724607 -1 37 C-0.67 36.01 -0.34 35.02 0 34 C-0.29299023 32.32577014 -0.62690101 30.65821773 -1 29 C-1 26.1568006 -0.58287897 23.76867509 0 21 C0.03433508 19.75858147 0.03433508 19.75858147 -0.5 17.625 C-1.08845126 14.53563087 -1.04180677 12.21367905 -0.4375 9.125 C-0.00544391 6.03888508 -0.31487176 3.99743603 -1 1 C-0.67 0.67 -0.34 0.34 0 0 Z M2 44 C2 44.66 2 45.32 2 46 C2.66 46 3.32 46 4 46 C4 45.34 4 44.68 4 44 C3.34 44 2.68 44 2 44 Z M6 48 C6.33 48.66 6.66 49.32 7 50 C7.33 49.34 7.66 48.68 8 48 C7.34 48 6.68 48 6 48 Z " fill="#51514F" transform="translate(1,40)"/>
<path d="M0 0 C1.14084797 3.4225439 1.1409573 6.07681523 1.16113281 9.68701172 C1.16609772 10.36216827 1.17106262 11.03732483 1.17617798 11.73294067 C1.19077598 13.96520001 1.19759746 16.19738829 1.203125 18.4296875 C1.2088782 19.98283897 1.21463591 21.53599041 1.22039795 23.08914185 C1.23090107 26.34572683 1.23674831 29.60228718 1.24023438 32.85888672 C1.24571907 37.0274607 1.26974923 41.19570805 1.29820633 45.36417961 C1.31684889 48.57269232 1.32203915 51.78112658 1.32357025 54.98968887 C1.32659344 56.52625439 1.33461073 58.06281864 1.34775543 59.5993309 C1.36485112 61.75120513 1.36292766 63.90228423 1.35644531 66.05419922 C1.36191376 67.88928543 1.36191376 67.88928543 1.36749268 69.76144409 C0.96434369 73.31422381 0.19324423 75.1967263 -2 78 C-3.485 78.495 -3.485 78.495 -5 79 C-5.85319945 75.37749325 -6.06555517 72.19270837 -5.87890625 68.48046875 C-5.83056641 67.45888672 -5.78222656 66.43730469 -5.73242188 65.38476562 C-5.67634766 64.32966797 -5.62027344 63.27457031 -5.5625 62.1875 C-5.51029297 61.11306641 -5.45808594 60.03863281 -5.40429688 58.93164062 C-5.2750247 56.28743696 -5.14007564 53.64364973 -5 51 C-4.01 51 -3.02 51 -2 51 C-2 49.02 -2 47.04 -2 45 C-2.66 44.67 -3.32 44.34 -4 44 C-3.34 44 -2.68 44 -2 44 C-2.495 42.515 -2.495 42.515 -3 41 C-2.7525 39.39125 -2.7525 39.39125 -2.5 37.75 C-1.83295122 34.04010728 -1.83295122 34.04010728 -2.5 30.5 C-3.04011286 26.71920997 -2.53747334 23.76231341 -2 20 C-2.30649316 17.66298962 -2.63473747 15.32854865 -3 13 C-2.67 12.34 -2.34 11.68 -2 11 C-2.66 10.67 -3.32 10.34 -4 10 C-3.38461538 3.47692308 -3.38461538 3.47692308 -1.4375 1.0625 C-0.7259375 0.5365625 -0.7259375 0.5365625 0 0 Z M-3 56 C-3.33 56.66 -3.66 57.32 -4 58 C-3.34 58 -2.68 58 -2 58 C-2.33 57.34 -2.66 56.68 -3 56 Z M-3 63 C-2 65 -2 65 -2 65 Z M-3 70 C-3.33 70.66 -3.66 71.32 -4 72 C-3.34 72 -2.68 72 -2 72 C-2.33 71.34 -2.66 70.68 -3 70 Z " fill="#545453" transform="translate(127,0)"/>
<path d="M0 0 C0.625 1.875 0.625 1.875 1 4 C0.34 4.66 -0.32 5.32 -1 6 C-0.01 7.485 -0.01 7.485 1 9 C0.443125 9.8353125 0.443125 9.8353125 -0.125 10.6875 C-1.30816298 13.81443074 -0.33937524 15.02361057 1 18 C1 22.67325155 -0.07242637 24.82359047 -2 29 C-1.34 29 -0.68 29 0 29 C0.33 29.99 0.66 30.98 1 32 C-0.32 32.66 -1.64 33.32 -3 34 C-3.25523438 33.18208984 -3.25523438 33.18208984 -3.515625 32.34765625 C-5.09975378 27.41831936 -6.9304876 22.72931127 -9.1328125 18.04296875 C-9.98169134 16.04313256 -10.53348575 14.11835551 -11 12 C-11.66 12 -12.32 12 -13 12 C-13.66 10.02 -14.32 8.04 -15 6 C-12.6875 3.9375 -12.6875 3.9375 -10 2 C-9.01 2.33 -8.02 2.66 -7 3 C-6.67 2.01 -6.34 1.02 -6 0 C-3.50907189 -1.24546405 -2.58919267 -0.7767578 0 0 Z M-9 5 C-8.34 5.66 -7.68 6.32 -7 7 C-7 6.34 -7 5.68 -7 5 C-7.66 5 -8.32 5 -9 5 Z M-12 8 C-12 11 -12 11 -12 11 Z M-5 8 C-4 10 -4 10 -4 10 Z M-5 23 C-4 25 -4 25 -4 25 Z " fill="#595958" transform="translate(125,16)"/>
<path d="M0 0 C0.66 0 1.32 0 2 0 C1.34 1.98 0.68 3.96 0 6 C0.763125 5.484375 1.52625 4.96875 2.3125 4.4375 C3.199375 3.963125 4.08625 3.48875 5 3 C8.72940389 4.24313463 9.84656811 5.76985216 12 9 C10.06798155 14.79605535 4.57636013 18.20259478 0 22 C-1.35099103 23.31543863 -2.69205669 24.64175118 -4 26 C-4.99 25.34 -5.98 24.68 -7 24 C-6.7215625 22.63875 -6.7215625 22.63875 -6.4375 21.25 C-5.78209864 18.15110095 -5.78209864 18.15110095 -6.6875 15.875 C-6.790625 15.25625 -6.89375 14.6375 -7 14 C-5.66666667 12.66666667 -4.33333333 11.33333333 -3 10 C-3.16666667 7.91666667 -3.16666667 7.91666667 -4 6 C-4 5.01 -4 4.02 -4 3 C-3.01 2.67 -2.02 2.34 -1 2 C-0.67 1.34 -0.34 0.68 0 0 Z M0 11 C1 13 1 13 1 13 Z M7 11 C8 13 8 13 8 13 Z M0 18 C1 20 1 20 1 20 Z " fill="#5D5D5C" transform="translate(7,91)"/>
<path d="M0 0 C0.33 0.66 0.66 1.32 1 2 C0.01 2 -0.98 2 -2 2 C-2.66 3.98 -3.32 5.96 -4 8 C-2.02 7.67 -0.04 7.34 2 7 C1.67 6.01 1.34 5.02 1 4 C1.99 4.33 2.98 4.66 4 5 C3.67 5.99 3.34 6.98 3 8 C4.32 8.66 5.64 9.32 7 10 C3.04 13.96 -0.92 17.92 -5 22 C-5.33 21.34 -5.66 20.68 -6 20 C-6.66 20 -7.32 20 -8 20 C-8 21.32 -8 22.64 -8 24 C-8.99 23.67 -9.98 23.34 -11 23 C-10.814375 22.113125 -10.62875 21.22625 -10.4375 20.3125 C-10.01640684 17.12422321 -10.31376037 15.08807835 -11 12 C-10.67 11.34 -10.34 10.68 -10 10 C-10.165 9.236875 -10.33 8.47375 -10.5 7.6875 C-11.04064844 4.78151461 -10.72966066 2.83756923 -10 0 C-6.33291043 -0.94296589 -3.64653273 -1.11421833 0 0 Z M-4 2 C-3 4 -3 4 -3 4 Z M-8 6 C-8 6.66 -8 7.32 -8 8 C-7.34 8 -6.68 8 -6 8 C-6 7.34 -6 6.68 -6 6 C-6.66 6 -7.32 6 -8 6 Z " fill="#5A5A59" transform="translate(11,1)"/>
<path d="M0 0 C0.721875 0.185625 1.44375 0.37125 2.1875 0.5625 C5.15685423 1.02439955 7.10335998 0.68604632 10 0 C17.33333333 0 24.66666667 0 32 0 C32 0.99 32 1.98 32 3 C29.36 3 26.72 3 24 3 C23.566875 3.9590625 23.566875 3.9590625 23.125 4.9375 C22 7 22 7 20 8 C19.34 7.67 18.68 7.34 18 7 C17.67 7.99 17.34 8.98 17 10 C15.78763672 9.38511719 15.78763672 9.38511719 14.55078125 8.7578125 C13.48214844 8.21898437 12.41351563 7.68015625 11.3125 7.125 C10.25675781 6.59132813 9.20101562 6.05765625 8.11328125 5.5078125 C5.44004095 4.21311895 2.7728867 3.05976746 0 2 C0 1.34 0 0.68 0 0 Z M15 3 C16 5 16 5 16 5 Z " fill="#535352" transform="translate(77,0)"/>
<path d="M0 0 C0.98466253 2.95398758 1.12127836 4.85249022 1.11352539 7.93041992 C1.11344986 8.93123093 1.11337433 9.93204193 1.11329651 10.96318054 C1.10813522 12.04138565 1.10297394 13.11959076 1.09765625 14.23046875 C1.0962413 15.33602615 1.09482635 16.44158356 1.09336853 17.5806427 C1.08776514 21.11628917 1.07521204 24.65187262 1.0625 28.1875 C1.05748544 30.58268138 1.05292246 32.97786375 1.04882812 35.37304688 C1.03779461 41.24871947 1.02105316 47.12435523 1 53 C0.01 52.67 -0.98 52.34 -2 52 C-2 49.69 -2 47.38 -2 45 C-2.66 44.67 -3.32 44.34 -4 44 C-3.34 44 -2.68 44 -2 44 C-2.495 42.515 -2.495 42.515 -3 41 C-2.7525 39.39125 -2.7525 39.39125 -2.5 37.75 C-1.83295122 34.04010728 -1.83295122 34.04010728 -2.5 30.5 C-3.04011286 26.71920997 -2.53747334 23.76231341 -2 20 C-2.30649316 17.66298962 -2.63473747 15.32854865 -3 13 C-2.67 12.34 -2.34 11.68 -2 11 C-2.66 10.67 -3.32 10.34 -4 10 C-3.38461538 3.47692308 -3.38461538 3.47692308 -1.4375 1.0625 C-0.7259375 0.5365625 -0.7259375 0.5365625 0 0 Z " fill="#929291" transform="translate(127,0)"/>
<path d="M0 0 C0.99 0.33 1.98 0.66 3 1 C2.67 1.99 2.34 2.98 2 4 C3.11375 3.484375 4.2275 2.96875 5.375 2.4375 C6.57125 1.963125 7.7675 1.48875 9 1 C9.66 1.33 10.32 1.66 11 2 C10.36181389 4.9649063 9.39150372 7.43407737 8 10.125 C7.649375 10.80820312 7.29875 11.49140625 6.9375 12.1953125 C6.4734375 13.08863281 6.4734375 13.08863281 6 14 C5.67 14.66 5.34 15.32 5 16 C2.53199953 14.84826645 0.95216435 13.95216435 -1 12 C-0.68834559 9.99650739 -0.35236497 7.99673484 0 6 C-0.29749946 4.32656552 -0.62127066 2.65694085 -1 1 C-0.67 0.67 -0.34 0.34 0 0 Z M3 9 C2.67 9.66 2.34 10.32 2 11 C2.66 11 3.32 11 4 11 C3.67 10.34 3.34 9.68 3 9 Z " fill="#575756" transform="translate(1,26)"/>
<path d="M0 0 C0.66 0 1.32 0 2 0 C2.33 1.65 2.66 3.3 3 5 C2.01 5.33 1.02 5.66 0 6 C-1.00916033 7.76591887 -1.00916033 7.76591887 -2 10 C-3.31542376 12.01182457 -4.6459068 14.01399663 -6 16 C-6.33 15.34 -6.66 14.68 -7 14 C-8.98 14.66 -10.96 15.32 -13 16 C-14.32 14.68 -15.64 13.36 -17 12 C-16 10 -16 10 -12.9375 8.875 C-11.4834375 8.441875 -11.4834375 8.441875 -10 8 C-10 8.66 -10 9.32 -10 10 C-10.66 10 -11.32 10 -12 10 C-12 10.99 -12 11.98 -12 13 C-10.01979579 12.55966008 -10.01979579 12.55966008 -8 11 C-7.19997181 9.0900114 -7.19997181 9.0900114 -6.5625 6.9375 C-5.859375 4.77734375 -5.859375 4.77734375 -5 3 C-2.3125 2 -2.3125 2 0 2 C0 1.34 0 0.68 0 0 Z " fill="#555554" transform="translate(19,13)"/>
<path d="M0 0 C0.66 0 1.32 0 2 0 C1.34 1.98 0.68 3.96 0 6 C0.78375 5.484375 1.5675 4.96875 2.375 4.4375 C3.674375 3.7259375 3.674375 3.7259375 5 3 C5.66 3.33 6.32 3.66 7 4 C5.625 6 5.625 6 4 8 C3.34 8 2.68 8 2 8 C1.34 9.98 0.68 11.96 0 14 C0.99 13.01 1.98 12.02 3 11 C3.99 11.33 4.98 11.66 6 12 C4.35 13.98 2.7 15.96 1 18 C0.01 17.67 -0.98 17.34 -2 17 C-2 16.01 -2 15.02 -2 14 C-2.66 14 -3.32 14 -4 14 C-4.33 13.01 -4.66 12.02 -5 11 C-4.34 10.67 -3.68 10.34 -3 10 C-3.165 9.401875 -3.33 8.80375 -3.5 8.1875 C-4 6 -4 6 -4 3 C-3.01 2.67 -2.02 2.34 -1 2 C-0.67 1.34 -0.34 0.68 0 0 Z " fill="#545352" transform="translate(7,91)"/>
<path d="M0 0 C0.886875 0.185625 1.77375 0.37125 2.6875 0.5625 C5.88965669 0.98542636 7.90675408 0.75241117 11 0 C13.87137415 0 16.2303041 0.27113266 19 1 C19.33 1.66 19.66 2.32 20 3 C18.68 3 17.36 3 16 3 C16 3.66 16 4.32 16 5 C14.56445975 5.50559908 13.1264798 6.0042749 11.6875 6.5 C10.48673828 6.91765625 10.48673828 6.91765625 9.26171875 7.34375 C7 8 7 8 4 8 C4.33 7.01 4.66 6.02 5 5 C4.01 5 3.02 5 2 5 C2 4.34 2 3.68 2 3 C1.01 2.67 0.02 2.34 -1 2 C-0.67 1.34 -0.34 0.68 0 0 Z M8 3 C8 3.66 8 4.32 8 5 C8.66 4.67 9.32 4.34 10 4 C9.34 3.67 8.68 3.34 8 3 Z " fill="#5D5D5C" transform="translate(27,0)"/>
<path d="M0 0 C0.66 0 1.32 0 2 0 C2 0.99 2 1.98 2 3 C3.98 2.67 5.96 2.34 8 2 C8.33 3.65 8.66 5.3 9 7 C7.35 8.32 5.7 9.64 4 11 C4 10.34 4 9.68 4 9 C3.34 9 2.68 9 2 9 C2 10.32 2 11.64 2 13 C1.01 12.67 0.02 12.34 -1 12 C-0.814375 11.113125 -0.62875 10.22625 -0.4375 9.3125 C-0.01789594 6.13549782 -0.29693468 4.07591077 -1 1 C-0.67 0.67 -0.34 0.34 0 0 Z " fill="#575655" transform="translate(1,12)"/>
<path d="M0 0 C0.66 0 1.32 0 2 0 C2 0.66 2 1.32 2 2 C2.66 2.33 3.32 2.66 4 3 C6 5 6 5 6 8 C6.66 8.33 7.32 8.66 8 9 C5.03 11.475 5.03 11.475 2 14 C1.01 13.34 0.02 12.68 -1 12 C-0.814375 11.0925 -0.62875 10.185 -0.4375 9.25 C-0.03393523 6.25209026 -0.19760855 4.80837006 -1 2 C-0.67 1.34 -0.34 0.68 0 0 Z " fill="#565655" transform="translate(1,103)"/>
<path d="M0 0 C0.66 0 1.32 0 2 0 C2 0.99 2 1.98 2 3 C1.34 3 0.68 3 0 3 C-0.433125 3.86625 -0.433125 3.86625 -0.875 4.75 C-1.91666667 6.83333333 -2.95833333 8.91666667 -4 11 C-4.99 10.67 -5.98 10.34 -7 10 C-7.33 12.64 -7.66 15.28 -8 18 C-8.66 18 -9.32 18 -10 18 C-10 17.34 -10 16.68 -10 16 C-11.32 15.67 -12.64 15.34 -14 15 C-10.81869489 10.95106622 -7.56297783 7.6238602 -3.55078125 4.39453125 C-1.7459798 2.88740659 -1.7459798 2.88740659 0 0 Z " fill="#535352" transform="translate(16,103)"/>
<path d="M0 0 C0.99 0.33 1.98 0.66 3 1 C3 1.66 3 2.32 3 3 C7.58335908 4.92205381 12.27934033 6.45730076 17 8 C14.50935112 8.68707555 12.62113708 9 10 9 C10.66 9.66 11.32 10.32 12 11 C8.15185513 11.58305225 6.23691365 10.7002883 3.1875 8.5 C2.11635945 7.67780256 1.0508641 6.84795951 0 6 C0.66 5.34 1.32 4.68 2 4 C1.34 2.68 0.68 1.36 0 0 Z " fill="#D6A413" transform="translate(39,88)"/>
<path d="M0 0 C0.98226562 0.01160156 1.96453125 0.02320313 2.9765625 0.03515625 C3.95367187 0.04417969 4.93078125 0.05320313 5.9375 0.0625 C7.25621094 0.07990234 7.25621094 0.07990234 8.6015625 0.09765625 C9.5915625 0.09765625 10.5815625 0.09765625 11.6015625 0.09765625 C13.26822917 0.09765625 14.93489583 0.09765625 16.6015625 0.09765625 C16.6015625 1.08765625 16.6015625 2.07765625 16.6015625 3.09765625 C13.9615625 3.09765625 11.3215625 3.09765625 8.6015625 3.09765625 C8.2715625 3.75765625 7.9415625 4.41765625 7.6015625 5.09765625 C6.9415625 5.09765625 6.2815625 5.09765625 5.6015625 5.09765625 C5.6015625 4.43765625 5.6015625 3.77765625 5.6015625 3.09765625 C3.6215625 3.09765625 1.6415625 3.09765625 -0.3984375 3.09765625 C-0.7284375 3.75765625 -1.0584375 4.41765625 -1.3984375 5.09765625 C-2.0584375 3.77765625 -2.7184375 2.45765625 -3.3984375 1.09765625 C-2.3984375 0.09765625 -2.3984375 0.09765625 0 0 Z " fill="#8E8E8D" transform="translate(92.3984375,-0.09765625)"/>
<path d="M0 0 C2 2 2 2 2.22705078 3.87939453 C2.21657715 4.62302246 2.20610352 5.36665039 2.1953125 6.1328125 C2.18886719 6.93847656 2.18242187 7.74414062 2.17578125 8.57421875 C2.15902344 9.41597656 2.14226562 10.25773437 2.125 11.125 C2.11597656 11.97449219 2.10695312 12.82398437 2.09765625 13.69921875 C2.07405647 15.79959884 2.03818483 17.89983444 2 20 C0.68 20 -0.64 20 -2 20 C-1.814375 19.29875 -1.62875 18.5975 -1.4375 17.875 C-0.83249112 15.01235231 -0.83249112 15.01235231 -1.5625 12.25 C-2.15232202 7.86846498 -1.13643222 4.22640083 0 0 Z " fill="#919190" transform="translate(126,53)"/>
<path d="M0 0 C0.99 0.33 1.98 0.66 3 1 C2.67 1.99 2.34 2.98 2 4 C2.99 3.67 3.98 3.34 5 3 C3.95902388 6.86648272 2.96301592 10.49461443 1 14 C0.34 13.34 -0.32 12.68 -1 12 C-0.68834559 9.99650739 -0.35236497 7.99673484 0 6 C-0.29749946 4.32656552 -0.62127066 2.65694085 -1 1 C-0.67 0.67 -0.34 0.34 0 0 Z " fill="#7C7C7B" transform="translate(1,40)"/>
<path d="M0 0 C6.27 0.33 12.54 0.66 19 1 C19 1.33 19 1.66 19 2 C16.03 2 13.06 2 10 2 C10.66 3.32 11.32 4.64 12 6 C5.25 5.125 5.25 5.125 3 4 C3 3.34 3 2.68 3 2 C2.01 1.67 1.02 1.34 0 1 C0 0.67 0 0.34 0 0 Z " fill="#E9B213" transform="translate(48,96)"/>
<path d="M0 0 C1.32 0.66 2.64 1.32 4 2 C4 2.99 4 3.98 4 5 C3.34 5.66 2.68 6.32 2 7 C2.5259375 7.928125 2.5259375 7.928125 3.0625 8.875 C3.371875 9.57625 3.68125 10.2775 4 11 C3.67 11.66 3.34 12.32 3 13 C1.68 12.67 0.36 12.34 -1 12 C-1.02687279 10.18757948 -1.04633715 8.37504767 -1.0625 6.5625 C-1.07410156 5.55316406 -1.08570312 4.54382813 -1.09765625 3.50390625 C-1 1 -1 1 0 0 Z " fill="#8E8E8D" transform="translate(1,89)"/>
<path d="M0 0 C1.4540625 0.0309375 1.4540625 0.0309375 2.9375 0.0625 C2.9375 2.0425 2.9375 4.0225 2.9375 6.0625 C0.9575 6.0625 -1.0225 6.0625 -3.0625 6.0625 C-3.44468767 4.40635343 -3.77645102 2.73792976 -4.0625 1.0625 C-3.0625 0.0625 -3.0625 0.0625 0 0 Z " fill="#FAF3D9" transform="translate(63.0625,16.9375)"/>
<path d="M0 0 C1.51400391 0.01740234 1.51400391 0.01740234 3.05859375 0.03515625 C4.07050781 0.04417969 5.08242187 0.05320313 6.125 0.0625 C7.29869141 0.07990234 7.29869141 0.07990234 8.49609375 0.09765625 C8.49609375 1.08765625 8.49609375 2.07765625 8.49609375 3.09765625 C7.83609375 3.75765625 7.17609375 4.41765625 6.49609375 5.09765625 C5.83609375 5.09765625 5.17609375 5.09765625 4.49609375 5.09765625 C4.49609375 4.43765625 4.49609375 3.77765625 4.49609375 3.09765625 C2.51609375 3.09765625 0.53609375 3.09765625 -1.50390625 3.09765625 C-1.83390625 3.75765625 -2.16390625 4.41765625 -2.50390625 5.09765625 C-3.06640625 3.16015625 -3.06640625 3.16015625 -3.50390625 1.09765625 C-2.50390625 0.09765625 -2.50390625 0.09765625 0 0 Z " fill="#8D8D8C" transform="translate(114.50390625,-0.09765625)"/>
<path d="M0 0 C5.57142857 5.14285714 5.57142857 5.14285714 6 9 C5.01 8.67 4.02 8.34 3 8 C3 9.65 3 11.3 3 13 C2.67 13 2.34 13 2 13 C1.67 10.36 1.34 7.72 1 5 C-1.31 5 -3.62 5 -6 5 C-6.33 4.34 -6.66 3.68 -7 3 C-4.36 3.33 -1.72 3.66 1 4 C0.67 2.68 0.34 1.36 0 0 Z " fill="#DCD1A9" transform="translate(97,33)"/>
<path d="M0 0 C1.1845131 3.55353929 1.26641894 6.27013478 1 10 C-0.5 11.9375 -0.5 11.9375 -2 13 C-2 12.34 -2 11.68 -2 11 C-2.66 10.67 -3.32 10.34 -4 10 C-3.38461538 3.47692308 -3.38461538 3.47692308 -1.4375 1.0625 C-0.7259375 0.5365625 -0.7259375 0.5365625 0 0 Z " fill="#8C8C8B" transform="translate(127,0)"/>
<path d="M0 0 C1.20628008 2.33214148 2.1654738 4.49642139 3 7 C3.66 7.33 4.32 7.66 5 8 C4.1875 9.9375 4.1875 9.9375 3 12 C2.01 12.33 1.02 12.66 0 13 C-1.29676812 8.38926889 -0.71109139 4.66159911 0 0 Z " fill="#6D6D6C" transform="translate(122,66)"/>
<path d="M0 0 C0.721875 0.185625 1.44375 0.37125 2.1875 0.5625 C5.12826973 1.01995307 7.14103058 0.73516357 10 0 C10 1.32 10 2.64 10 4 C7.03 3.67 4.06 3.34 1 3 C0.67 2.01 0.34 1.02 0 0 Z " fill="#8B8B8B" transform="translate(77,0)"/>
<path d="M0 0 C2.35171131 0.59861742 4.6859378 1.26924352 7 2 C7.33 2.66 7.66 3.32 8 4 C0.375 5.25 0.375 5.25 -3 3 C-2.67 2.34 -2.34 1.68 -2 1 C-1.34 1.33 -0.68 1.66 0 2 C0 1.34 0 0.68 0 0 Z " fill="#888888" transform="translate(83,123)"/>
<path d="M0 0 C0.33 0.66 0.66 1.32 1 2 C1.99 1.67 2.98 1.34 4 1 C6.1875 1.4375 6.1875 1.4375 8 2 C7.67 2.99 7.34 3.98 7 5 C0.47692308 5.36923077 0.47692308 5.36923077 -1.9375 3.5 C-2.4634375 2.7575 -2.4634375 2.7575 -3 2 C-2.01 2 -1.02 2 0 2 C0 1.34 0 0.68 0 0 Z " fill="#8C8C8B" transform="translate(62,123)"/>
<path d="M0 0 C0.66 0.33 1.32 0.66 2 1 C1.67 2.65 1.34 4.3 1 6 C-0.98 6.33 -2.96 6.66 -5 7 C-4.49396008 4.83125748 -4.00016187 3.00032373 -3 1 C-2.01 0.67 -1.02 0.34 0 0 Z " fill="#555554" transform="translate(12,2)"/>
<path d="M0 0 C-0.33 0.66 -0.66 1.32 -1 2 C-4.63 2 -8.26 2 -12 2 C-10 -1 -10 -1 -7.6875 -1.8125 C-4.5778434 -2.02945279 -2.7770808 -1.34886782 0 0 Z " fill="#969695" transform="translate(32,126)"/>
<path d="M0 0 C0.33 0 0.66 0 1 0 C1.98248524 4.0527516 2.08159574 7.83861737 2 12 C1.01 12 0.02 12 -1 12 C-0.814375 11.113125 -0.62875 10.22625 -0.4375 9.3125 C-0.01789594 6.13549782 -0.29693468 4.07591077 -1 1 C-0.67 0.67 -0.34 0.34 0 0 Z " fill="#949493" transform="translate(1,61)"/>
<path d="M0 0 C1.625 1.5 1.625 1.5 3 3 C3.33 2.34 3.66 1.68 4 1 C3.67 2.32 3.34 3.64 3 5 C-3.75 4.25 -3.75 4.25 -6 2 C-2.25 0 -2.25 0 0 0 Z " fill="#5E5E5D" transform="translate(90,2)"/>
<path d="M0 0 C2.2109885 0.42793326 3.98119242 0.99059621 6 2 C6 2.99 6 3.98 6 5 C4.125 6.0625 4.125 6.0625 2 7 C1.34 6.67 0.68 6.34 0 6 C0.33 5.01 0.66 4.02 1 3 C0.34 2.34 -0.32 1.68 -1 1 C-0.67 0.67 -0.34 0.34 0 0 Z " fill="#4E4D4C" transform="translate(102,11)"/>
<path d="M0 0 C1.32 1.32 2.64 2.64 4 4 C3 7 3 7 0.9375 8.1875 C0.298125 8.455625 -0.34125 8.72375 -1 9 C-1.33 8.01 -1.66 7.02 -2 6 C-1.34 5.01 -0.68 4.02 0 3 C0 2.01 0 1.02 0 0 Z " fill="#656564" transform="translate(9,88)"/>
<path d="M0 0 C-4.02167317 2.96837781 -7.00088076 4.52389341 -12 5 C-5.5 -1.96428571 -5.5 -1.96428571 0 0 Z " fill="#AB8312" transform="translate(45,14)"/>
<path d="M0 0 C0.66 0 1.32 0 2 0 C0.65365543 4.4062186 -1.19374374 6.43077702 -5 9 C-5.66 9 -6.32 9 -7 9 C-7 8.34 -7 7.68 -7 7 C-5.01739574 5.31267723 -3.0167658 3.64633943 -1 2 C-0.67 1.34 -0.34 0.68 0 0 Z " fill="#51504F" transform="translate(116,109)"/>
<path d="M0 0 C0.99 0.33 1.98 0.66 3 1 C3 1.66 3 2.32 3 3 C3.66 3 4.32 3 5 3 C5.33 4.65 5.66 6.3 6 8 C3.5625 7.625 3.5625 7.625 1 7 C0.67 6.34 0.34 5.68 0 5 C0.66 4.67 1.32 4.34 2 4 C1.34 2.68 0.68 1.36 0 0 Z " fill="#C99A13" transform="translate(39,88)"/>
<path d="M0 0 C2.475 0.495 2.475 0.495 5 1 C2.25 5.875 2.25 5.875 0 7 C0 4.69 0 2.38 0 0 Z " fill="#5F5F5E" transform="translate(122,51)"/>
<path d="M0 0 C0.99 0.33 1.98 0.66 3 1 C2.01 2.98 1.02 4.96 0 7 C-1.32 6.01 -2.64 5.02 -4 4 C-2.68 2.68 -1.36 1.36 0 0 Z " fill="#636362" transform="translate(39,119)"/>
<path d="M0 0 C2.475 0.99 2.475 0.99 5 2 C4.34 3.32 3.68 4.64 3 6 C1.68 5.67 0.36 5.34 -1 5 C-0.67 3.35 -0.34 1.7 0 0 Z " fill="#8D8D8C" transform="translate(1,75)"/>
<path d="M0 0 C2.0625 0.4375 2.0625 0.4375 4 1 C3.67 2.32 3.34 3.64 3 5 C2.01 5 1.02 5 0 5 C-0.5625 3.0625 -0.5625 3.0625 -1 1 C-0.67 0.67 -0.34 0.34 0 0 Z " fill="#8E8E8D" transform="translate(1,111)"/>
<path d="M0 0 C0.33 0 0.66 0 1 0 C1.53394179 1.4117783 2.05165104 2.82970244 2.5625 4.25 C2.85253906 5.03890625 3.14257812 5.8278125 3.44140625 6.640625 C4.04522837 9.19103452 3.8473932 10.55322229 3 13 C-0.36055646 8.51925805 -0.27429625 5.39449293 0 0 Z " fill="#47360B" transform="translate(12,68)"/>
<path d="M0 0 C2.4375 0.375 2.4375 0.375 5 1 C5.33 1.66 5.66 2.32 6 3 C5.01 3 4.02 3 3 3 C2.67 3.66 2.34 4.32 2 5 C1.01 4.34 0.02 3.68 -1 3 C-0.67 2.01 -0.34 1.02 0 0 Z " fill="#8C8C8B" transform="translate(6,0)"/>
<path d="M0 0 C0.66 0 1.32 0 2 0 C2 0.66 2 1.32 2 2 C2.66 2.33 3.32 2.66 4 3 C4 3.66 4 4.32 4 5 C2.68 5.33 1.36 5.66 0 6 C-1.125 2.25 -1.125 2.25 0 0 Z " fill="#8B8B8B" transform="translate(1,103)"/>
<path d="M0 0 C1.32 0.66 2.64 1.32 4 2 C3.34 2 2.68 2 2 2 C2.33 2.99 2.66 3.98 3 5 C1.68 5 0.36 5 -1 5 C-0.67 3.35 -0.34 1.7 0 0 Z " fill="#90908F" transform="translate(1,82)"/>
<path d="M0 0 C0.99 0.33 1.98 0.66 3 1 C3 2.65 3 4.3 3 6 C1.68 5.67 0.36 5.34 -1 5 C-0.67 3.35 -0.34 1.7 0 0 Z " fill="#939392" transform="translate(1,40)"/>
<path d="M0 0 C2.4375 0.375 2.4375 0.375 5 1 C5.33 1.66 5.66 2.32 6 3 C4.02 3.33 2.04 3.66 0 4 C0 2.68 0 1.36 0 0 Z " fill="#90908F" transform="translate(41,0)"/>
<path d="M0 0 C0 0.99 0 1.98 0 3 C-2.64 3 -5.28 3 -8 3 C-5.53387212 -0.1151089 -3.89156016 -0.31553191 0 0 Z " fill="#888888" transform="translate(109,0)"/>
<path d="M0 0 C0.99 0.33 1.98 0.66 3 1 C2.67 2.98 2.34 4.96 2 7 C1.67 6.01 1.34 5.02 1 4 C0.01 3.67 -0.98 3.34 -2 3 C-1.34 2.67 -0.68 2.34 0 2 C0 1.34 0 0.68 0 0 Z " fill="#5B5B5A" transform="translate(4,79)"/>
<path d="M0 0 C4.875 3.625 4.875 3.625 6 7 C5.01 7 4.02 7 3 7 C3 6.34 3 5.68 3 5 C1.68 4.34 0.36 3.68 -1 3 C-0.67 2.01 -0.34 1.02 0 0 Z " fill="#50504F" transform="translate(120,76)"/>
<path d="M0 0 C0.99 0.33 1.98 0.66 3 1 C2.67 2.65 2.34 4.3 2 6 C1.01 5.67 0.02 5.34 -1 5 C-0.67 3.35 -0.34 1.7 0 0 Z " fill="#8E8E8D" transform="translate(1,33)"/>
<path d="M0 0 C0.99 0.33 1.98 0.66 3 1 C2.67 2.65 2.34 4.3 2 6 C1.01 5.67 0.02 5.34 -1 5 C-0.67 3.35 -0.34 1.7 0 0 Z " fill="#90908F" transform="translate(1,26)"/>
<path d="M0 0 C-0.99 0.33 -1.98 0.66 -3 1 C-3.33 1.99 -3.66 2.98 -4 4 C-4.99 4 -5.98 4 -7 4 C-6.625 2.0625 -6.625 2.0625 -6 0 C-3.50907189 -1.24546405 -2.58919267 -0.7767578 0 0 Z " fill="#5D5D5C" transform="translate(112,16)"/>
<path d="M0 0 C0.66 0 1.32 0 2 0 C2 0.99 2 1.98 2 3 C2.66 3.33 3.32 3.66 4 4 C2.02 4.99 2.02 4.99 0 6 C-0.38218767 4.34385343 -0.71395102 2.67542976 -1 1 C-0.67 0.67 -0.34 0.34 0 0 Z " fill="#90908F" transform="translate(1,12)"/>
<path d="M0 0 C1.65 0.33 3.3 0.66 5 1 C5 1.66 5 2.32 5 3 C3.35 3.33 1.7 3.66 0 4 C0 2.68 0 1.36 0 0 Z " fill="#8B8B8A" transform="translate(34,0)"/>
<path d="M0 0 C1.65 0.33 3.3 0.66 5 1 C4.67 1.99 4.34 2.98 4 4 C2.35 3.67 0.7 3.34 -1 3 C-0.67 2.01 -0.34 1.02 0 0 Z " fill="#90908F" transform="translate(20,0)"/>
<path d="M0 0 C1.65 0.33 3.3 0.66 5 1 C4.34 2.32 3.68 3.64 3 5 C2.67 4.34 2.34 3.68 2 3 C1.01 2.67 0.02 2.34 -1 2 C-0.67 1.34 -0.34 0.68 0 0 Z " fill="#8D8D8C" transform="translate(27,0)"/>
<path d="M0 0 C2.97 0 5.94 0 9 0 C9 0.66 9 1.32 9 2 C6.69 2.33 4.38 2.66 2 3 C1.34 2.01 0.68 1.02 0 0 Z " fill="#60605F" transform="translate(109,121)"/>
<path d="M0 0 C2.12508244 3.18762365 2.5020163 5.26512223 3 9 C1.68 8.34 0.36 7.68 -1 7 C-0.67 4.69 -0.34 2.38 0 0 Z " fill="#5B5B5A" transform="translate(3,68)"/>
<path d="M0 0 C0.99 0.33 1.98 0.66 3 1 C2.67 2.65 2.34 4.3 2 6 C1.01 5.67 0.02 5.34 -1 5 C-0.67 3.35 -0.34 1.7 0 0 Z " fill="#919190" transform="translate(1,19)"/>
<path d="M0 0 C0.99 0 1.98 0 3 0 C2.67 1.98 2.34 3.96 2 6 C1.34 6 0.68 6 0 6 C-0.38218767 4.34385343 -0.71395102 2.67542976 -1 1 C-0.67 0.67 -0.34 0.34 0 0 Z " fill="#919190" transform="translate(1,5)"/>
<path d="M0 0 C1.65 0.33 3.3 0.66 5 1 C4.34 2.32 3.68 3.64 3 5 C2.67 4.34 2.34 3.68 2 3 C1.01 2.67 0.02 2.34 -1 2 C-0.67 1.34 -0.34 0.68 0 0 Z " fill="#90908F" transform="translate(13,0)"/>
</svg>
